<svg width="384" height="65" viewBox="0 0 384 65" fill="none" xmlns="http://www.w3.org/2000/svg">
<rect x="1" y="1" width="382" height="63" rx="31.5" stroke="white" stroke-opacity="0.62" stroke-width="2"/>
<path d="M30.2591 39.1391C32.4466 37.2479 34.167 35.6984 35.4202 34.4908C36.6962 33.2603 37.7558 31.9843 38.5988 30.6627C39.4419 29.3411 39.8635 28.0195 39.8635 26.6979C39.8635 25.3308 39.5331 24.2598 38.8723 23.4851C38.2343 22.7104 37.2203 22.323 35.8303 22.323C34.486 22.323 33.4378 22.7559 32.6859 23.6218C31.9567 24.4649 31.5693 25.6042 31.5238 27.0397H27.7641C27.8324 24.4421 28.6072 22.4597 30.0882 21.0926C31.5921 19.7026 33.4948 19.0076 35.7962 19.0076C38.2798 19.0076 40.2167 19.6912 41.6066 21.0584C43.0193 22.4255 43.7257 24.2484 43.7257 26.527C43.7257 28.1676 43.3042 29.7513 42.4611 31.2779C41.6408 32.7818 40.6496 34.1376 39.4875 35.3452C38.3482 36.5301 36.8899 37.9087 35.1126 39.4809L33.5745 40.8481H44.4093V44.0951H27.7982V41.2582L30.2591 39.1391ZM65.4345 22.8699H53.9845V29.6715C54.463 29.0335 55.1694 28.498 56.1036 28.0651C57.0606 27.6322 58.0746 27.4157 59.1456 27.4157C61.0596 27.4157 62.609 27.8258 63.7939 28.6461C65.0016 29.4664 65.8561 30.5032 66.3574 31.7564C66.8814 33.0097 67.1435 34.3313 67.1435 35.7212C67.1435 37.4074 66.8131 38.9113 66.1523 40.2329C65.5143 41.5317 64.5459 42.557 63.2471 43.309C61.971 44.0609 60.3988 44.4369 58.5303 44.4369C56.0467 44.4369 54.0529 43.8217 52.549 42.5912C51.0451 41.3608 50.1451 39.7316 49.8488 37.7036H53.6427C53.8934 38.7746 54.4516 39.629 55.3175 40.267C56.1834 40.8823 57.2657 41.1899 58.5645 41.1899C60.1823 41.1899 61.39 40.7 62.1875 39.7202C63.0078 38.7404 63.4179 37.4416 63.4179 35.8238C63.4179 34.1832 63.0078 32.9299 62.1875 32.0641C61.3672 31.1754 60.1595 30.7311 58.5645 30.7311C57.448 30.7311 56.5024 31.0159 55.7276 31.5855C54.9757 32.1324 54.4288 32.8844 54.0871 33.8414H50.3957V19.452H65.4345V22.8699ZM98.1247 30.4235V33.7047H84.0771V30.4235H98.1247ZM117.256 39.1391C119.443 37.2479 121.163 35.6984 122.417 34.4908C123.693 33.2603 124.752 31.9843 125.595 30.6627C126.438 29.3411 126.86 28.0195 126.86 26.6979C126.86 25.3308 126.53 24.2598 125.869 23.4851C125.231 22.7104 124.217 22.323 122.827 22.323C121.482 22.323 120.434 22.7559 119.682 23.6218C118.953 24.4649 118.566 25.6042 118.52 27.0397H114.761C114.829 24.4421 115.604 22.4597 117.085 21.0926C118.589 19.7026 120.491 19.0076 122.793 19.0076C125.276 19.0076 127.213 19.6912 128.603 21.0584C130.016 22.4255 130.722 24.2484 130.722 26.527C130.722 28.1676 130.301 29.7513 129.458 31.2779C128.637 32.7818 127.646 34.1376 126.484 35.3452C125.345 36.5301 123.886 37.9087 122.109 39.4809L120.571 40.8481H131.406V44.0951H114.795V41.2582L117.256 39.1391ZM152.158 22.5281L142.656 44.4369H138.725L148.33 22.9382H135.683V19.6229H152.158V22.5281ZM196.552 20.6824C199.081 20.6824 201.291 21.1723 203.182 22.1521C205.096 23.1091 206.566 24.4991 207.592 26.322C208.64 28.1221 209.164 30.2298 209.164 32.6451C209.164 35.0604 208.64 37.1567 207.592 38.9341C206.566 40.7114 205.096 42.0785 203.182 43.0355C201.291 43.9698 199.081 44.4369 196.552 44.4369H188.793V20.6824H196.552ZM196.552 41.2582C199.332 41.2582 201.462 40.5063 202.943 39.0024C204.424 37.4985 205.165 35.3794 205.165 32.6451C205.165 29.888 204.424 27.7347 202.943 26.1852C201.462 24.6358 199.332 23.8611 196.552 23.8611H192.689V41.2582H196.552ZM218.46 23.8269V30.7994H226.663V33.9781H218.46V41.2582H227.688V44.4369H214.564V20.6482H227.688V23.8269H218.46ZM232.727 32.5084C232.727 30.1842 233.262 28.0993 234.333 26.2536C235.427 24.4079 236.897 22.9724 238.742 21.947C240.611 20.8989 242.65 20.3748 244.86 20.3748C247.39 20.3748 249.634 21.0014 251.594 22.2546C253.576 23.4851 255.012 25.2396 255.9 27.5182H251.218C250.602 26.265 249.748 25.3308 248.654 24.7155C247.561 24.1003 246.296 23.7927 244.86 23.7927C243.288 23.7927 241.887 24.1459 240.656 24.8523C239.426 25.5586 238.458 26.5726 237.751 27.8942C237.068 29.2158 236.726 30.7539 236.726 32.5084C236.726 34.2629 237.068 35.801 237.751 37.1226C238.458 38.4442 239.426 39.4695 240.656 40.1987C241.887 40.905 243.288 41.2582 244.86 41.2582C246.296 41.2582 247.561 40.9506 248.654 40.3354C249.748 39.7202 250.602 38.7859 251.218 37.5327H255.9C255.012 39.8113 253.576 41.5658 251.594 42.7963C249.634 44.0267 247.39 44.642 244.86 44.642C242.627 44.642 240.588 44.1293 238.742 43.1039C236.897 42.0557 235.427 40.6088 234.333 38.7632C233.262 36.9175 232.727 34.8326 232.727 32.5084ZM274.056 39.1391C276.244 37.2479 277.964 35.6984 279.217 34.4908C280.493 33.2603 281.553 31.9843 282.396 30.6627C283.239 29.3411 283.661 28.0195 283.661 26.6979C283.661 25.3308 283.33 24.2598 282.669 23.4851C282.031 22.7104 281.017 22.323 279.627 22.323C278.283 22.323 277.235 22.7559 276.483 23.6218C275.754 24.4649 275.366 25.6042 275.321 27.0397H271.561C271.63 24.4421 272.404 22.4597 273.885 21.0926C275.389 19.7026 277.292 19.0076 279.593 19.0076C282.077 19.0076 284.014 19.6912 285.404 21.0584C286.816 22.4255 287.523 24.2484 287.523 26.527C287.523 28.1676 287.101 29.7513 286.258 31.2779C285.438 32.7818 284.447 34.1376 283.285 35.3452C282.145 36.5301 280.687 37.9087 278.91 39.4809L277.372 40.8481H288.206V44.0951H271.595V41.2582L274.056 39.1391ZM293.167 31.6539C293.167 27.7119 293.828 24.6358 295.15 22.4255C296.494 20.1925 298.796 19.076 302.054 19.076C305.312 19.076 307.602 20.1925 308.924 22.4255C310.268 24.6358 310.941 27.7119 310.941 31.6539C310.941 35.6415 310.268 38.7632 308.924 41.019C307.602 43.252 305.312 44.3685 302.054 44.3685C298.796 44.3685 296.494 43.252 295.15 41.019C293.828 38.7632 293.167 35.6415 293.167 31.6539ZM307.113 31.6539C307.113 29.8082 306.987 28.2474 306.737 26.9714C306.509 25.6953 306.03 24.6586 305.301 23.8611C304.572 23.0408 303.49 22.6306 302.054 22.6306C300.619 22.6306 299.536 23.0408 298.807 23.8611C298.078 24.6586 297.588 25.6953 297.337 26.9714C297.109 28.2474 296.996 29.8082 296.996 31.6539C296.996 33.5679 297.109 35.1744 297.337 36.4732C297.565 37.772 298.044 38.8201 298.773 39.6176C299.525 40.4151 300.619 40.8139 302.054 40.8139C303.49 40.8139 304.572 40.4151 305.301 39.6176C306.053 38.8201 306.543 37.772 306.771 36.4732C306.999 35.1744 307.113 33.5679 307.113 31.6539ZM318.755 39.1391C320.942 37.2479 322.663 35.6984 323.916 34.4908C325.192 33.2603 326.251 31.9843 327.095 30.6627C327.938 29.3411 328.359 28.0195 328.359 26.6979C328.359 25.3308 328.029 24.2598 327.368 23.4851C326.73 22.7104 325.716 22.323 324.326 22.323C322.982 22.323 321.933 22.7559 321.182 23.6218C320.452 24.4649 320.065 25.6042 320.019 27.0397H316.26C316.328 24.4421 317.103 22.4597 318.584 21.0926C320.088 19.7026 321.99 19.0076 324.292 19.0076C326.776 19.0076 328.712 19.6912 330.102 21.0584C331.515 22.4255 332.221 24.2484 332.221 26.527C332.221 28.1676 331.8 29.7513 330.957 31.2779C330.136 32.7818 329.145 34.1376 327.983 35.3452C326.844 36.5301 325.386 37.9087 323.608 39.4809L322.07 40.8481H332.905V44.0951H316.294V41.2582L318.755 39.1391ZM337.387 39.2417V36.3023L348.872 19.8279H353.588V35.8579H356.767V39.2417H353.588V44.4369H349.76V39.2417H337.387ZM349.931 23.7927L341.865 35.8579H349.931V23.7927Z" fill="url(#paint0_linear_2_2087)"/>
<path d="M77.5758 15.324V18.1042H70.5419V15.324H77.5758ZM71.9042 12.7662H75.7409V22.5664C75.7409 22.7147 75.7664 22.8398 75.8173 22.9418C75.8683 23.0391 75.9471 23.1132 76.0537 23.1642C76.1602 23.2105 76.2969 23.2337 76.4637 23.2337C76.5796 23.2337 76.714 23.2198 76.8669 23.192C77.0244 23.1642 77.1403 23.141 77.2144 23.1225L77.7704 25.8193C77.599 25.8703 77.3534 25.9328 77.0337 26.007C76.7186 26.0811 76.3433 26.1297 75.9077 26.1529C75.0273 26.1992 74.2882 26.1089 73.6905 25.8818C73.0927 25.6502 72.6433 25.2864 72.3421 24.7906C72.0409 24.2948 71.8949 23.6739 71.9042 22.9279V12.7662ZM84.0882 19.9948V26H80.2516V11.7653H83.9492V17.3536H84.0604C84.3014 16.6724 84.7022 16.1419 85.2629 15.7619C85.8236 15.3773 86.4978 15.185 87.2855 15.185C88.0408 15.185 88.6964 15.3564 89.2525 15.6993C89.8131 16.0422 90.2464 16.5149 90.5522 17.1172C90.8627 17.7196 91.0156 18.41 91.011 19.1885V26H87.1743V19.9948C87.1789 19.4665 87.0468 19.0518 86.7781 18.7506C86.514 18.4494 86.1363 18.2988 85.6452 18.2988C85.3347 18.2988 85.0613 18.3683 84.825 18.5073C84.5933 18.6417 84.4126 18.8363 84.2829 19.0912C84.1577 19.3414 84.0929 19.6426 84.0882 19.9948Z" fill="url(#paint1_linear_2_2087)"/>
<path d="M160.059 15.324V18.1042H153.026V15.324H160.059ZM154.388 12.7662H158.225V22.5664C158.225 22.7147 158.25 22.8398 158.301 22.9418C158.352 23.0391 158.431 23.1132 158.537 23.1642C158.644 23.2105 158.781 23.2337 158.947 23.2337C159.063 23.2337 159.198 23.2198 159.351 23.192C159.508 23.1642 159.624 23.141 159.698 23.1225L160.254 25.8193C160.083 25.8703 159.837 25.9328 159.517 26.007C159.202 26.0811 158.827 26.1297 158.391 26.1529C157.511 26.1992 156.772 26.1089 156.174 25.8818C155.576 25.6502 155.127 25.2864 154.826 24.7906C154.525 24.2948 154.379 23.6739 154.388 22.9279V12.7662ZM166.572 19.9948V26H162.735V11.7653H166.433V17.3536H166.544C166.785 16.6724 167.186 16.1419 167.747 15.7619C168.307 15.3773 168.981 15.185 169.769 15.185C170.524 15.185 171.18 15.3564 171.736 15.6993C172.297 16.0422 172.73 16.5149 173.036 17.1172C173.346 17.7196 173.499 18.41 173.495 19.1885V26H169.658V19.9948C169.663 19.4665 169.53 19.0518 169.262 18.7506C168.998 18.4494 168.62 18.2988 168.129 18.2988C167.818 18.2988 167.545 18.3683 167.309 18.5073C167.077 18.6417 166.896 18.8363 166.766 19.0912C166.641 19.3414 166.577 19.6426 166.572 19.9948Z" fill="url(#paint2_linear_2_2087)"/>
<defs>
<linearGradient id="paint0_linear_2_2087" x1="152.437" y1="-31.3228" x2="277.382" y2="149.593" gradientUnits="userSpaceOnUse">
<stop stop-color="white"/>
<stop offset="1" stop-color="#999999"/>
</linearGradient>
<linearGradient id="paint1_linear_2_2087" x1="78.4624" y1="-18.0398" x2="103.391" y2="-13.8334" gradientUnits="userSpaceOnUse">
<stop stop-color="white"/>
<stop offset="1" stop-color="#999999"/>
</linearGradient>
<linearGradient id="paint2_linear_2_2087" x1="160.946" y1="-18.0398" x2="185.875" y2="-13.8334" gradientUnits="userSpaceOnUse">
<stop stop-color="white"/>
<stop offset="1" stop-color="#999999"/>
</linearGradient>
</defs>
</svg>
