<svg width="256" height="1444" viewBox="0 0 256 1444" fill="none" xmlns="http://www.w3.org/2000/svg">
<g filter="url(#filter0_d_2_3224)">
<path d="M219.498 774.484H107.375V728.33C107.379 720.465 109.607 712.75 113.819 706.011C118.004 699.293 122.996 693.072 128.693 687.478C134.433 681.774 140.602 676.112 147.034 670.651C153.127 665.479 158.943 660.012 164.459 654.271C169.44 649.14 173.771 643.459 177.362 637.346C180.453 631.998 182.034 625.964 181.947 619.845C181.955 615.637 181.232 611.456 179.808 607.477C178.512 603.798 176.464 600.406 173.785 597.501C171.047 594.597 167.74 592.243 164.054 590.574C159.993 588.79 155.567 587.909 151.103 587.997C145.722 587.743 140.363 588.826 135.542 591.142C131.904 593.08 128.851 595.894 126.684 599.31C124.351 603.135 122.805 607.358 122.131 611.746C121.255 617.013 120.817 622.338 120.822 627.672V635.094C120.826 637.258 120.989 639.42 121.309 641.562L122.453 649.256H2.3656L1.72868 643.193C1.35144 639.609 0.977946 636.161 0.608227 632.85C0.203184 629.157 0.00378017 625.447 0.0108032 621.734C-0.2458 603.768 4.07236 586.016 12.588 570.028C20.9886 554.701 32.8143 541.358 47.2139 530.958C62.8159 519.835 80.3989 511.552 99.0956 506.517C117.85 501.376 137.217 498.593 156.714 498.236V0H170.718V511.63H163.716C143.204 511.457 122.77 514.091 103.027 519.453C85.9683 524.033 69.921 531.572 55.6745 541.699C42.9158 550.907 32.4358 562.722 24.9884 576.295C17.533 590.352 13.7656 605.953 14.0152 621.734C14.0074 624.964 14.1806 628.192 14.5341 631.404C14.6952 632.834 14.855 634.291 15.0137 635.775H106.821C106.817 635.548 106.817 635.321 106.817 635.094V627.672C106.812 621.618 107.311 615.574 108.307 609.597C109.264 603.502 111.433 597.642 114.696 592.338C118.094 586.978 122.863 582.547 128.547 579.466C135.486 575.944 143.264 574.237 151.103 574.516C157.666 574.422 164.166 575.757 170.116 578.422C175.457 580.854 180.246 584.278 184.207 588.497C188.134 592.737 191.138 597.692 193.042 603.068C194.976 608.465 195.96 614.136 195.951 619.845C196.022 628.258 193.834 636.546 189.598 643.905C185.467 650.951 180.482 657.5 174.748 663.415C168.91 669.495 162.753 675.284 156.301 680.76C150.14 685.991 144.239 691.403 138.758 696.856C133.826 701.687 129.503 707.061 125.878 712.865C122.929 717.524 121.373 722.875 121.38 728.33V761.003H205.493V744.252C205.638 740.632 206.54 737.078 208.145 733.801C209.749 730.524 212.023 727.593 214.831 725.181C220.767 719.598 227.135 714.456 233.88 709.8C241.137 704.691 248.955 699.089 257.332 692.996C265.503 687.032 273.056 680.322 279.887 672.96C286.777 665.532 292.544 657.205 297.018 648.227C301.572 638.654 303.826 628.215 303.611 617.688C303.817 602.618 300.416 587.705 293.672 574.103C287.045 561.115 277.457 549.734 265.624 540.81C252.438 531.062 237.481 523.766 221.519 519.294L225.615 506.403C243.243 511.361 259.755 519.441 274.305 530.228C287.782 540.4 298.7 553.37 306.245 568.169C313.937 583.615 317.827 600.56 317.615 617.688C317.836 630.241 315.108 642.679 309.634 654.074C304.591 664.199 298.086 673.586 290.314 681.96C282.881 689.967 274.663 697.265 265.773 703.752C257.336 709.894 249.458 715.539 242.14 720.685C235.977 724.929 230.158 729.619 224.735 734.714C221.755 737.108 219.874 740.534 219.498 744.252V774.484Z" fill="url(#paint0_linear_2_3224)"/>
<path d="M170.717 1431.75H156.715V898.401H107.687V795.789H220.873V891.658H206.871V809.268H121.689V884.918H170.717V1431.75Z" fill="url(#paint1_linear_2_3224)"/>
<path d="M251.384 395.611V375.075C251.38 372.148 252.214 369.276 253.795 366.776C255.719 363.697 258.012 360.847 260.626 358.282C263.52 355.405 266.635 352.546 269.887 349.785C273.279 346.906 276.518 343.862 279.589 340.665C282.593 337.566 285.205 334.135 287.37 330.443C289.576 326.61 290.715 322.293 290.678 317.912C290.682 314.937 290.17 311.982 289.162 309.17C288.173 306.374 286.611 303.797 284.57 301.592C282.508 299.399 280.017 297.618 277.24 296.353C274.146 294.969 270.768 294.276 267.357 294.325C263.28 294.179 259.235 295.065 255.624 296.894C252.675 298.493 250.201 300.794 248.438 303.576C246.74 306.337 245.611 309.387 245.113 312.559C244.591 315.693 244.329 318.862 244.331 322.036C244.331 322.036 244.335 326.384 244.34 326.604H195.366C195.272 325.732 195.178 324.876 195.083 324.035C194.896 322.331 194.805 320.62 194.808 318.907C194.677 310.542 196.674 302.273 200.626 294.822C204.572 287.631 210.125 281.371 216.886 276.493C224.423 271.135 232.912 267.145 241.938 264.722C252.369 261.888 263.166 260.496 274.004 260.588C284.34 260.481 294.635 261.846 304.555 264.641C313.003 267.008 320.918 270.869 327.897 276.027C334.168 280.76 339.249 286.793 342.762 293.678C346.337 300.885 348.14 308.788 348.03 316.774C348.145 322.366 346.946 327.912 344.524 332.996C342.156 337.754 339.102 342.165 335.451 346.099C331.838 349.993 327.843 353.542 323.523 356.697C319.105 359.909 314.983 362.861 311.157 365.553C307.617 367.997 304.275 370.696 301.16 373.628C299.709 374.871 298.534 376.383 297.704 378.073C296.874 379.763 296.406 381.597 296.329 383.465V395.611H251.384Z" fill="url(#paint2_linear_2_3224)"/>
<path d="M297.05 417.426H251.543V457.887H297.05V417.426Z" fill="url(#paint3_linear_2_3224)"/>
<path d="M81.6711 1208.64V1197.39C81.6684 1195.78 82.1254 1194.21 82.9919 1192.84C84.0462 1191.15 85.3025 1189.59 86.735 1188.18C88.3205 1186.61 90.0274 1185.04 91.809 1183.53C93.6677 1181.95 95.442 1180.28 97.125 1178.53C98.771 1176.83 100.202 1174.95 101.388 1172.93C102.597 1170.83 103.221 1168.47 103.2 1166.07C103.203 1164.44 102.922 1162.82 102.37 1161.28C101.828 1159.74 100.972 1158.33 99.854 1157.12C98.7244 1155.92 97.3596 1154.95 95.8378 1154.25C94.1429 1153.5 92.2919 1153.12 90.4231 1153.14C88.1892 1153.06 85.9725 1153.55 83.9943 1154.55C82.3782 1155.43 81.0225 1156.69 80.0566 1158.21C79.1264 1159.72 78.5079 1161.39 78.2351 1163.13C77.949 1164.85 77.8059 1166.59 77.807 1168.33C77.807 1168.33 77.8086 1170.71 77.8112 1170.83H50.9779C50.9267 1170.35 50.8752 1169.88 50.8234 1169.42C50.7209 1168.49 50.6705 1167.55 50.6725 1166.61C50.6004 1162.03 51.6947 1157.5 53.8598 1153.41C56.0221 1149.47 59.0648 1146.04 62.769 1143.37C66.8985 1140.44 71.5503 1138.25 76.4954 1136.92C82.2107 1135.37 88.1263 1134.61 94.0646 1134.66C99.7275 1134.6 105.368 1135.35 110.804 1136.88C115.432 1138.17 119.769 1140.29 123.593 1143.12C127.029 1145.71 129.813 1149.02 131.738 1152.79C133.697 1156.74 134.684 1161.07 134.624 1165.44C134.687 1168.51 134.031 1171.54 132.704 1174.33C131.406 1176.94 129.732 1179.35 127.732 1181.51C125.752 1183.64 123.564 1185.59 121.196 1187.32C118.776 1189.08 116.518 1190.69 114.421 1192.17C112.481 1193.51 110.65 1194.99 108.943 1196.59C108.149 1197.27 107.505 1198.1 107.05 1199.03C106.595 1199.95 106.339 1200.96 106.297 1201.98V1208.64H81.6711Z" fill="url(#paint4_linear_2_3224)"/>
<path d="M106.694 1220.59H81.7605V1242.76H106.694V1220.59Z" fill="url(#paint5_linear_2_3224)"/>
<path d="M274.177 1105.4V1078.98C274.172 1075.22 275.245 1071.52 277.279 1068.31C279.754 1064.35 282.704 1060.68 286.068 1057.38C289.79 1053.68 293.798 1050 297.981 1046.45C302.346 1042.74 306.512 1038.83 310.463 1034.71C314.328 1030.73 317.689 1026.31 320.474 1021.56C323.312 1016.63 324.778 1011.08 324.729 1005.44C324.735 1001.61 324.076 997.813 322.779 994.195C321.507 990.598 319.498 987.283 316.872 984.446C314.219 981.624 311.015 979.334 307.441 977.706C303.461 975.926 299.115 975.034 294.727 975.097C289.482 974.909 284.277 976.049 279.632 978.402C275.837 980.46 272.654 983.419 270.387 986.999C268.202 990.55 266.75 994.475 266.11 998.556C265.438 1002.59 265.101 1006.66 265.104 1010.75C265.104 1010.75 265.109 1016.34 265.115 1016.62H202.109C201.988 1015.5 201.867 1014.4 201.745 1013.32C201.505 1011.13 201.387 1008.93 201.392 1006.72C201.222 995.961 203.792 985.323 208.875 975.737C213.952 966.485 221.097 958.432 229.794 952.156C239.491 945.262 250.413 940.13 262.024 937.012C275.444 933.366 289.335 931.576 303.278 931.695C316.575 931.556 329.82 933.313 342.582 936.908C353.451 939.953 363.634 944.921 372.612 951.557C380.68 957.645 387.218 965.407 391.738 974.264C396.336 983.537 398.655 993.704 398.515 1003.98C398.662 1011.17 397.12 1018.31 394.004 1024.85C390.957 1030.97 387.028 1036.64 382.332 1041.71C377.683 1046.71 372.543 1051.28 366.985 1055.34C361.301 1059.47 355.999 1063.27 351.077 1066.73C346.522 1069.88 342.222 1073.35 338.214 1077.12C336.348 1078.72 334.836 1080.67 333.768 1082.84C332.7 1085.02 332.099 1087.37 331.999 1089.78V1105.4H274.177Z" fill="url(#paint6_linear_2_3224)"/>
<path d="M54.8481 233.796V220.302C54.8451 218.379 55.3931 216.492 56.432 214.849C57.6965 212.826 59.2031 210.953 60.9208 209.268C62.8221 207.378 64.8689 205.5 67.0055 203.685C69.2345 201.793 71.3621 199.793 73.3801 197.693C75.3541 195.657 77.0702 193.402 78.4924 190.977C79.9419 188.458 80.6907 185.622 80.666 182.743C80.6689 180.788 80.3323 178.846 79.67 176.998C79.02 175.161 77.9943 173.468 76.6532 172.019C75.2985 170.578 73.6617 169.409 71.8367 168.578C69.8041 167.668 67.5843 167.213 65.3431 167.245C62.6643 167.149 60.0061 167.731 57.6338 168.933C55.6959 169.984 54.0703 171.495 52.9123 173.323C51.7965 175.137 51.0548 177.141 50.7278 179.226C50.3845 181.285 50.2127 183.367 50.214 185.452C50.214 185.452 50.2165 188.31 50.2198 188.454H18.0412C17.9794 187.881 17.9177 187.318 17.8559 186.766C17.7329 185.646 17.6725 184.522 17.6749 183.396C17.5884 177.9 18.9005 172.467 21.497 167.572C24.0899 162.847 27.7387 158.734 32.1806 155.529C37.133 152.008 42.7114 149.387 48.6416 147.794C55.4954 145.932 62.5894 145.018 69.7106 145.079C76.5015 145.008 83.266 145.905 89.7839 147.741C95.3346 149.296 100.536 151.833 105.121 155.223C109.241 158.332 112.58 162.296 114.888 166.82C117.237 171.555 118.421 176.748 118.35 181.995C118.425 185.669 117.638 189.313 116.046 192.654C114.49 195.78 112.483 198.678 110.085 201.263C107.71 203.822 105.086 206.154 102.247 208.227C99.3442 210.337 96.6359 212.277 94.1219 214.046C91.7956 215.651 89.5996 217.425 87.5532 219.351C86.6001 220.168 85.8277 221.161 85.2823 222.272C84.7369 223.382 84.4297 224.587 84.3789 225.815V233.796H54.8481Z" fill="url(#paint7_linear_2_3224)"/>
<path d="M84.8538 248.129H54.9539V274.713H84.8538V248.129Z" fill="url(#paint8_linear_2_3224)"/>
</g>
<defs>
<filter id="filter0_d_2_3224" x="0" y="0" width="415.524" height="1443.75" filterUnits="userSpaceOnUse" color-interpolation-filters="sRGB">
<feFlood flood-opacity="0" result="BackgroundImageFix"/>
<feColorMatrix in="SourceAlpha" type="matrix" values="0 0 0 0 0 0 0 0 0 0 0 0 0 0 0 0 0 0 127 0" result="hardAlpha"/>
<feOffset dx="13" dy="8"/>
<feGaussianBlur stdDeviation="2"/>
<feComposite in2="hardAlpha" operator="out"/>
<feColorMatrix type="matrix" values="0 0 0 0 0 0 0 0 0 0 0 0 0 0 0 0 0 0 0.25 0"/>
<feBlend mode="normal" in2="BackgroundImageFix" result="effect1_dropShadow_2_3224"/>
<feBlend mode="normal" in="SourceGraphic" in2="effect1_dropShadow_2_3224" result="shape"/>
</filter>
<linearGradient id="paint0_linear_2_3224" x1="158.814" y1="0" x2="158.814" y2="774.484" gradientUnits="userSpaceOnUse">
<stop stop-color="#A97124"/>
<stop offset="0.322917" stop-color="#DDA336"/>
<stop offset="0.713542" stop-color="#EFD56F"/>
<stop offset="0.958333" stop-color="#F4BA3E"/>
</linearGradient>
<linearGradient id="paint1_linear_2_3224" x1="164.28" y1="795.789" x2="164.28" y2="1431.75" gradientUnits="userSpaceOnUse">
<stop stop-color="#A97124"/>
<stop offset="0.322917" stop-color="#DDA336"/>
<stop offset="0.713542" stop-color="#EFD56F"/>
<stop offset="0.958333" stop-color="#F4BA3E"/>
</linearGradient>
<linearGradient id="paint2_linear_2_3224" x1="271.42" y1="260.582" x2="271.42" y2="395.611" gradientUnits="userSpaceOnUse">
<stop stop-color="#A97124"/>
<stop offset="0.322917" stop-color="#DDA336"/>
<stop offset="0.713542" stop-color="#EFD56F"/>
<stop offset="0.958333" stop-color="#F4BA3E"/>
</linearGradient>
<linearGradient id="paint3_linear_2_3224" x1="274.297" y1="417.426" x2="274.297" y2="457.887" gradientUnits="userSpaceOnUse">
<stop stop-color="#A97124"/>
<stop offset="0.322917" stop-color="#DDA336"/>
<stop offset="0.713542" stop-color="#EFD56F"/>
<stop offset="0.958333" stop-color="#F4BA3E"/>
</linearGradient>
<linearGradient id="paint4_linear_2_3224" x1="92.6488" y1="1134.65" x2="92.6488" y2="1208.64" gradientUnits="userSpaceOnUse">
<stop stop-color="#A97124"/>
<stop offset="0.322917" stop-color="#DDA336"/>
<stop offset="0.713542" stop-color="#EFD56F"/>
<stop offset="0.958333" stop-color="#F4BA3E"/>
</linearGradient>
<linearGradient id="paint5_linear_2_3224" x1="94.2272" y1="1220.59" x2="94.2272" y2="1242.76" gradientUnits="userSpaceOnUse">
<stop stop-color="#A97124"/>
<stop offset="0.322917" stop-color="#DDA336"/>
<stop offset="0.713542" stop-color="#EFD56F"/>
<stop offset="0.958333" stop-color="#F4BA3E"/>
</linearGradient>
<linearGradient id="paint6_linear_2_3224" x1="299.954" y1="931.687" x2="299.954" y2="1105.4" gradientUnits="userSpaceOnUse">
<stop stop-color="#A97124"/>
<stop offset="0.322917" stop-color="#DDA336"/>
<stop offset="0.713542" stop-color="#EFD56F"/>
<stop offset="0.958333" stop-color="#F4BA3E"/>
</linearGradient>
<linearGradient id="paint7_linear_2_3224" x1="68.0128" y1="145.075" x2="68.0128" y2="233.796" gradientUnits="userSpaceOnUse">
<stop stop-color="#A97124"/>
<stop offset="0.322917" stop-color="#DDA336"/>
<stop offset="0.713542" stop-color="#EFD56F"/>
<stop offset="0.958333" stop-color="#F4BA3E"/>
</linearGradient>
<linearGradient id="paint8_linear_2_3224" x1="69.9038" y1="248.129" x2="69.9038" y2="274.713" gradientUnits="userSpaceOnUse">
<stop stop-color="#A97124"/>
<stop offset="0.322917" stop-color="#DDA336"/>
<stop offset="0.713542" stop-color="#EFD56F"/>
<stop offset="0.958333" stop-color="#F4BA3E"/>
</linearGradient>
</defs>
</svg>
