<svg width="274" height="255" viewBox="0 0 274 255" fill="none" xmlns="http://www.w3.org/2000/svg">
<path d="M47.1943 81.1094C52.9988 67.4867 62.3822 55.0669 74.0675 44.7915C85.8002 34.5436 100.004 26.6193 115.391 21.6639C130.93 16.6888 147.388 14.7871 163.741 16.0773C171.944 16.7314 180.054 18.1729 187.947 20.3793C203.786 24.8184 218.494 32.2671 231.166 42.2672C237.472 47.2596 243.225 52.8417 248.337 58.9282C258.508 71.077 265.915 85.0728 270.094 100.042C274.211 114.88 275.044 130.429 272.459 145.316C269.817 160.179 264.016 174.416 255.165 186.496C260.932 172.891 264.407 158.742 264.826 144.594C265.356 130.597 263.155 116.628 258.331 103.382C253.575 90.3577 246.294 78.2812 236.858 67.7675C227.476 57.354 216.112 48.6873 203.351 42.2144C190.593 35.7331 176.655 31.573 162.266 29.951C147.76 28.3312 133.061 29.2704 118.92 32.7206C104.543 36.2374 90.9751 42.2187 78.8931 50.3659C66.6199 58.5122 56.0281 69.0571 47.1943 81.1094Z" fill="url(#paint0_linear_2_2127)"/>
<path d="M232.533 94.0582C240.302 104.193 245.439 116.282 247.878 128.957C250.264 141.655 249.696 154.979 246.288 167.726C242.818 180.596 236.552 192.646 227.887 203.113C223.531 208.365 218.615 213.181 213.217 217.487C202.373 226.123 189.76 232.56 176.163 236.396C169.385 238.295 162.42 239.539 155.376 240.107C141.342 241.217 127.218 239.565 113.897 235.255C100.72 230.966 88.5857 224.115 78.6262 215.276C68.7203 206.403 60.807 195.728 56.0815 184.04C63.8543 194.137 72.9676 202.931 83.462 209.659C93.7537 216.388 105.255 221.298 117.407 224.151C129.321 226.938 141.677 227.634 153.858 226.204C165.921 224.765 177.596 221.231 188.295 215.783C198.999 210.34 208.534 203.062 216.411 194.323C224.353 185.492 230.504 175.358 234.556 164.427C238.683 153.272 240.625 141.503 240.288 129.694C240.058 117.726 237.246 105.716 232.533 94.0582Z" fill="url(#paint1_linear_2_2127)"/>
<path d="M142.724 254.072C125.132 255.696 106.971 253.385 89.8839 247.772C72.7999 242.108 56.8803 232.923 43.4698 221.069C29.9648 209.094 19.2052 194.635 11.8552 178.585C8.17735 170.535 5.37649 162.154 3.49577 153.57C-0.268513 136.341 -0.272717 118.569 3.48341 101.338C5.36804 92.7546 8.16733 84.3724 11.8387 76.3195C19.1876 60.2662 29.9478 45.8043 43.4548 33.827C56.8654 21.9698 72.7891 12.7836 89.8761 7.12093C106.968 1.51377 125.131 -0.797961 142.724 0.838316C125.166 2.48668 108.185 6.68861 92.8145 13.8044C77.5251 20.7589 63.7345 30.3256 52.1413 42.0199C40.7074 53.6108 31.611 67.1014 25.5272 81.6731C19.4281 96.2516 16.2937 111.783 16.2879 127.455C16.2728 143.13 19.4021 158.666 25.5109 173.244C31.6793 187.915 40.7068 201.368 52.1264 212.905C63.7201 224.602 77.5133 234.171 92.8065 241.124C108.183 248.234 125.165 252.436 142.724 254.072Z" fill="url(#paint2_linear_2_2127)"/>
<path d="M162.319 83.9878L181.028 66.7252L155.131 63.1307L143.506 41.0143L143.506 41.0155L131.88 63.1332L105.985 66.7272L124.696 83.9917L120.318 108.331L143.51 96.8808L166.698 108.329L162.319 83.9878ZM143.508 79.5102L143.508 78.2261L142.514 78.5299L143.506 78.2253L143.313 77.9742L143.506 78.2249L143.508 78.2229L144.9 78.6504L143.509 78.2249L143.508 79.5102Z" fill="url(#paint3_linear_2_2127)"/>
<path d="M132.319 63.5805L143.508 78.0899L154.696 63.5811L143.508 42.2948L132.319 63.5805Z" fill="url(#paint4_linear_2_2127)"/>
<path d="M143.507 78.0899L154.696 63.5811L143.507 42.2948V78.0899Z" fill="url(#paint5_linear_2_2127)"/>
<path d="M125.417 83.6428L143.506 78.0904L132.333 63.5706L107.411 67.0296L125.417 83.6428Z" fill="url(#paint6_linear_2_2127)"/>
<path d="M143.506 78.0904L132.333 63.5706L107.411 67.0296L143.506 78.0904Z" fill="url(#paint7_linear_2_2127)"/>
<path d="M143.517 96.0325L143.508 78.0908L125.414 83.626L121.2 107.05L143.517 96.0325Z" fill="url(#paint8_linear_2_2127)"/>
<path d="M143.508 78.0908L125.414 83.626L121.2 107.05L143.508 78.0908Z" fill="url(#paint9_linear_2_2127)"/>
<path d="M161.603 83.6259L143.509 78.0897L143.499 96.0306L165.816 107.049L161.603 83.6259Z" fill="url(#paint10_linear_2_2127)"/>
<path d="M143.509 78.0897L143.499 96.0306L165.816 107.049L143.509 78.0897Z" fill="url(#paint11_linear_2_2127)"/>
<path d="M154.683 63.5688L143.509 78.0881L161.596 83.6419L179.602 67.0276L154.683 63.5688Z" fill="url(#paint12_linear_2_2127)"/>
<path d="M143.509 78.0878L161.596 83.6416L179.602 67.0273L143.509 78.0878Z" fill="url(#paint13_linear_2_2127)"/>
<path d="M143.506 78.0898C143.394 66.3612 143.37 56.4856 143.505 42.2947C143.64 56.4517 143.617 66.3588 143.506 78.0898Z" fill="url(#paint14_linear_2_2127)"/>
<path d="M143.506 78.0902C129.662 73.9825 118.581 70.5593 107.411 67.0294C118.752 70.4039 128.382 73.3152 143.506 78.0902Z" fill="url(#paint15_linear_2_2127)"/>
<path d="M143.508 78.0908C136.907 86.821 130.638 95.0287 121.2 107.05C130.023 95.3915 136.035 87.6049 143.508 78.0908Z" fill="url(#paint16_linear_2_2127)"/>
<path d="M143.509 78.0897C150.629 87.1657 157.092 95.4967 165.816 107.049C157.411 96.3182 151.576 88.772 143.509 78.0897Z" fill="url(#paint17_linear_2_2127)"/>
<path d="M143.509 78.0877C153.901 74.8123 164.365 71.5489 179.602 67.0273C166.344 71.2033 156.435 74.2551 143.509 78.0877Z" fill="url(#paint18_linear_2_2127)"/>
<path d="M219.122 100.173L233.286 91.6723L217.536 86.1846L213.341 70.8523L213.341 70.853L202.941 83.2848L186.184 82.3093L195.507 95.4804L189.344 110.21L205.507 105.918L218.455 115.997L219.122 100.173ZM207.943 95.0148L208.122 94.2089L207.456 94.2756L208.122 94.2083L208.036 94.0264L208.122 94.208L208.123 94.2069L208.936 94.6487L208.123 94.2083L207.943 95.0148Z" fill="url(#paint19_linear_2_2127)"/>
<path d="M203.154 83.6199L208.141 94.1232L217.199 86.4126L213.162 71.656L203.154 83.6199Z" fill="url(#paint20_linear_2_2127)"/>
<path d="M208.14 94.1232L217.198 86.4126L213.161 71.656L208.14 94.1232Z" fill="url(#paint21_linear_2_2127)"/>
<path d="M196.008 95.3513L208.14 94.1233L203.165 83.6157L187.037 82.6769L196.008 95.3513Z" fill="url(#paint22_linear_2_2127)"/>
<path d="M208.14 94.1233L203.165 83.6157L187.037 82.6769L208.14 94.1233Z" fill="url(#paint23_linear_2_2127)"/>
<path d="M205.63 105.386L208.141 94.1238L196.008 95.3401L190.077 109.517L205.63 105.386Z" fill="url(#paint24_linear_2_2127)"/>
<path d="M208.141 94.1238L196.008 95.3401L190.077 109.517L208.141 94.1238Z" fill="url(#paint25_linear_2_2127)"/>
<path d="M218.72 99.8559L208.14 94.1233L205.617 105.383L218.079 115.083L218.72 99.8559Z" fill="url(#paint26_linear_2_2127)"/>
<path d="M208.14 94.1233L205.617 105.383L218.079 115.083L208.14 94.1233Z" fill="url(#paint27_linear_2_2127)"/>
<path d="M217.192 86.4031L208.142 94.1219L218.715 99.8648L232.348 91.6837L217.192 86.4031Z" fill="url(#paint28_linear_2_2127)"/>
<path d="M208.142 94.122L218.715 99.8649L232.348 91.6837L208.142 94.122Z" fill="url(#paint29_linear_2_2127)"/>
<path d="M208.14 94.1232C209.715 86.7477 211.085 80.5462 213.16 71.6559C211.259 80.5584 209.855 86.7739 208.14 94.1232Z" fill="url(#paint30_linear_2_2127)"/>
<path d="M208.14 94.1233C200.028 89.8176 193.553 86.2863 187.037 82.6769C193.682 86.21 199.318 89.2391 208.14 94.1233Z" fill="url(#paint31_linear_2_2127)"/>
<path d="M208.141 94.1237C202.773 98.7797 197.688 103.149 190.077 109.517C197.251 103.3 202.116 99.1628 208.141 94.1237Z" fill="url(#paint32_linear_2_2127)"/>
<path d="M208.142 94.1233C211.337 100.708 214.225 106.744 218.081 115.083C214.311 107.299 211.706 101.835 208.142 94.1233Z" fill="url(#paint33_linear_2_2127)"/>
<path d="M208.142 94.1221C215.124 93.363 222.149 92.6206 232.347 91.684C223.44 92.6505 216.793 93.3296 208.142 94.1221Z" fill="url(#paint34_linear_2_2127)"/>
<path d="M92.3847 94.8928L101.047 81.329L84.3547 83.0378L73.3546 71.0759L73.3545 71.0768L69.9197 86.5773L54.458 92.7486L69.0278 100.62L70.4725 116.396L82.9123 105.759L99.2664 109.339L92.3847 94.8928ZM79.9404 94.9752L79.7203 94.178L79.1554 94.5179L79.7193 94.1779L79.5564 94.0513L79.7193 94.1776L79.7198 94.1762L80.657 94.2297L79.7209 94.1771L79.9404 94.9752Z" fill="url(#paint35_linear_2_2127)"/>
<path d="M70.2668 86.7881L79.6951 94.0937L84.1598 83.3837L73.5725 71.8708L70.2668 86.7881Z" fill="url(#paint36_linear_2_2127)"/>
<path d="M79.6959 94.0937L84.1605 83.3837L73.5732 71.8708L79.6959 94.0937Z" fill="url(#paint37_linear_2_2127)"/>
<path d="M69.4155 100.293L79.6957 94.0938L70.2759 86.7795L55.395 92.7191L69.4155 100.293Z" fill="url(#paint38_linear_2_2127)"/>
<path d="M79.6957 94.0938L70.2759 86.7795L55.395 92.7191L79.6957 94.0938Z" fill="url(#paint39_linear_2_2127)"/>
<path d="M82.7701 105.232L79.6957 94.0941L69.4092 100.284L70.7996 115.468L82.7701 105.232Z" fill="url(#paint40_linear_2_2127)"/>
<path d="M79.6957 94.0941L69.4092 100.284L70.7996 115.468L79.6957 94.0941Z" fill="url(#paint41_linear_2_2127)"/>
<path d="M91.8772 94.7772L79.6973 94.0931L82.7595 105.233L98.4991 108.678L91.8772 94.7772Z" fill="url(#paint42_linear_2_2127)"/>
<path d="M79.6973 94.0931L82.7595 105.233L98.4991 108.678L79.6973 94.0931Z" fill="url(#paint43_linear_2_2127)"/>
<path d="M84.1494 83.3782L79.6958 94.0923L91.8746 94.7882L100.212 81.734L84.1494 83.3782Z" fill="url(#paint44_linear_2_2127)"/>
<path d="M79.6958 94.0923L91.8746 94.7882L100.212 81.734L79.6958 94.0923Z" fill="url(#paint45_linear_2_2127)"/>
<path d="M79.6963 94.0937C77.6209 86.8293 75.917 80.7018 73.5732 71.8711C76.0785 80.6397 77.759 86.7938 79.6963 94.0937Z" fill="url(#paint46_linear_2_2127)"/>
<path d="M79.6955 94.094C70.3985 93.6501 62.9336 93.211 55.395 92.7191C63.0129 93.0885 69.4898 93.4307 79.6955 94.094Z" fill="url(#paint47_linear_2_2127)"/>
<path d="M79.6969 94.0941C77.0922 100.519 74.6043 106.568 70.8008 115.468C74.2844 106.887 76.6851 101.138 79.6969 94.0941Z" fill="url(#paint48_linear_2_2127)"/>
<path d="M79.6973 94.0934C85.6696 98.6446 91.107 102.833 98.4991 108.678C91.4459 103.295 86.5322 99.4979 79.6973 94.0934Z" fill="url(#paint49_linear_2_2127)"/>
<path d="M79.6958 94.0924C85.587 90.4778 91.5254 86.8595 100.212 81.734C92.6948 86.3439 87.0655 89.7461 79.6958 94.0924Z" fill="url(#paint50_linear_2_2127)"/>
<path d="M43.0839 137.727V127.721H47.2176C47.9668 127.721 48.6133 127.867 49.1573 128.16C49.7046 128.45 50.1264 128.856 50.4228 129.377C50.7192 129.895 50.8675 130.498 50.8675 131.185C50.8675 131.875 50.716 132.48 50.4131 132.998C50.1134 133.512 49.685 133.911 49.128 134.195C48.571 134.478 47.9098 134.62 47.1443 134.62H44.5937V132.714H46.6947C47.0596 132.714 47.3641 132.651 47.6084 132.524C47.856 132.397 48.0433 132.219 48.1703 131.991C48.2974 131.76 48.3609 131.491 48.3609 131.185C48.3609 130.875 48.2974 130.608 48.1703 130.384C48.0433 130.155 47.856 129.98 47.6084 129.856C47.3609 129.732 47.0563 129.67 46.6947 129.67H45.5025V137.727H43.0839ZM52.6788 137.727V130.222H54.9997V131.59H55.0779C55.2147 131.095 55.4378 130.727 55.7473 130.486C56.0567 130.242 56.4167 130.12 56.8271 130.12C56.9379 130.12 57.0519 130.128 57.1691 130.144C57.2864 130.157 57.3955 130.178 57.4965 130.208V132.284C57.3825 132.245 57.2327 132.214 57.047 132.191C56.8646 132.169 56.7017 132.157 56.5584 132.157C56.275 132.157 56.0193 132.221 55.7913 132.348C55.5665 132.471 55.389 132.646 55.2587 132.871C55.1316 133.092 55.0681 133.353 55.0681 133.652V137.727H52.6788ZM59.0892 137.727V130.222H61.4785V137.727H59.0892ZM60.2863 129.348C59.9508 129.348 59.6625 129.237 59.4215 129.015C59.1804 128.791 59.0599 128.52 59.0599 128.204C59.0599 127.892 59.1804 127.624 59.4215 127.403C59.6625 127.178 59.9508 127.066 60.2863 127.066C60.6251 127.066 60.9134 127.178 61.1512 127.403C61.3922 127.624 61.5127 127.892 61.5127 128.204C61.5127 128.52 61.3922 128.791 61.1512 129.015C60.9134 129.237 60.6251 129.348 60.2863 129.348ZM63.638 137.727V136.364L67.1169 132.128V132.079H63.7602V130.222H69.9655V131.717L66.7407 135.822V135.871H70.0828V137.727H63.638ZM75.5392 137.869C74.7541 137.869 74.0766 137.714 73.5066 137.405C72.9398 137.092 72.5033 136.647 72.1971 136.071C71.8941 135.491 71.7427 134.802 71.7427 134.004C71.7427 133.229 71.8958 132.551 72.202 131.971C72.5082 131.388 72.9398 130.936 73.4968 130.613C74.0538 130.287 74.7102 130.125 75.4659 130.125C76.0001 130.125 76.4887 130.208 76.9317 130.374C77.3747 130.54 77.7574 130.786 78.0799 131.112C78.4024 131.437 78.6532 131.84 78.8324 132.318C79.0115 132.794 79.1011 133.34 79.1011 133.955V134.551H72.5782V133.164H76.8779C76.8747 132.91 76.8144 132.683 76.6972 132.485C76.5799 132.286 76.4187 132.131 76.2134 132.02C76.0115 131.906 75.7786 131.849 75.5147 131.849C75.2476 131.849 75.0082 131.91 74.7965 132.03C74.5847 132.147 74.417 132.309 74.2932 132.514C74.1694 132.716 74.1043 132.945 74.0978 133.203V134.615C74.0978 134.921 74.158 135.19 74.2786 135.421C74.3991 135.649 74.5701 135.827 74.7916 135.954C75.0131 136.081 75.2769 136.144 75.5831 136.144C75.7949 136.144 75.9871 136.115 76.1597 136.056C76.3323 135.998 76.4805 135.911 76.6043 135.797C76.7281 135.683 76.8209 135.543 76.8828 135.377L79.0767 135.441C78.9855 135.932 78.7852 136.361 78.4757 136.726C78.1695 137.087 77.7672 137.369 77.2688 137.571C76.7705 137.77 76.1939 137.869 75.5392 137.869ZM87.4928 132.514L85.299 132.572C85.2762 132.416 85.2143 132.278 85.1133 132.157C85.0123 132.033 84.8804 131.937 84.7175 131.869C84.5579 131.797 84.3722 131.761 84.1605 131.761C83.8836 131.761 83.6475 131.817 83.452 131.928C83.2598 132.038 83.1654 132.188 83.1686 132.377C83.1654 132.524 83.224 132.651 83.3445 132.758C83.4683 132.866 83.6882 132.952 84.0042 133.017L85.4504 133.291C86.1996 133.434 86.7567 133.672 87.1215 134.004C87.4896 134.336 87.6752 134.776 87.6785 135.323C87.6752 135.838 87.5221 136.286 87.2192 136.667C86.9195 137.048 86.5091 137.345 85.9879 137.556C85.4667 137.765 84.8706 137.869 84.1996 137.869C83.1279 137.869 82.2826 137.649 81.6637 137.209C81.0481 136.766 80.6963 136.174 80.6083 135.431L82.9683 135.372C83.0204 135.646 83.1556 135.854 83.3739 135.998C83.5921 136.141 83.8706 136.213 84.2094 136.213C84.5156 136.213 84.7648 136.156 84.9569 136.042C85.1491 135.928 85.2469 135.776 85.2501 135.587C85.2469 135.418 85.1719 135.283 85.0253 135.182C84.8788 135.077 84.6491 134.996 84.3364 134.937L83.0269 134.688C82.2745 134.551 81.7142 134.299 81.3461 133.931C80.978 133.559 80.7956 133.087 80.7989 132.514C80.7956 132.012 80.9292 131.584 81.1995 131.229C81.4699 130.87 81.8543 130.597 82.3527 130.408C82.851 130.219 83.439 130.125 84.1165 130.125C85.1328 130.125 85.9342 130.338 86.5205 130.765C87.1068 131.188 87.4309 131.771 87.4928 132.514ZM95.1649 137.854C94.6861 137.854 94.261 137.775 93.8896 137.615C93.5216 137.452 93.23 137.208 93.015 136.882C92.8033 136.553 92.6974 136.141 92.6974 135.646C92.6974 135.229 92.7707 134.877 92.9173 134.59C93.0639 134.304 93.2658 134.071 93.5232 133.892C93.7805 133.713 94.0769 133.577 94.4125 133.486C94.748 133.392 95.1063 133.328 95.4874 133.296C95.9141 133.257 96.2578 133.216 96.5184 133.173C96.7789 133.128 96.9679 133.064 97.0851 132.983C97.2057 132.898 97.2659 132.779 97.2659 132.626V132.602C97.2659 132.351 97.1796 132.157 97.007 132.02C96.8343 131.884 96.6014 131.815 96.3083 131.815C95.9923 131.815 95.7382 131.884 95.546 132.02C95.3538 132.157 95.2317 132.346 95.1796 132.587L92.9759 132.509C93.0411 132.053 93.2088 131.646 93.4792 131.287C93.7528 130.926 94.1274 130.642 94.603 130.437C95.0818 130.229 95.6568 130.125 96.3278 130.125C96.8066 130.125 97.248 130.182 97.6519 130.296C98.0558 130.406 98.4076 130.569 98.7073 130.784C99.007 130.996 99.2383 131.256 99.4011 131.566C99.5673 131.875 99.6503 132.229 99.6503 132.626V137.727H97.4027V136.682H97.3441C97.2105 136.936 97.0395 137.151 96.8311 137.327C96.6258 137.503 96.3832 137.634 96.103 137.722C95.8262 137.81 95.5134 137.854 95.1649 137.854ZM95.9027 136.291C96.16 136.291 96.3913 136.239 96.5965 136.134C96.805 136.03 96.9711 135.887 97.0949 135.704C97.2187 135.519 97.2806 135.304 97.2806 135.059V134.346C97.2122 134.382 97.1291 134.415 97.0314 134.444C96.9369 134.473 96.8327 134.501 96.7187 134.527C96.6047 134.553 96.4874 134.576 96.3669 134.595C96.2464 134.615 96.1307 134.633 96.02 134.649C95.7952 134.685 95.603 134.74 95.4434 134.815C95.2871 134.89 95.1665 134.988 95.0818 135.108C95.0004 135.226 94.9597 135.366 94.9597 135.529C94.9597 135.776 95.0476 135.965 95.2235 136.095C95.4027 136.226 95.6291 136.291 95.9027 136.291ZM104.12 133.447V137.727H101.73V130.222H104.002V131.6H104.086C104.252 131.141 104.535 130.781 104.936 130.52C105.336 130.256 105.814 130.125 106.367 130.125C106.895 130.125 107.353 130.243 107.74 130.481C108.131 130.716 108.434 131.045 108.649 131.468C108.867 131.888 108.975 132.38 108.972 132.944V137.727H106.582V133.413C106.586 132.996 106.48 132.67 106.265 132.436C106.053 132.201 105.758 132.084 105.38 132.084C105.13 132.084 104.908 132.139 104.716 132.25C104.527 132.357 104.38 132.512 104.276 132.714C104.175 132.916 104.123 133.16 104.12 133.447ZM113.811 137.835C113.257 137.835 112.754 137.691 112.301 137.405C111.849 137.118 111.487 136.688 111.217 136.115C110.946 135.542 110.811 134.83 110.811 133.98C110.811 133.097 110.951 132.371 111.231 131.8C111.511 131.23 111.878 130.809 112.331 130.535C112.787 130.261 113.277 130.125 113.801 130.125C114.196 130.125 114.533 130.193 114.813 130.33C115.093 130.463 115.324 130.636 115.507 130.848C115.689 131.059 115.827 131.279 115.922 131.507H115.971V127.721H118.36V137.727H115.995V136.511H115.922C115.821 136.742 115.678 136.959 115.492 137.161C115.306 137.362 115.073 137.525 114.793 137.649C114.516 137.773 114.189 137.835 113.811 137.835ZM114.642 135.973C114.932 135.973 115.179 135.892 115.384 135.729C115.59 135.563 115.748 135.33 115.858 135.03C115.969 134.73 116.025 134.379 116.025 133.975C116.025 133.564 115.969 133.211 115.858 132.915C115.751 132.618 115.593 132.39 115.384 132.23C115.179 132.071 114.932 131.991 114.642 131.991C114.345 131.991 114.095 132.072 113.889 132.235C113.684 132.398 113.528 132.628 113.42 132.924C113.316 133.221 113.264 133.571 113.264 133.975C113.264 134.379 113.318 134.73 113.425 135.03C113.533 135.33 113.687 135.563 113.889 135.729C114.095 135.892 114.345 135.973 114.642 135.973ZM130.632 130.989C130.577 130.784 130.496 130.603 130.388 130.447C130.281 130.287 130.149 130.152 129.992 130.041C129.836 129.931 129.657 129.848 129.455 129.792C129.253 129.734 129.031 129.704 128.79 129.704C128.305 129.704 127.885 129.822 127.53 130.056C127.178 130.291 126.906 130.633 126.714 131.082C126.522 131.528 126.425 132.071 126.425 132.709C126.425 133.351 126.518 133.898 126.704 134.351C126.89 134.804 127.158 135.149 127.51 135.387C127.862 135.625 128.289 135.744 128.79 135.744C129.233 135.744 129.608 135.672 129.914 135.529C130.224 135.382 130.458 135.175 130.618 134.908C130.777 134.641 130.857 134.327 130.857 133.965L131.307 134.019H128.873V132.255H133.188V133.579C133.188 134.475 132.997 135.242 132.616 135.88C132.238 136.519 131.717 137.009 131.053 137.351C130.391 137.693 129.631 137.864 128.771 137.864C127.816 137.864 126.978 137.657 126.254 137.244C125.531 136.83 124.968 136.24 124.564 135.475C124.16 134.706 123.958 133.794 123.958 132.739C123.958 131.918 124.08 131.19 124.324 130.555C124.569 129.916 124.909 129.375 125.346 128.932C125.785 128.489 126.294 128.154 126.87 127.926C127.45 127.698 128.074 127.584 128.742 127.584C129.321 127.584 129.86 127.667 130.359 127.833C130.86 127.999 131.303 128.234 131.688 128.537C132.075 128.84 132.39 129.199 132.631 129.616C132.872 130.033 133.022 130.491 133.08 130.989H130.632ZM138.736 137.869C137.948 137.869 137.27 137.708 136.703 137.385C136.14 137.06 135.705 136.607 135.399 136.027C135.096 135.444 134.944 134.768 134.944 133.999C134.944 133.227 135.096 132.551 135.399 131.971C135.705 131.388 136.14 130.936 136.703 130.613C137.27 130.287 137.948 130.125 138.736 130.125C139.524 130.125 140.2 130.287 140.764 130.613C141.33 130.936 141.765 131.388 142.068 131.971C142.374 132.551 142.527 133.227 142.527 133.999C142.527 134.768 142.374 135.444 142.068 136.027C141.765 136.607 141.33 137.06 140.764 137.385C140.2 137.708 139.524 137.869 138.736 137.869ZM138.75 136.066C139.037 136.066 139.28 135.978 139.479 135.802C139.677 135.626 139.829 135.382 139.933 135.069C140.04 134.757 140.094 134.395 140.094 133.985C140.094 133.568 140.04 133.203 139.933 132.89C139.829 132.577 139.677 132.333 139.479 132.157C139.28 131.981 139.037 131.893 138.75 131.893C138.454 131.893 138.203 131.981 137.998 132.157C137.796 132.333 137.641 132.577 137.534 132.89C137.43 133.203 137.378 133.568 137.378 133.985C137.378 134.395 137.43 134.757 137.534 135.069C137.641 135.382 137.796 135.626 137.998 135.802C138.203 135.978 138.454 136.066 138.75 136.066ZM147.874 137.869C147.086 137.869 146.408 137.708 145.841 137.385C145.278 137.06 144.843 136.607 144.537 136.027C144.234 135.444 144.082 134.768 144.082 133.999C144.082 133.227 144.234 132.551 144.537 131.971C144.843 131.388 145.278 130.936 145.841 130.613C146.408 130.287 147.086 130.125 147.874 130.125C148.662 130.125 149.338 130.287 149.902 130.613C150.468 130.936 150.903 131.388 151.206 131.971C151.512 132.551 151.665 133.227 151.665 133.999C151.665 134.768 151.512 135.444 151.206 136.027C150.903 136.607 150.468 137.06 149.902 137.385C149.338 137.708 148.662 137.869 147.874 137.869ZM147.889 136.066C148.175 136.066 148.418 135.978 148.617 135.802C148.815 135.626 148.967 135.382 149.071 135.069C149.178 134.757 149.232 134.395 149.232 133.985C149.232 133.568 149.178 133.203 149.071 132.89C148.967 132.577 148.815 132.333 148.617 132.157C148.418 131.981 148.175 131.893 147.889 131.893C147.592 131.893 147.341 131.981 147.136 132.157C146.934 132.333 146.779 132.577 146.672 132.89C146.568 133.203 146.516 133.568 146.516 133.985C146.516 134.395 146.568 134.757 146.672 135.069C146.779 135.382 146.934 135.626 147.136 135.802C147.341 135.978 147.592 136.066 147.889 136.066ZM156.25 137.835C155.696 137.835 155.193 137.691 154.74 137.405C154.287 137.118 153.926 136.688 153.655 136.115C153.385 135.542 153.25 134.83 153.25 133.98C153.25 133.097 153.39 132.371 153.67 131.8C153.95 131.23 154.316 130.809 154.769 130.535C155.225 130.261 155.716 130.125 156.24 130.125C156.634 130.125 156.971 130.193 157.251 130.33C157.532 130.463 157.763 130.636 157.945 130.848C158.128 131.059 158.266 131.279 158.361 131.507H158.409V127.721H160.799V137.727H158.434V136.511H158.361C158.26 136.742 158.116 136.959 157.931 137.161C157.745 137.362 157.512 137.525 157.232 137.649C156.955 137.773 156.628 137.835 156.25 137.835ZM157.08 135.973C157.37 135.973 157.618 135.892 157.823 135.729C158.028 135.563 158.186 135.33 158.297 135.03C158.408 134.73 158.463 134.379 158.463 133.975C158.463 133.564 158.408 133.211 158.297 132.915C158.189 132.618 158.032 132.39 157.823 132.23C157.618 132.071 157.37 131.991 157.08 131.991C156.784 131.991 156.533 132.072 156.328 132.235C156.123 132.398 155.966 132.628 155.859 132.924C155.755 133.221 155.702 133.571 155.702 133.975C155.702 134.379 155.756 134.73 155.864 135.03C155.971 135.33 156.126 135.563 156.328 135.729C156.533 135.892 156.784 135.973 157.08 135.973ZM162.929 137.727V130.222H165.318V137.727H162.929ZM164.126 129.348C163.79 129.348 163.502 129.237 163.261 129.015C163.02 128.791 162.9 128.52 162.9 128.204C162.9 127.892 163.02 127.624 163.261 127.403C163.502 127.178 163.79 127.066 164.126 127.066C164.465 127.066 164.753 127.178 164.991 127.403C165.232 127.624 165.352 127.892 165.352 128.204C165.352 128.52 165.232 128.791 164.991 129.015C164.753 129.237 164.465 129.348 164.126 129.348ZM170.966 137.869C170.181 137.869 169.504 137.714 168.934 137.405C168.367 137.092 167.93 136.647 167.624 136.071C167.321 135.491 167.17 134.802 167.17 134.004C167.17 133.229 167.323 132.551 167.629 131.971C167.935 131.388 168.367 130.936 168.924 130.613C169.481 130.287 170.137 130.125 170.893 130.125C171.427 130.125 171.916 130.208 172.359 130.374C172.802 130.54 173.185 130.786 173.507 131.112C173.83 131.437 174.08 131.84 174.26 132.318C174.439 132.794 174.528 133.34 174.528 133.955V134.551H168.005V133.164H172.305C172.302 132.91 172.242 132.683 172.124 132.485C172.007 132.286 171.846 132.131 171.641 132.02C171.439 131.906 171.206 131.849 170.942 131.849C170.675 131.849 170.435 131.91 170.224 132.03C170.012 132.147 169.844 132.309 169.72 132.514C169.597 132.716 169.531 132.945 169.525 133.203V134.615C169.525 134.921 169.585 135.19 169.706 135.421C169.826 135.649 169.997 135.827 170.219 135.954C170.44 136.081 170.704 136.144 171.01 136.144C171.222 136.144 171.414 136.115 171.587 136.056C171.759 135.998 171.908 135.911 172.031 135.797C172.155 135.683 172.248 135.543 172.31 135.377L174.504 135.441C174.413 135.932 174.212 136.361 173.903 136.726C173.597 137.087 173.194 137.369 172.696 137.571C172.198 137.77 171.621 137.869 170.966 137.869ZM182.92 132.514L180.726 132.572C180.703 132.416 180.641 132.278 180.54 132.157C180.439 132.033 180.308 131.937 180.145 131.869C179.985 131.797 179.799 131.761 179.588 131.761C179.311 131.761 179.075 131.817 178.879 131.928C178.687 132.038 178.593 132.188 178.596 132.377C178.593 132.524 178.651 132.651 178.772 132.758C178.895 132.866 179.115 132.952 179.431 133.017L180.878 133.291C181.627 133.434 182.184 133.672 182.549 134.004C182.917 134.336 183.102 134.776 183.106 135.323C183.102 135.838 182.949 136.286 182.646 136.667C182.347 137.048 181.936 137.345 181.415 137.556C180.894 137.765 180.298 137.869 179.627 137.869C178.555 137.869 177.71 137.649 177.091 137.209C176.475 136.766 176.123 136.174 176.035 135.431L178.395 135.372C178.448 135.646 178.583 135.854 178.801 135.998C179.019 136.141 179.298 136.213 179.637 136.213C179.943 136.213 180.192 136.156 180.384 136.042C180.576 135.928 180.674 135.776 180.677 135.587C180.674 135.418 180.599 135.283 180.453 135.182C180.306 135.077 180.076 134.996 179.764 134.937L178.454 134.688C177.702 134.551 177.141 134.299 176.773 133.931C176.405 133.559 176.223 133.087 176.226 132.514C176.223 132.012 176.356 131.584 176.627 131.229C176.897 130.87 177.281 130.597 177.78 130.408C178.278 130.219 178.866 130.125 179.544 130.125C180.56 130.125 181.361 130.338 181.948 130.765C182.534 131.188 182.858 131.771 182.92 132.514ZM189.879 137.727L187.924 130.222H190.323L191.335 135.03H191.398L192.483 130.222H194.823L195.937 134.996H196.001L196.983 130.222H199.382L197.423 137.727H194.867L193.695 133.354H193.612L192.439 137.727H189.879ZM204.302 137.869C203.514 137.869 202.836 137.708 202.27 137.385C201.706 137.06 201.271 136.607 200.965 136.027C200.662 135.444 200.511 134.768 200.511 133.999C200.511 133.227 200.662 132.551 200.965 131.971C201.271 131.388 201.706 130.936 202.27 130.613C202.836 130.287 203.514 130.125 204.302 130.125C205.091 130.125 205.766 130.287 206.33 130.613C206.897 130.936 207.332 131.388 207.635 131.971C207.941 132.551 208.094 133.227 208.094 133.999C208.094 134.768 207.941 135.444 207.635 136.027C207.332 136.607 206.897 137.06 206.33 137.385C205.766 137.708 205.091 137.869 204.302 137.869ZM204.317 136.066C204.604 136.066 204.846 135.978 205.045 135.802C205.244 135.626 205.395 135.382 205.499 135.069C205.607 134.757 205.661 134.395 205.661 133.985C205.661 133.568 205.607 133.203 205.499 132.89C205.395 132.577 205.244 132.333 205.045 132.157C204.846 131.981 204.604 131.893 204.317 131.893C204.02 131.893 203.77 131.981 203.564 132.157C203.363 132.333 203.208 132.577 203.1 132.89C202.996 133.203 202.944 133.568 202.944 133.985C202.944 134.395 202.996 134.757 203.1 135.069C203.208 135.382 203.363 135.626 203.564 135.802C203.77 135.978 204.02 136.066 204.317 136.066ZM209.937 137.727V130.222H212.258V131.59H212.336C212.473 131.095 212.696 130.727 213.005 130.486C213.315 130.242 213.675 130.12 214.085 130.12C214.196 130.12 214.31 130.128 214.427 130.144C214.545 130.157 214.654 130.178 214.755 130.208V132.284C214.641 132.245 214.491 132.214 214.305 132.191C214.123 132.169 213.96 132.157 213.817 132.157C213.533 132.157 213.277 132.221 213.049 132.348C212.825 132.471 212.647 132.646 212.517 132.871C212.39 133.092 212.326 133.353 212.326 133.652V137.727H209.937ZM220.933 130.222V131.981H216.198V130.222H220.933ZM217.19 128.424H219.58V135.367C219.58 135.514 219.602 135.633 219.648 135.724C219.697 135.812 219.767 135.875 219.858 135.915C219.949 135.95 220.058 135.968 220.185 135.968C220.277 135.968 220.373 135.96 220.474 135.944C220.578 135.924 220.656 135.908 220.708 135.895L221.07 137.62C220.956 137.652 220.795 137.693 220.586 137.742C220.381 137.791 220.135 137.822 219.848 137.835C219.288 137.861 218.808 137.796 218.407 137.639C218.009 137.48 217.705 137.232 217.493 136.897C217.285 136.561 217.184 136.139 217.19 135.631V128.424ZM225.322 133.447V137.727H222.932V127.721H225.244V131.6H225.327C225.496 131.138 225.773 130.776 226.157 130.515C226.545 130.255 227.019 130.125 227.579 130.125C228.107 130.125 228.566 130.242 228.957 130.476C229.348 130.708 229.651 131.035 229.866 131.458C230.084 131.882 230.192 132.377 230.188 132.944V137.727H227.799V133.413C227.802 132.996 227.698 132.67 227.486 132.436C227.275 132.201 226.977 132.084 226.592 132.084C226.341 132.084 226.12 132.139 225.928 132.25C225.739 132.357 225.59 132.512 225.483 132.714C225.379 132.916 225.325 133.16 225.322 133.447Z" fill="url(#paint51_linear_2_2127)"/>
<path d="M91.6636 151.815V182H84.3827V158.624H84.2058L77.4554 162.751V156.443L84.8985 151.815H91.6636ZM111.048 182V151.815H118.344V176.075H130.901V182H111.048ZM142.927 182.383C141.483 182.383 140.201 182.142 139.081 181.661C137.97 181.17 137.091 180.433 136.442 179.45C135.804 178.458 135.484 177.215 135.484 175.721C135.484 174.464 135.705 173.402 136.148 172.538C136.59 171.673 137.199 170.97 137.975 170.43C138.751 169.89 139.646 169.482 140.658 169.207C141.67 168.922 142.751 168.73 143.9 168.632C145.187 168.514 146.224 168.391 147.01 168.263C147.796 168.126 148.366 167.934 148.72 167.689C149.083 167.433 149.265 167.075 149.265 166.613V166.539C149.265 165.782 149.005 165.198 148.484 164.785C147.963 164.372 147.261 164.166 146.376 164.166C145.423 164.166 144.657 164.372 144.077 164.785C143.497 165.198 143.129 165.768 142.972 166.495L136.324 166.259C136.521 164.883 137.027 163.655 137.843 162.574C138.668 161.484 139.798 160.629 141.233 160.01C142.677 159.381 144.411 159.066 146.435 159.066C147.88 159.066 149.211 159.238 150.43 159.582C151.648 159.916 152.709 160.408 153.613 161.056C154.517 161.695 155.215 162.481 155.706 163.414C156.207 164.348 156.458 165.414 156.458 166.613V182H149.678V178.846H149.501C149.098 179.612 148.582 180.261 147.953 180.791C147.334 181.322 146.602 181.72 145.757 181.985C144.922 182.251 143.979 182.383 142.927 182.383ZM145.153 177.667C145.929 177.667 146.627 177.51 147.246 177.195C147.875 176.881 148.376 176.448 148.749 175.898C149.123 175.338 149.309 174.69 149.309 173.953V171.801C149.103 171.909 148.852 172.007 148.558 172.096C148.273 172.184 147.958 172.267 147.614 172.346C147.27 172.425 146.917 172.493 146.553 172.552C146.19 172.611 145.841 172.665 145.507 172.715C144.829 172.823 144.249 172.99 143.768 173.216C143.296 173.442 142.932 173.736 142.677 174.1C142.431 174.454 142.308 174.876 142.308 175.368C142.308 176.114 142.574 176.684 143.104 177.077C143.645 177.47 144.328 177.667 145.153 177.667ZM169.232 176.06L169.262 167.468H170.264L176.631 159.361H184.796L175.334 170.975H173.433L169.232 176.06ZM162.732 182V151.815H169.94V182H162.732ZM176.793 182L170.868 172.597L175.614 167.482L185.12 182H176.793ZM196.45 169.089V182H189.243V151.815H196.215V163.518H196.465C196.976 162.122 197.811 161.032 198.971 160.246C200.14 159.459 201.57 159.066 203.26 159.066C204.852 159.066 206.237 159.42 207.416 160.128C208.595 160.825 209.509 161.813 210.158 163.09C210.816 164.368 211.14 165.861 211.13 167.571V182H203.923V168.986C203.933 167.728 203.618 166.745 202.98 166.038C202.341 165.33 201.442 164.977 200.283 164.977C199.526 164.977 198.858 165.144 198.278 165.478C197.708 165.802 197.261 166.269 196.937 166.878C196.622 167.487 196.46 168.224 196.45 169.089Z" fill="url(#paint52_linear_2_2127)"/>
<defs>
<linearGradient id="paint0_linear_2_2127" x1="232" y1="-1.75632" x2="156.743" y2="139.691" gradientUnits="userSpaceOnUse">
<stop stop-color="#FDE67E"/>
<stop offset="0.13887" stop-color="#FAE27B"/>
<stop offset="0.27184" stop-color="#F2D772"/>
<stop offset="0.40246" stop-color="#E4C362"/>
<stop offset="0.53083" stop-color="#D1A84D"/>
<stop offset="0.61313" stop-color="#C1933C"/>
<stop offset="0.62956" stop-color="#BE8F39"/>
<stop offset="0.78853" stop-color="#A26B1F"/>
<stop offset="0.91765" stop-color="#915410"/>
<stop offset="1" stop-color="#8B4C0A"/>
</linearGradient>
<linearGradient id="paint1_linear_2_2127" x1="223.306" y1="221.527" x2="145.975" y2="135.811" gradientUnits="userSpaceOnUse">
<stop stop-color="#FDE67E"/>
<stop offset="0.13887" stop-color="#FAE27B"/>
<stop offset="0.27184" stop-color="#F2D772"/>
<stop offset="0.40246" stop-color="#E4C362"/>
<stop offset="0.53083" stop-color="#D1A84D"/>
<stop offset="0.61313" stop-color="#C1933C"/>
<stop offset="0.62956" stop-color="#BE8F39"/>
<stop offset="0.78853" stop-color="#A26B1F"/>
<stop offset="0.91765" stop-color="#915410"/>
<stop offset="1" stop-color="#8B4C0A"/>
</linearGradient>
<linearGradient id="paint2_linear_2_2127" x1="47.698" y1="-4.59436" x2="115.986" y2="244.659" gradientUnits="userSpaceOnUse">
<stop stop-color="#FDE67E"/>
<stop offset="0.13887" stop-color="#FAE27B"/>
<stop offset="0.27184" stop-color="#F2D772"/>
<stop offset="0.40246" stop-color="#E4C362"/>
<stop offset="0.53083" stop-color="#D1A84D"/>
<stop offset="0.61313" stop-color="#C1933C"/>
<stop offset="0.62956" stop-color="#BE8F39"/>
<stop offset="0.78853" stop-color="#A26B1F"/>
<stop offset="0.91765" stop-color="#915410"/>
<stop offset="1" stop-color="#8B4C0A"/>
</linearGradient>
<linearGradient id="paint3_linear_2_2127" x1="176.493" y1="50.718" x2="71.7247" y2="158.688" gradientUnits="userSpaceOnUse">
<stop offset="0.04011" stop-color="#F5DA75"/>
<stop offset="0.1606" stop-color="#F1D470"/>
<stop offset="0.31819" stop-color="#E5C463"/>
<stop offset="0.49557" stop-color="#D1A94E"/>
<stop offset="0.61313" stop-color="#C1933C"/>
<stop offset="0.62956" stop-color="#BE8F39"/>
<stop offset="0.78853" stop-color="#A26B1F"/>
<stop offset="0.91765" stop-color="#915410"/>
<stop offset="1" stop-color="#8B4C0A"/>
</linearGradient>
<linearGradient id="paint4_linear_2_2127" x1="149.968" y1="36.6685" x2="139.238" y2="86.916" gradientUnits="userSpaceOnUse">
<stop stop-color="#FFF4C7"/>
<stop offset="0.29144" stop-color="#F5DA75"/>
<stop offset="0.35909" stop-color="#F1D470"/>
<stop offset="0.44756" stop-color="#E5C463"/>
<stop offset="0.54713" stop-color="#D1A94E"/>
<stop offset="0.61313" stop-color="#C1933C"/>
<stop offset="0.62956" stop-color="#BE8F39"/>
<stop offset="0.78853" stop-color="#A26B1F"/>
<stop offset="0.91765" stop-color="#915410"/>
<stop offset="1" stop-color="#8B4C0A"/>
</linearGradient>
<linearGradient id="paint5_linear_2_2127" x1="152.342" y1="52.6142" x2="72.1974" y2="129.892" gradientUnits="userSpaceOnUse">
<stop stop-color="#FFF4C7"/>
<stop offset="0.29144" stop-color="#F5DA75"/>
<stop offset="0.35909" stop-color="#F1D470"/>
<stop offset="0.44756" stop-color="#E5C463"/>
<stop offset="0.54713" stop-color="#D1A94E"/>
<stop offset="0.61313" stop-color="#C1933C"/>
<stop offset="0.62956" stop-color="#BE8F39"/>
<stop offset="0.78853" stop-color="#A26B1F"/>
<stop offset="0.91765" stop-color="#915410"/>
<stop offset="1" stop-color="#8B4C0A"/>
</linearGradient>
<linearGradient id="paint6_linear_2_2127" x1="93.8466" y1="62.3937" x2="148.138" y2="81.93" gradientUnits="userSpaceOnUse">
<stop stop-color="#FFF4C7"/>
<stop offset="0.29144" stop-color="#F5DA75"/>
<stop offset="0.35909" stop-color="#F1D470"/>
<stop offset="0.44756" stop-color="#E5C463"/>
<stop offset="0.54713" stop-color="#D1A94E"/>
<stop offset="0.61313" stop-color="#C1933C"/>
<stop offset="0.62956" stop-color="#BE8F39"/>
<stop offset="0.78853" stop-color="#A26B1F"/>
<stop offset="0.91765" stop-color="#915410"/>
<stop offset="1" stop-color="#8B4C0A"/>
</linearGradient>
<linearGradient id="paint7_linear_2_2127" x1="154.205" y1="40.8249" x2="99.4784" y2="108.739" gradientUnits="userSpaceOnUse">
<stop stop-color="#FFF4C7"/>
<stop offset="0.29144" stop-color="#F5DA75"/>
<stop offset="0.35909" stop-color="#F1D470"/>
<stop offset="0.44756" stop-color="#E5C463"/>
<stop offset="0.54713" stop-color="#D1A94E"/>
<stop offset="0.61313" stop-color="#C1933C"/>
<stop offset="0.62956" stop-color="#BE8F39"/>
<stop offset="0.78853" stop-color="#A26B1F"/>
<stop offset="0.91765" stop-color="#915410"/>
<stop offset="1" stop-color="#8B4C0A"/>
</linearGradient>
<linearGradient id="paint8_linear_2_2127" x1="97.2343" y1="94.5357" x2="149.644" y2="91.2393" gradientUnits="userSpaceOnUse">
<stop stop-color="#FFF4C7"/>
<stop offset="0.29144" stop-color="#F5DA75"/>
<stop offset="0.35909" stop-color="#F1D470"/>
<stop offset="0.44756" stop-color="#E5C463"/>
<stop offset="0.54713" stop-color="#D1A94E"/>
<stop offset="0.61313" stop-color="#C1933C"/>
<stop offset="0.62956" stop-color="#BE8F39"/>
<stop offset="0.78853" stop-color="#A26B1F"/>
<stop offset="0.91765" stop-color="#915410"/>
<stop offset="1" stop-color="#8B4C0A"/>
</linearGradient>
<linearGradient id="paint9_linear_2_2127" x1="164.889" y1="49.4336" x2="110.162" y2="117.348" gradientUnits="userSpaceOnUse">
<stop stop-color="#FFF4C7"/>
<stop offset="0.29144" stop-color="#F5DA75"/>
<stop offset="0.35909" stop-color="#F1D470"/>
<stop offset="0.44756" stop-color="#E5C463"/>
<stop offset="0.54713" stop-color="#D1A94E"/>
<stop offset="0.61313" stop-color="#C1933C"/>
<stop offset="0.62956" stop-color="#BE8F39"/>
<stop offset="0.78853" stop-color="#A26B1F"/>
<stop offset="0.91765" stop-color="#915410"/>
<stop offset="1" stop-color="#8B4C0A"/>
</linearGradient>
<linearGradient id="paint10_linear_2_2127" x1="176.291" y1="54.5519" x2="136.168" y2="133.832" gradientUnits="userSpaceOnUse">
<stop stop-color="#FFF4C7"/>
<stop offset="0.29144" stop-color="#F5DA75"/>
<stop offset="0.35909" stop-color="#F1D470"/>
<stop offset="0.44756" stop-color="#E5C463"/>
<stop offset="0.54713" stop-color="#D1A94E"/>
<stop offset="0.61313" stop-color="#C1933C"/>
<stop offset="0.62956" stop-color="#BE8F39"/>
<stop offset="0.78853" stop-color="#A26B1F"/>
<stop offset="0.91765" stop-color="#915410"/>
<stop offset="1" stop-color="#8B4C0A"/>
</linearGradient>
<linearGradient id="paint11_linear_2_2127" x1="180.751" y1="83.3978" x2="144.64" y2="97.6685" gradientUnits="userSpaceOnUse">
<stop stop-color="#FFF4C7"/>
<stop offset="0.29144" stop-color="#F5DA75"/>
<stop offset="0.35909" stop-color="#F1D470"/>
<stop offset="0.44756" stop-color="#E5C463"/>
<stop offset="0.54713" stop-color="#D1A94E"/>
<stop offset="0.61313" stop-color="#C1933C"/>
<stop offset="0.62956" stop-color="#BE8F39"/>
<stop offset="0.78853" stop-color="#A26B1F"/>
<stop offset="0.91765" stop-color="#915410"/>
<stop offset="1" stop-color="#8B4C0A"/>
</linearGradient>
<linearGradient id="paint12_linear_2_2127" x1="155.873" y1="70.6562" x2="223.804" y2="96.2126" gradientUnits="userSpaceOnUse">
<stop stop-color="#FFF4C7"/>
<stop offset="0.29144" stop-color="#F5DA75"/>
<stop offset="0.35909" stop-color="#F1D470"/>
<stop offset="0.44756" stop-color="#E5C463"/>
<stop offset="0.54713" stop-color="#D1A94E"/>
<stop offset="0.61313" stop-color="#C1933C"/>
<stop offset="0.62956" stop-color="#BE8F39"/>
<stop offset="0.78853" stop-color="#A26B1F"/>
<stop offset="0.91765" stop-color="#915410"/>
<stop offset="1" stop-color="#8B4C0A"/>
</linearGradient>
<linearGradient id="paint13_linear_2_2127" x1="175.975" y1="52.4966" x2="151.404" y2="90.9227" gradientUnits="userSpaceOnUse">
<stop stop-color="#FFF4C7"/>
<stop offset="0.29144" stop-color="#F5DA75"/>
<stop offset="0.35909" stop-color="#F1D470"/>
<stop offset="0.44756" stop-color="#E5C463"/>
<stop offset="0.54713" stop-color="#D1A94E"/>
<stop offset="0.61313" stop-color="#C1933C"/>
<stop offset="0.62956" stop-color="#BE8F39"/>
<stop offset="0.78853" stop-color="#A26B1F"/>
<stop offset="0.91765" stop-color="#915410"/>
<stop offset="1" stop-color="#8B4C0A"/>
</linearGradient>
<linearGradient id="paint14_linear_2_2127" x1="149.792" y1="52.1066" x2="95.0221" y2="131.292" gradientUnits="userSpaceOnUse">
<stop stop-color="#FFF4C7"/>
<stop offset="0.29144" stop-color="#F5DA75"/>
<stop offset="0.35909" stop-color="#F1D470"/>
<stop offset="0.44756" stop-color="#E5C463"/>
<stop offset="0.54713" stop-color="#D1A94E"/>
<stop offset="0.61313" stop-color="#C1933C"/>
<stop offset="0.62956" stop-color="#BE8F39"/>
<stop offset="0.78853" stop-color="#A26B1F"/>
<stop offset="0.91765" stop-color="#915410"/>
<stop offset="1" stop-color="#8B4C0A"/>
</linearGradient>
<linearGradient id="paint15_linear_2_2127" x1="144.309" y1="48.3144" x2="89.5397" y2="127.5" gradientUnits="userSpaceOnUse">
<stop stop-color="#FFF4C7"/>
<stop offset="0.29144" stop-color="#F5DA75"/>
<stop offset="0.35909" stop-color="#F1D470"/>
<stop offset="0.44756" stop-color="#E5C463"/>
<stop offset="0.54713" stop-color="#D1A94E"/>
<stop offset="0.61313" stop-color="#C1933C"/>
<stop offset="0.62956" stop-color="#BE8F39"/>
<stop offset="0.78853" stop-color="#A26B1F"/>
<stop offset="0.91765" stop-color="#915410"/>
<stop offset="1" stop-color="#8B4C0A"/>
</linearGradient>
<linearGradient id="paint16_linear_2_2127" x1="158.911" y1="58.4131" x2="104.141" y2="137.599" gradientUnits="userSpaceOnUse">
<stop stop-color="#FFF4C7"/>
<stop offset="0.29144" stop-color="#F5DA75"/>
<stop offset="0.35909" stop-color="#F1D470"/>
<stop offset="0.44756" stop-color="#E5C463"/>
<stop offset="0.54713" stop-color="#D1A94E"/>
<stop offset="0.61313" stop-color="#C1933C"/>
<stop offset="0.62956" stop-color="#BE8F39"/>
<stop offset="0.78853" stop-color="#A26B1F"/>
<stop offset="0.91765" stop-color="#915410"/>
<stop offset="1" stop-color="#8B4C0A"/>
</linearGradient>
<linearGradient id="paint17_linear_2_2127" x1="173.418" y1="68.447" x2="118.648" y2="147.633" gradientUnits="userSpaceOnUse">
<stop stop-color="#FFF4C7"/>
<stop offset="0.29144" stop-color="#F5DA75"/>
<stop offset="0.35909" stop-color="#F1D470"/>
<stop offset="0.44756" stop-color="#E5C463"/>
<stop offset="0.54713" stop-color="#D1A94E"/>
<stop offset="0.61313" stop-color="#C1933C"/>
<stop offset="0.62956" stop-color="#BE8F39"/>
<stop offset="0.78853" stop-color="#A26B1F"/>
<stop offset="0.91765" stop-color="#915410"/>
<stop offset="1" stop-color="#8B4C0A"/>
</linearGradient>
<linearGradient id="paint18_linear_2_2127" x1="167.783" y1="64.5484" x2="113.013" y2="143.734" gradientUnits="userSpaceOnUse">
<stop stop-color="#FFF4C7"/>
<stop offset="0.29144" stop-color="#F5DA75"/>
<stop offset="0.35909" stop-color="#F1D470"/>
<stop offset="0.44756" stop-color="#E5C463"/>
<stop offset="0.54713" stop-color="#D1A94E"/>
<stop offset="0.61313" stop-color="#C1933C"/>
<stop offset="0.62956" stop-color="#BE8F39"/>
<stop offset="0.78853" stop-color="#A26B1F"/>
<stop offset="0.91765" stop-color="#915410"/>
<stop offset="1" stop-color="#8B4C0A"/>
</linearGradient>
<linearGradient id="paint19_linear_2_2127" x1="232.682" y1="81.0597" x2="151.543" y2="135.404" gradientUnits="userSpaceOnUse">
<stop offset="0.04011" stop-color="#F5DA75"/>
<stop offset="0.1606" stop-color="#F1D470"/>
<stop offset="0.31819" stop-color="#E5C463"/>
<stop offset="0.49557" stop-color="#D1A94E"/>
<stop offset="0.61313" stop-color="#C1933C"/>
<stop offset="0.62956" stop-color="#BE8F39"/>
<stop offset="0.78853" stop-color="#A26B1F"/>
<stop offset="0.91765" stop-color="#915410"/>
<stop offset="1" stop-color="#8B4C0A"/>
</linearGradient>
<linearGradient id="paint20_linear_2_2127" x1="218.003" y1="68.9309" x2="204.813" y2="99.3866" gradientUnits="userSpaceOnUse">
<stop stop-color="#FFF4C7"/>
<stop offset="0.29144" stop-color="#F5DA75"/>
<stop offset="0.35909" stop-color="#F1D470"/>
<stop offset="0.44756" stop-color="#E5C463"/>
<stop offset="0.54713" stop-color="#D1A94E"/>
<stop offset="0.61313" stop-color="#C1933C"/>
<stop offset="0.62956" stop-color="#BE8F39"/>
<stop offset="0.78853" stop-color="#A26B1F"/>
<stop offset="0.91765" stop-color="#915410"/>
<stop offset="1" stop-color="#8B4C0A"/>
</linearGradient>
<linearGradient id="paint21_linear_2_2127" x1="217.254" y1="79.2355" x2="155.89" y2="117.375" gradientUnits="userSpaceOnUse">
<stop stop-color="#FFF4C7"/>
<stop offset="0.29144" stop-color="#F5DA75"/>
<stop offset="0.35909" stop-color="#F1D470"/>
<stop offset="0.44756" stop-color="#E5C463"/>
<stop offset="0.54713" stop-color="#D1A94E"/>
<stop offset="0.61313" stop-color="#C1933C"/>
<stop offset="0.62956" stop-color="#BE8F39"/>
<stop offset="0.78853" stop-color="#A26B1F"/>
<stop offset="0.91765" stop-color="#915410"/>
<stop offset="1" stop-color="#8B4C0A"/>
</linearGradient>
<linearGradient id="paint22_linear_2_2127" x1="179.17" y1="78.0732" x2="210.212" y2="97.5777" gradientUnits="userSpaceOnUse">
<stop stop-color="#FFF4C7"/>
<stop offset="0.29144" stop-color="#F5DA75"/>
<stop offset="0.35909" stop-color="#F1D470"/>
<stop offset="0.44756" stop-color="#E5C463"/>
<stop offset="0.54713" stop-color="#D1A94E"/>
<stop offset="0.61313" stop-color="#C1933C"/>
<stop offset="0.62956" stop-color="#BE8F39"/>
<stop offset="0.78853" stop-color="#A26B1F"/>
<stop offset="0.91765" stop-color="#915410"/>
<stop offset="1" stop-color="#8B4C0A"/>
</linearGradient>
<linearGradient id="paint23_linear_2_2127" x1="220.081" y1="72.0686" x2="176.207" y2="107.872" gradientUnits="userSpaceOnUse">
<stop stop-color="#FFF4C7"/>
<stop offset="0.29144" stop-color="#F5DA75"/>
<stop offset="0.35909" stop-color="#F1D470"/>
<stop offset="0.44756" stop-color="#E5C463"/>
<stop offset="0.54713" stop-color="#D1A94E"/>
<stop offset="0.61313" stop-color="#C1933C"/>
<stop offset="0.62956" stop-color="#BE8F39"/>
<stop offset="0.78853" stop-color="#A26B1F"/>
<stop offset="0.91765" stop-color="#915410"/>
<stop offset="1" stop-color="#8B4C0A"/>
</linearGradient>
<linearGradient id="paint24_linear_2_2127" x1="176.788" y1="98.6696" x2="210.017" y2="103.941" gradientUnits="userSpaceOnUse">
<stop stop-color="#FFF4C7"/>
<stop offset="0.29144" stop-color="#F5DA75"/>
<stop offset="0.35909" stop-color="#F1D470"/>
<stop offset="0.44756" stop-color="#E5C463"/>
<stop offset="0.54713" stop-color="#D1A94E"/>
<stop offset="0.61313" stop-color="#C1933C"/>
<stop offset="0.62956" stop-color="#BE8F39"/>
<stop offset="0.78853" stop-color="#A26B1F"/>
<stop offset="0.91765" stop-color="#915410"/>
<stop offset="1" stop-color="#8B4C0A"/>
</linearGradient>
<linearGradient id="paint25_linear_2_2127" x1="225.578" y1="78.8055" x2="181.706" y2="114.608" gradientUnits="userSpaceOnUse">
<stop stop-color="#FFF4C7"/>
<stop offset="0.29144" stop-color="#F5DA75"/>
<stop offset="0.35909" stop-color="#F1D470"/>
<stop offset="0.44756" stop-color="#E5C463"/>
<stop offset="0.54713" stop-color="#D1A94E"/>
<stop offset="0.61313" stop-color="#C1933C"/>
<stop offset="0.62956" stop-color="#BE8F39"/>
<stop offset="0.78853" stop-color="#A26B1F"/>
<stop offset="0.91765" stop-color="#915410"/>
<stop offset="1" stop-color="#8B4C0A"/>
</linearGradient>
<linearGradient id="paint26_linear_2_2127" x1="232.015" y1="83.4402" x2="196.158" y2="128.55" gradientUnits="userSpaceOnUse">
<stop stop-color="#FFF4C7"/>
<stop offset="0.29144" stop-color="#F5DA75"/>
<stop offset="0.35909" stop-color="#F1D470"/>
<stop offset="0.44756" stop-color="#E5C463"/>
<stop offset="0.54713" stop-color="#D1A94E"/>
<stop offset="0.61313" stop-color="#C1933C"/>
<stop offset="0.62956" stop-color="#BE8F39"/>
<stop offset="0.78853" stop-color="#A26B1F"/>
<stop offset="0.91765" stop-color="#915410"/>
<stop offset="1" stop-color="#8B4C0A"/>
</linearGradient>
<linearGradient id="paint27_linear_2_2127" x1="230.768" y1="102.102" x2="206.018" y2="106.041" gradientUnits="userSpaceOnUse">
<stop stop-color="#FFF4C7"/>
<stop offset="0.29144" stop-color="#F5DA75"/>
<stop offset="0.35909" stop-color="#F1D470"/>
<stop offset="0.44756" stop-color="#E5C463"/>
<stop offset="0.54713" stop-color="#D1A94E"/>
<stop offset="0.61313" stop-color="#C1933C"/>
<stop offset="0.62956" stop-color="#BE8F39"/>
<stop offset="0.78853" stop-color="#A26B1F"/>
<stop offset="0.91765" stop-color="#915410"/>
<stop offset="1" stop-color="#8B4C0A"/>
</linearGradient>
<linearGradient id="paint28_linear_2_2127" x1="216.941" y1="90.9994" x2="255.627" y2="116.077" gradientUnits="userSpaceOnUse">
<stop stop-color="#FFF4C7"/>
<stop offset="0.29144" stop-color="#F5DA75"/>
<stop offset="0.35909" stop-color="#F1D470"/>
<stop offset="0.44756" stop-color="#E5C463"/>
<stop offset="0.54713" stop-color="#D1A94E"/>
<stop offset="0.61313" stop-color="#C1933C"/>
<stop offset="0.62956" stop-color="#BE8F39"/>
<stop offset="0.78853" stop-color="#A26B1F"/>
<stop offset="0.91765" stop-color="#915410"/>
<stop offset="1" stop-color="#8B4C0A"/>
</linearGradient>
<linearGradient id="paint29_linear_2_2127" x1="232.106" y1="82.1104" x2="211.406" y2="103.274" gradientUnits="userSpaceOnUse">
<stop stop-color="#FFF4C7"/>
<stop offset="0.29144" stop-color="#F5DA75"/>
<stop offset="0.35909" stop-color="#F1D470"/>
<stop offset="0.44756" stop-color="#E5C463"/>
<stop offset="0.54713" stop-color="#D1A94E"/>
<stop offset="0.61313" stop-color="#C1933C"/>
<stop offset="0.62956" stop-color="#BE8F39"/>
<stop offset="0.78853" stop-color="#A26B1F"/>
<stop offset="0.91765" stop-color="#915410"/>
<stop offset="1" stop-color="#8B4C0A"/>
</linearGradient>
<linearGradient id="paint30_linear_2_2127" x1="215.726" y1="78.5988" x2="170.399" y2="121.629" gradientUnits="userSpaceOnUse">
<stop stop-color="#FFF4C7"/>
<stop offset="0.29144" stop-color="#F5DA75"/>
<stop offset="0.35909" stop-color="#F1D470"/>
<stop offset="0.44756" stop-color="#E5C463"/>
<stop offset="0.54713" stop-color="#D1A94E"/>
<stop offset="0.61313" stop-color="#C1933C"/>
<stop offset="0.62956" stop-color="#BE8F39"/>
<stop offset="0.78853" stop-color="#A26B1F"/>
<stop offset="0.91765" stop-color="#915410"/>
<stop offset="1" stop-color="#8B4C0A"/>
</linearGradient>
<linearGradient id="paint31_linear_2_2127" x1="212.82" y1="75.5331" x2="167.487" y2="118.569" gradientUnits="userSpaceOnUse">
<stop stop-color="#FFF4C7"/>
<stop offset="0.29144" stop-color="#F5DA75"/>
<stop offset="0.35909" stop-color="#F1D470"/>
<stop offset="0.44756" stop-color="#E5C463"/>
<stop offset="0.54713" stop-color="#D1A94E"/>
<stop offset="0.61313" stop-color="#C1933C"/>
<stop offset="0.62956" stop-color="#BE8F39"/>
<stop offset="0.78853" stop-color="#A26B1F"/>
<stop offset="0.91765" stop-color="#915410"/>
<stop offset="1" stop-color="#8B4C0A"/>
</linearGradient>
<linearGradient id="paint32_linear_2_2127" x1="220.566" y1="83.6952" x2="175.238" y2="126.726" gradientUnits="userSpaceOnUse">
<stop stop-color="#FFF4C7"/>
<stop offset="0.29144" stop-color="#F5DA75"/>
<stop offset="0.35909" stop-color="#F1D470"/>
<stop offset="0.44756" stop-color="#E5C463"/>
<stop offset="0.54713" stop-color="#D1A94E"/>
<stop offset="0.61313" stop-color="#C1933C"/>
<stop offset="0.62956" stop-color="#BE8F39"/>
<stop offset="0.78853" stop-color="#A26B1F"/>
<stop offset="0.91765" stop-color="#915410"/>
<stop offset="1" stop-color="#8B4C0A"/>
</linearGradient>
<linearGradient id="paint33_linear_2_2127" x1="228.261" y1="91.805" x2="182.94" y2="134.829" gradientUnits="userSpaceOnUse">
<stop stop-color="#FFF4C7"/>
<stop offset="0.29144" stop-color="#F5DA75"/>
<stop offset="0.35909" stop-color="#F1D470"/>
<stop offset="0.44756" stop-color="#E5C463"/>
<stop offset="0.54713" stop-color="#D1A94E"/>
<stop offset="0.61313" stop-color="#C1933C"/>
<stop offset="0.62956" stop-color="#BE8F39"/>
<stop offset="0.78853" stop-color="#A26B1F"/>
<stop offset="0.91765" stop-color="#915410"/>
<stop offset="1" stop-color="#8B4C0A"/>
</linearGradient>
<linearGradient id="paint34_linear_2_2127" x1="225.273" y1="88.6526" x2="179.944" y2="131.685" gradientUnits="userSpaceOnUse">
<stop stop-color="#FFF4C7"/>
<stop offset="0.29144" stop-color="#F5DA75"/>
<stop offset="0.35909" stop-color="#F1D470"/>
<stop offset="0.44756" stop-color="#E5C463"/>
<stop offset="0.54713" stop-color="#D1A94E"/>
<stop offset="0.61313" stop-color="#C1933C"/>
<stop offset="0.62956" stop-color="#BE8F39"/>
<stop offset="0.78853" stop-color="#A26B1F"/>
<stop offset="0.91765" stop-color="#915410"/>
<stop offset="1" stop-color="#8B4C0A"/>
</linearGradient>
<linearGradient id="paint35_linear_2_2127" x1="95.4887" y1="72.0676" x2="48.2304" y2="154.646" gradientUnits="userSpaceOnUse">
<stop offset="0.04011" stop-color="#F5DA75"/>
<stop offset="0.1606" stop-color="#F1D470"/>
<stop offset="0.31819" stop-color="#E5C463"/>
<stop offset="0.49557" stop-color="#D1A94E"/>
<stop offset="0.61313" stop-color="#C1933C"/>
<stop offset="0.62956" stop-color="#BE8F39"/>
<stop offset="0.78853" stop-color="#A26B1F"/>
<stop offset="0.91765" stop-color="#915410"/>
<stop offset="1" stop-color="#8B4C0A"/>
</linearGradient>
<linearGradient id="paint36_linear_2_2127" x1="76.6164" y1="67.3816" x2="77.5947" y2="100.237" gradientUnits="userSpaceOnUse">
<stop stop-color="#FFF4C7"/>
<stop offset="0.29144" stop-color="#F5DA75"/>
<stop offset="0.35909" stop-color="#F1D470"/>
<stop offset="0.44756" stop-color="#E5C463"/>
<stop offset="0.54713" stop-color="#D1A94E"/>
<stop offset="0.61313" stop-color="#C1933C"/>
<stop offset="0.62956" stop-color="#BE8F39"/>
<stop offset="0.78853" stop-color="#A26B1F"/>
<stop offset="0.91765" stop-color="#915410"/>
<stop offset="1" stop-color="#8B4C0A"/>
</linearGradient>
<linearGradient id="paint37_linear_2_2127" x1="80.8182" y1="76.9196" x2="43.8994" y2="136.852" gradientUnits="userSpaceOnUse">
<stop stop-color="#FFF4C7"/>
<stop offset="0.29144" stop-color="#F5DA75"/>
<stop offset="0.35909" stop-color="#F1D470"/>
<stop offset="0.44756" stop-color="#E5C463"/>
<stop offset="0.54713" stop-color="#D1A94E"/>
<stop offset="0.61313" stop-color="#C1933C"/>
<stop offset="0.62956" stop-color="#BE8F39"/>
<stop offset="0.78853" stop-color="#A26B1F"/>
<stop offset="0.91765" stop-color="#915410"/>
<stop offset="1" stop-color="#8B4C0A"/>
</linearGradient>
<linearGradient id="paint38_linear_2_2127" x1="46.1775" y1="91.8903" x2="83.3001" y2="94.7676" gradientUnits="userSpaceOnUse">
<stop stop-color="#FFF4C7"/>
<stop offset="0.29144" stop-color="#F5DA75"/>
<stop offset="0.35909" stop-color="#F1D470"/>
<stop offset="0.44756" stop-color="#E5C463"/>
<stop offset="0.54713" stop-color="#D1A94E"/>
<stop offset="0.61313" stop-color="#C1933C"/>
<stop offset="0.62956" stop-color="#BE8F39"/>
<stop offset="0.78853" stop-color="#A26B1F"/>
<stop offset="0.91765" stop-color="#915410"/>
<stop offset="1" stop-color="#8B4C0A"/>
</linearGradient>
<linearGradient id="paint39_linear_2_2127" x1="79.9597" y1="69.3167" x2="56.9323" y2="119.499" gradientUnits="userSpaceOnUse">
<stop stop-color="#FFF4C7"/>
<stop offset="0.29144" stop-color="#F5DA75"/>
<stop offset="0.35909" stop-color="#F1D470"/>
<stop offset="0.44756" stop-color="#E5C463"/>
<stop offset="0.54713" stop-color="#D1A94E"/>
<stop offset="0.61313" stop-color="#C1933C"/>
<stop offset="0.62956" stop-color="#BE8F39"/>
<stop offset="0.78853" stop-color="#A26B1F"/>
<stop offset="0.91765" stop-color="#915410"/>
<stop offset="1" stop-color="#8B4C0A"/>
</linearGradient>
<linearGradient id="paint40_linear_2_2127" x1="53.7766" y1="111.329" x2="85.4514" y2="100.443" gradientUnits="userSpaceOnUse">
<stop stop-color="#FFF4C7"/>
<stop offset="0.29144" stop-color="#F5DA75"/>
<stop offset="0.35909" stop-color="#F1D470"/>
<stop offset="0.44756" stop-color="#E5C463"/>
<stop offset="0.54713" stop-color="#D1A94E"/>
<stop offset="0.61313" stop-color="#C1933C"/>
<stop offset="0.62956" stop-color="#BE8F39"/>
<stop offset="0.78853" stop-color="#A26B1F"/>
<stop offset="0.91765" stop-color="#915410"/>
<stop offset="1" stop-color="#8B4C0A"/>
</linearGradient>
<linearGradient id="paint41_linear_2_2127" x1="88.0635" y1="73.0357" x2="65.0362" y2="123.218" gradientUnits="userSpaceOnUse">
<stop stop-color="#FFF4C7"/>
<stop offset="0.29144" stop-color="#F5DA75"/>
<stop offset="0.35909" stop-color="#F1D470"/>
<stop offset="0.44756" stop-color="#E5C463"/>
<stop offset="0.54713" stop-color="#D1A94E"/>
<stop offset="0.61313" stop-color="#C1933C"/>
<stop offset="0.62956" stop-color="#BE8F39"/>
<stop offset="0.78853" stop-color="#A26B1F"/>
<stop offset="0.91765" stop-color="#915410"/>
<stop offset="1" stop-color="#8B4C0A"/>
</linearGradient>
<linearGradient id="paint42_linear_2_2127" x1="96.0181" y1="74.4784" x2="83.4108" y2="129.513" gradientUnits="userSpaceOnUse">
<stop stop-color="#FFF4C7"/>
<stop offset="0.29144" stop-color="#F5DA75"/>
<stop offset="0.35909" stop-color="#F1D470"/>
<stop offset="0.44756" stop-color="#E5C463"/>
<stop offset="0.54713" stop-color="#D1A94E"/>
<stop offset="0.61313" stop-color="#C1933C"/>
<stop offset="0.62956" stop-color="#BE8F39"/>
<stop offset="0.78853" stop-color="#A26B1F"/>
<stop offset="0.91765" stop-color="#915410"/>
<stop offset="1" stop-color="#8B4C0A"/>
</linearGradient>
<linearGradient id="paint43_linear_2_2127" x1="103.721" y1="91.7074" x2="83.9735" y2="106.372" gradientUnits="userSpaceOnUse">
<stop stop-color="#FFF4C7"/>
<stop offset="0.29144" stop-color="#F5DA75"/>
<stop offset="0.35909" stop-color="#F1D470"/>
<stop offset="0.44756" stop-color="#E5C463"/>
<stop offset="0.54713" stop-color="#D1A94E"/>
<stop offset="0.61313" stop-color="#C1933C"/>
<stop offset="0.62956" stop-color="#BE8F39"/>
<stop offset="0.78853" stop-color="#A26B1F"/>
<stop offset="0.91765" stop-color="#915410"/>
<stop offset="1" stop-color="#8B4C0A"/>
</linearGradient>
<linearGradient id="paint44_linear_2_2127" x1="86.0958" y1="87.5828" x2="132.751" y2="91.8853" gradientUnits="userSpaceOnUse">
<stop stop-color="#FFF4C7"/>
<stop offset="0.29144" stop-color="#F5DA75"/>
<stop offset="0.35909" stop-color="#F1D470"/>
<stop offset="0.44756" stop-color="#E5C463"/>
<stop offset="0.54713" stop-color="#D1A94E"/>
<stop offset="0.61313" stop-color="#C1933C"/>
<stop offset="0.62956" stop-color="#BE8F39"/>
<stop offset="0.78853" stop-color="#A26B1F"/>
<stop offset="0.91765" stop-color="#915410"/>
<stop offset="1" stop-color="#8B4C0A"/>
</linearGradient>
<linearGradient id="paint45_linear_2_2127" x1="95.4695" y1="73.251" x2="86.275" y2="100.673" gradientUnits="userSpaceOnUse">
<stop stop-color="#FFF4C7"/>
<stop offset="0.29144" stop-color="#F5DA75"/>
<stop offset="0.35909" stop-color="#F1D470"/>
<stop offset="0.44756" stop-color="#E5C463"/>
<stop offset="0.54713" stop-color="#D1A94E"/>
<stop offset="0.61313" stop-color="#C1933C"/>
<stop offset="0.62956" stop-color="#BE8F39"/>
<stop offset="0.78853" stop-color="#A26B1F"/>
<stop offset="0.91765" stop-color="#915410"/>
<stop offset="1" stop-color="#8B4C0A"/>
</linearGradient>
<linearGradient id="paint46_linear_2_2127" x1="79.1499" y1="76.9923" x2="57.7209" y2="134.119" gradientUnits="userSpaceOnUse">
<stop stop-color="#FFF4C7"/>
<stop offset="0.29144" stop-color="#F5DA75"/>
<stop offset="0.35909" stop-color="#F1D470"/>
<stop offset="0.44756" stop-color="#E5C463"/>
<stop offset="0.54713" stop-color="#D1A94E"/>
<stop offset="0.61313" stop-color="#C1933C"/>
<stop offset="0.62956" stop-color="#BE8F39"/>
<stop offset="0.78853" stop-color="#A26B1F"/>
<stop offset="0.91765" stop-color="#915410"/>
<stop offset="1" stop-color="#8B4C0A"/>
</linearGradient>
<linearGradient id="paint47_linear_2_2127" x1="75.0974" y1="75.4716" x2="53.6675" y2="132.601" gradientUnits="userSpaceOnUse">
<stop stop-color="#FFF4C7"/>
<stop offset="0.29144" stop-color="#F5DA75"/>
<stop offset="0.35909" stop-color="#F1D470"/>
<stop offset="0.44756" stop-color="#E5C463"/>
<stop offset="0.54713" stop-color="#D1A94E"/>
<stop offset="0.61313" stop-color="#C1933C"/>
<stop offset="0.62956" stop-color="#BE8F39"/>
<stop offset="0.78853" stop-color="#A26B1F"/>
<stop offset="0.91765" stop-color="#915410"/>
<stop offset="1" stop-color="#8B4C0A"/>
</linearGradient>
<linearGradient id="paint48_linear_2_2127" x1="85.8892" y1="79.5199" x2="64.4597" y2="136.648" gradientUnits="userSpaceOnUse">
<stop stop-color="#FFF4C7"/>
<stop offset="0.29144" stop-color="#F5DA75"/>
<stop offset="0.35909" stop-color="#F1D470"/>
<stop offset="0.44756" stop-color="#E5C463"/>
<stop offset="0.54713" stop-color="#D1A94E"/>
<stop offset="0.61313" stop-color="#C1933C"/>
<stop offset="0.62956" stop-color="#BE8F39"/>
<stop offset="0.78853" stop-color="#A26B1F"/>
<stop offset="0.91765" stop-color="#915410"/>
<stop offset="1" stop-color="#8B4C0A"/>
</linearGradient>
<linearGradient id="paint49_linear_2_2127" x1="96.6105" y1="83.5427" x2="75.1821" y2="140.668" gradientUnits="userSpaceOnUse">
<stop stop-color="#FFF4C7"/>
<stop offset="0.29144" stop-color="#F5DA75"/>
<stop offset="0.35909" stop-color="#F1D470"/>
<stop offset="0.44756" stop-color="#E5C463"/>
<stop offset="0.54713" stop-color="#D1A94E"/>
<stop offset="0.61313" stop-color="#C1933C"/>
<stop offset="0.62956" stop-color="#BE8F39"/>
<stop offset="0.78853" stop-color="#A26B1F"/>
<stop offset="0.91765" stop-color="#915410"/>
<stop offset="1" stop-color="#8B4C0A"/>
</linearGradient>
<linearGradient id="paint50_linear_2_2127" x1="92.4445" y1="81.9794" x2="71.0152" y2="139.107" gradientUnits="userSpaceOnUse">
<stop stop-color="#FFF4C7"/>
<stop offset="0.29144" stop-color="#F5DA75"/>
<stop offset="0.35909" stop-color="#F1D470"/>
<stop offset="0.44756" stop-color="#E5C463"/>
<stop offset="0.54713" stop-color="#D1A94E"/>
<stop offset="0.61313" stop-color="#C1933C"/>
<stop offset="0.62956" stop-color="#BE8F39"/>
<stop offset="0.78853" stop-color="#A26B1F"/>
<stop offset="0.91765" stop-color="#915410"/>
<stop offset="1" stop-color="#8B4C0A"/>
</linearGradient>
<linearGradient id="paint51_linear_2_2127" x1="136.625" y1="121.727" x2="136.625" y2="175" gradientUnits="userSpaceOnUse">
<stop stop-color="#CA9F46"/>
<stop offset="0.223958" stop-color="#FFE770"/>
<stop offset="0.619792" stop-color="#D4AD51"/>
<stop offset="1" stop-color="#90530F"/>
</linearGradient>
<linearGradient id="paint52_linear_2_2127" x1="144.413" y1="136" x2="144.413" y2="203.344" gradientUnits="userSpaceOnUse">
<stop stop-color="#CA9F46"/>
<stop offset="0.223958" stop-color="#FFE770"/>
<stop offset="0.619792" stop-color="#D4AD51"/>
<stop offset="1" stop-color="#90530F"/>
</linearGradient>
</defs>
</svg>
