<svg width="41" height="41" viewBox="0 0 41 41" fill="none" xmlns="http://www.w3.org/2000/svg">
<path d="M37.3592 26.5886C37.3594 26.1704 37.4705 25.7598 37.6813 25.3986C37.7438 25.2942 37.8121 25.1933 37.8858 25.0965C39.6362 22.4925 40.5719 19.4264 40.5737 16.2887C40.603 7.29575 33.0144 0 23.6316 0C15.4492 0 8.62042 5.56927 7.02077 12.9626C6.78154 14.0585 6.66064 15.177 6.66016 16.2987C6.66694 18.4784 7.10434 20.6352 7.94725 22.6454C8.79015 24.6555 10.0219 26.4793 11.5718 28.0119C13.1217 29.5445 14.9592 30.7558 16.9786 31.5761C18.9981 32.3964 21.1597 32.8096 23.3393 32.792C24.8984 32.722 26.444 32.4705 27.9448 32.0427C29.0471 31.7406 30.1395 31.3414 30.4223 31.2333C30.7123 31.1239 31.0195 31.0676 31.3294 31.0673C31.6676 31.066 32.0026 31.1324 32.3148 31.2625L37.8449 33.2227C37.9662 33.2741 38.0944 33.307 38.2254 33.3203C38.328 33.3209 38.4297 33.3011 38.5246 33.2621C38.6195 33.223 38.7058 33.1656 38.7783 33.093C38.8509 33.0205 38.9083 32.9342 38.9473 32.8393C38.9864 32.7444 39.0062 32.6427 39.0056 32.5401C38.9989 32.4507 38.9827 32.3624 38.9571 32.2765L37.3592 26.5886Z" fill="url(#paint0_linear_13_2570)"/>
<path d="M26.3841 33.602C26.0334 33.6996 25.5845 33.8066 25.0983 33.9141C24.0089 34.163 22.8987 34.31 21.7821 34.353C19.6021 34.3711 17.44 33.9582 15.4201 33.1381C13.4002 32.3179 11.5624 31.1067 10.0121 29.574C8.46181 28.0412 7.22972 26.2172 6.38664 24.2068C5.54355 22.1964 5.10609 20.0392 5.09939 17.8591C5.10855 17.1612 5.15734 16.4644 5.2455 15.772C5.30395 15.3524 5.37233 14.9333 5.46993 14.5236C5.56753 14.0847 5.68442 13.647 5.81125 13.2168L5.031 13.9094C3.46172 15.2638 2.20076 16.9387 1.33295 18.8213C0.465151 20.7039 0.0106454 22.7505 1.86773e-05 24.8235C-0.00457275 27.6703 0.837463 30.4541 2.41908 32.8212C2.64351 33.1625 2.76975 33.4261 2.73118 33.6014C2.6926 33.7767 1.57045 39.6493 1.57045 39.6493C1.54319 39.7867 1.55327 39.9288 1.59963 40.0609C1.646 40.193 1.72694 40.3102 1.83404 40.4004C1.97504 40.5137 2.1505 40.5756 2.33141 40.5757C2.42873 40.5761 2.52507 40.5562 2.61428 40.5173L8.08595 38.3618C8.27247 38.2879 8.47174 38.2516 8.67233 38.2549C8.87291 38.2582 9.07088 38.3011 9.25486 38.3811C11.1392 39.1332 13.1466 39.5296 15.1754 39.55C17.4014 39.5587 19.6025 39.0821 21.6256 38.1535C23.6486 37.2249 25.445 35.8666 26.8896 34.173C26.8896 34.173 27.2017 33.744 27.5629 33.2379C27.2035 33.3676 26.7938 33.4956 26.3841 33.602Z" fill="url(#paint1_linear_13_2570)"/>
<defs>
<linearGradient id="paint0_linear_13_2570" x1="23.617" y1="0" x2="23.617" y2="33.3204" gradientUnits="userSpaceOnUse">
<stop stop-color="#E39419"/>
<stop offset="0.478125" stop-color="#FFF08D"/>
<stop offset="1" stop-color="#CC9331"/>
</linearGradient>
<linearGradient id="paint1_linear_13_2570" x1="13.7815" y1="13.2168" x2="13.7815" y2="40.5757" gradientUnits="userSpaceOnUse">
<stop stop-color="#E39419"/>
<stop offset="0.478125" stop-color="#FFF08D"/>
<stop offset="1" stop-color="#CC9331"/>
</linearGradient>
</defs>
</svg>
