<svg width="94" height="111" viewBox="0 0 94 111" fill="none" xmlns="http://www.w3.org/2000/svg">
<path d="M89.1645 30.8333C83.4837 15.5083 66.7563 4.40475 46.9998 4.40475C27.2434 4.40475 10.5159 15.5083 4.83521 30.8333" stroke="#562710" stroke-miterlimit="10"/>
<path d="M89.1648 5.28571C90.1351 5.28571 90.9217 4.69409 90.9217 3.96428C90.9217 3.23448 90.1351 2.64285 89.1648 2.64285C88.1945 2.64285 87.408 3.23448 87.408 3.96428C87.408 4.69409 88.1945 5.28571 89.1648 5.28571Z" fill="#562710"/>
<path d="M4.83548 5.28571C5.80576 5.28571 6.59233 4.69409 6.59233 3.96428C6.59233 3.23448 5.80576 2.64285 4.83548 2.64285C3.86519 2.64285 3.07861 3.23448 3.07861 3.96428C3.07861 4.69409 3.86519 5.28571 4.83548 5.28571Z" fill="#562710"/>
<path d="M51.3922 0H42.6079V8.80952H51.3922V0Z" fill="#562710"/>
<path d="M9.22766 26.4286H0.443359V35.2381H9.22766V26.4286Z" fill="#562710"/>
<path d="M93.5568 26.4286H84.7725V35.2381H93.5568V26.4286Z" fill="#562710"/>
<path d="M58.4195 73.119V111H35.5803V73.119C35.5803 73.119 37.2413 75.1286 46.9999 75.1286C56.7585 75.1286 58.4195 73.119 58.4195 73.119Z" fill="#562710"/>
<g style="mix-blend-mode:multiply" opacity="0.3">
<path d="M39.094 74.4149C36.2427 73.838 35.5803 73.119 35.5803 73.119V111H39.094V74.4149Z" fill="#333333"/>
</g>
<g style="mix-blend-mode:multiply" opacity="0.3">
<path d="M47.2648 75.1286H47V111H58.4196V73.119C58.4196 73.119 56.7971 75.1286 47.2648 75.1286Z" fill="#333333"/>
</g>
<g style="mix-blend-mode:multiply" opacity="0.3">
<path d="M37.3372 74.0251C35.9511 73.5591 35.5803 73.119 35.5803 73.119V111H37.3372V74.0251Z" fill="#333333"/>
</g>
<g style="mix-blend-mode:multiply" opacity="0.3">
<path d="M53.1492 74.822V111H58.4197V73.119C58.4197 73.119 57.5283 74.2589 53.1492 74.822Z" fill="#333333"/>
</g>
<path d="M40.1822 61.6667C40.1822 50.6634 31.1885 46.2642 31.1885 42.7614C31.1885 39.2586 45.9683 16.7381 45.9683 16.7381V36.77C44.719 37.0296 43.6094 37.7493 42.8544 38.7896C42.0994 39.8299 41.7528 41.1169 41.8817 42.4011C42.0106 43.6853 42.6058 44.8754 43.5521 45.7408C44.4983 46.6062 45.7283 47.0853 47.0036 47.0853C48.279 47.0853 49.5089 46.6062 50.4552 45.7408C51.4015 44.8754 51.9967 43.6853 52.1256 42.4011C52.2545 41.1169 51.9079 39.8299 51.1529 38.7896C50.3979 37.7493 49.2882 37.0296 48.0389 36.77V16.7381C48.0389 16.7381 62.8119 39.2604 62.8119 42.7614C62.8119 46.2624 53.8182 50.6634 53.8182 61.6667" fill="url(#paint0_linear_13_1610)"/>
<g style="mix-blend-mode:multiply" opacity="0.3">
<path d="M45.9685 58.1791C43.6328 58.1979 41.3099 57.8613 39.094 57.1829C39.5266 58.6442 39.7434 60.1523 39.7385 61.6667H53.6552C53.6427 59.5569 54.067 57.4642 54.9057 55.5C52.1898 57.0978 48.9569 58.1791 45.9685 58.1791Z" fill="#808080"/>
</g>
<g style="mix-blend-mode:multiply" opacity="0.3">
<path d="M50.0747 60.4344C46.3338 60.4344 43.0092 59.6957 39.9724 58.1429C40.2756 59.2987 40.4272 60.4809 40.4244 61.6667H53.9122C53.9127 61.0708 53.9512 60.4755 54.0273 59.8833C52.7475 60.234 51.416 60.4197 50.0747 60.4344Z" fill="#808080"/>
</g>
<path d="M48.3569 16.8633C50.0142 16.1139 50.752 14.159 50.0047 12.4969C49.2574 10.8348 47.3081 10.0949 45.6508 10.8444C43.9934 11.5938 43.2557 13.5487 44.003 15.2108C44.7502 16.8729 46.6995 17.6127 48.3569 16.8633Z" fill="url(#paint1_linear_13_1610)"/>
<g style="mix-blend-mode:multiply" opacity="0.3">
<path d="M46.4501 14.7489C45.3811 14.7531 44.34 14.439 43.4863 13.8547C43.5361 14.3113 43.6934 14.7528 43.9477 15.1493C44.202 15.5458 44.5472 15.8879 44.96 16.1526C45.3728 16.4172 45.8435 16.5981 46.3401 16.6829C46.8366 16.7678 47.3475 16.7546 47.838 16.6444C48.3285 16.5341 48.7871 16.3293 49.1828 16.0439C49.5784 15.7584 49.9017 15.399 50.1309 14.9901C50.36 14.5812 50.4895 14.1323 50.5107 13.6738C50.5318 13.2154 50.4441 12.7583 50.2535 12.3333C49.5796 13.6924 48.133 14.7489 46.4501 14.7489Z" fill="#808080"/>
</g>
<g style="mix-blend-mode:multiply" opacity="0.3">
<path d="M47.3652 16.069C46.2839 16.0719 45.2307 15.8283 44.3647 15.375C44.6391 15.8131 45.1036 16.1797 45.6924 16.4226C46.2812 16.6655 46.9643 16.7725 47.6448 16.7284C48.3254 16.6842 48.9688 16.4912 49.4837 16.1767C49.9987 15.8622 50.3591 15.4422 50.5138 14.9762C49.7322 15.628 48.6133 16.069 47.3652 16.069Z" fill="#808080"/>
</g>
<path d="M53.8786 61.6667H40.1212L35.5803 72.8552C35.5803 72.8552 37.1929 74.8809 46.9999 74.8809C56.8069 74.8809 58.4195 72.8552 58.4195 72.8552L53.8786 61.6667Z" fill="url(#paint2_linear_13_1610)"/>
<path d="M46.9999 77.5238C37.4072 77.5238 34.8566 75.7789 34.2056 75.0365C33.9203 74.6875 33.7869 74.252 33.8321 73.8162C33.8773 73.3805 34.0977 72.9764 34.4495 72.6841C34.8014 72.3918 35.2591 72.2326 35.7317 72.2382C36.2044 72.2438 36.6575 72.4136 37.0012 72.7141C37.2222 72.8553 39.3309 74.0434 46.9999 74.0434C54.669 74.0434 56.7777 72.8553 56.9986 72.7141C57.3424 72.4136 57.7955 72.2438 58.2682 72.2382C58.7408 72.2326 59.1985 72.3918 59.5503 72.6841C59.9022 72.9764 60.1226 73.3805 60.1677 73.8162C60.2129 74.252 60.0796 74.6875 59.7942 75.0365C59.1433 75.7836 56.5927 77.5238 46.9999 77.5238Z" fill="url(#paint3_linear_13_1610)"/>
<defs>
<linearGradient id="paint0_linear_13_1610" x1="31.1885" y1="39.2032" x2="62.8" y2="39.2032" gradientUnits="userSpaceOnUse">
<stop stop-color="#F7C951"/>
<stop offset="0.46" stop-color="#B88C3E"/>
<stop offset="0.82" stop-color="#8F6331"/>
<stop offset="1" stop-color="#7F542C"/>
</linearGradient>
<linearGradient id="paint1_linear_13_1610" x1="43.7143" y1="13.8475" x2="50.2979" y2="13.8475" gradientUnits="userSpaceOnUse">
<stop stop-color="#F7C951"/>
<stop offset="0.46" stop-color="#B88C3E"/>
<stop offset="0.82" stop-color="#8F6331"/>
<stop offset="1" stop-color="#7F542C"/>
</linearGradient>
<linearGradient id="paint2_linear_13_1610" x1="35.5803" y1="68.2729" x2="58.4195" y2="68.2729" gradientUnits="userSpaceOnUse">
<stop stop-color="#F7C951"/>
<stop offset="0.46" stop-color="#B88C3E"/>
<stop offset="0.82" stop-color="#8F6331"/>
<stop offset="1" stop-color="#7F542C"/>
</linearGradient>
<linearGradient id="paint3_linear_13_1610" x1="46.9999" y1="77.5238" x2="46.9999" y2="72.2033" gradientUnits="userSpaceOnUse">
<stop stop-color="#F7C951"/>
<stop offset="0.46" stop-color="#B88C3E"/>
<stop offset="0.82" stop-color="#8F6331"/>
<stop offset="1" stop-color="#7F542C"/>
</linearGradient>
</defs>
</svg>
