<svg width="136" height="112" viewBox="0 0 136 112" fill="none" xmlns="http://www.w3.org/2000/svg">
<path d="M3.78108 77.9959C3.78108 77.9959 7.52643 73.5705 12.7445 72.7794C17.9627 71.9884 24.1442 69.204 24.1442 69.204L16.6168 77.7009L24.1387 80.3691C24.1387 80.3691 1.53608 80.7047 10.3157 92.4875C10.3157 92.4875 -2.13757 88.6189 3.78108 77.9959Z" fill="url(#paint0_linear_13_1391)"/>
<path d="M25.1253 19.7772C25.1253 19.7772 25.1565 15.7427 30.9722 17.7231C26.0556 22.6538 28.0487 30.1051 28.0487 30.1051C28.0487 30.1051 25.0922 23.9501 25.1253 19.7772Z" fill="#562710"/>
<path d="M81.0273 42.4007C81.0273 42.4007 28.335 36.8688 25.9962 17.7232C20.1217 32.2627 -11.7827 89.8213 25.9962 104.13C56.5106 115.692 81.0273 47.0677 81.0273 42.4007Z" fill="url(#paint1_linear_13_1391)"/>
<path d="M57.6079 66.7224C57.5785 66.6414 57.5218 66.5732 57.4476 66.5298C57.3733 66.4863 57.2863 66.4703 57.2015 66.4845C45.9213 68.476 42.7037 63.3646 41.788 60.3184C41.7633 60.2388 41.7124 60.1699 41.6436 60.123C41.5748 60.0761 41.4922 60.054 41.4093 60.0602C41.3268 60.0682 41.2494 60.1039 41.1897 60.1614C41.13 60.219 41.0914 60.2951 41.0801 60.3774C39.1128 75.9089 52.3842 69.9493 57.4442 67.1613C57.518 67.1185 57.5746 67.0513 57.6045 66.9712C57.6343 66.8912 57.6355 66.8032 57.6079 66.7224Z" fill="#562710"/>
<path d="M23.8546 53.1105C14.2237 54.0325 14.7551 44.0402 14.7551 44.0402L13.5268 47.4699C13.1591 58.1426 20.591 55.5666 24.055 53.7964C24.1253 53.7547 24.1798 53.6906 24.2098 53.6144C24.2398 53.5381 24.2436 53.454 24.2206 53.3754C24.1976 53.2967 24.1492 53.2279 24.0829 53.18C24.0166 53.132 23.9363 53.1076 23.8546 53.1105Z" fill="#562710"/>
<path d="M25.7849 73.1355C20.5319 69.1839 13.7822 71.2344 10.8422 72.4495C10.257 72.6907 9.7641 73.1133 9.43563 73.6556C9.10717 74.1979 8.96035 74.8314 9.01664 75.4633C9.07294 76.0953 9.3294 76.6926 9.74852 77.1679C10.1676 77.6432 10.7274 77.9715 11.3459 78.1049C14.5507 78.7945 19.664 77.9205 21.2269 78.6581C23.8985 79.9193 28.9272 88.2742 33.408 88.0363C37.8888 87.7985 32.7001 78.3354 25.7849 73.1355Z" fill="#562710"/>
<path d="M37.6903 100.3C37.6502 100.294 37.6132 100.275 37.585 100.246C37.5568 100.217 37.539 100.179 37.5344 100.139C37.5298 100.099 37.5386 100.058 37.5595 100.023C37.5803 99.9882 37.6121 99.9612 37.6498 99.9464C43.8056 98.5597 50.3035 93.5866 56.9649 85.169C56.9766 85.1437 56.9939 85.1213 57.0154 85.1036C57.037 85.0859 57.0623 85.0734 57.0894 85.0669C57.1165 85.0605 57.1447 85.0603 57.1719 85.0664C57.1991 85.0725 57.2246 85.0847 57.2464 85.1021C57.2682 85.1195 57.2857 85.1416 57.2978 85.1668C57.3098 85.192 57.3159 85.2197 57.3157 85.2476C57.3155 85.2755 57.309 85.3031 57.2967 85.3281C57.2843 85.3531 57.2664 85.3751 57.2444 85.3922C50.5315 93.8743 43.9656 98.8916 37.7289 100.297C37.7162 100.3 37.7032 100.301 37.6903 100.3Z" fill="#7F381F"/>
<path d="M62.2966 78.2341C62.2619 78.2343 62.2279 78.224 62.1991 78.2046C62.1598 78.1776 62.1325 78.1364 62.1229 78.0896C62.1133 78.0429 62.1222 77.9942 62.1477 77.9538C66.0106 72.0379 69.4289 65.8417 72.3743 59.4167C72.3989 59.3828 72.4343 59.3583 72.4747 59.3473C72.5151 59.3363 72.558 59.3394 72.5964 59.3562C72.6347 59.3729 72.6663 59.4023 72.6857 59.4395C72.7052 59.4766 72.7114 59.5193 72.7034 59.5605C69.7495 66.0047 66.3214 72.2193 62.4474 78.153C62.4307 78.1777 62.4082 78.1981 62.382 78.2122C62.3557 78.2263 62.3264 78.2339 62.2966 78.2341Z" fill="#7F381F"/>
<path d="M131.027 110.722C131.027 110.722 125.673 112.935 120.678 111.233C115.682 109.531 108.91 109.17 108.91 109.17L119.482 105.08L114.018 99.2473C114.018 99.2473 134.256 109.348 131.853 94.8385C131.851 94.8385 141.147 104.007 131.027 110.722Z" fill="url(#paint2_linear_13_1391)"/>
<path d="M111.818 2.60109C111.818 2.60109 111.786 -1.43345 105.973 0.546943C110.887 5.46842 108.894 12.9272 108.894 12.9272C108.894 12.9272 111.849 6.76471 111.818 2.60109Z" fill="url(#paint3_linear_13_1391)"/>
<path d="M55.9141 25.2151C55.9141 25.2151 110.732 21.6692 110.945 0.537659C116.82 15.0771 148.724 72.6357 110.945 86.9465C80.4344 98.5062 55.9141 29.8913 55.9141 25.2151Z" fill="url(#paint4_linear_13_1391)"/>
<path d="M84.0351 48.0323C84.0116 48.1108 84.0148 48.1949 84.0442 48.2713C84.0736 48.3478 84.1275 48.4122 84.1975 48.4545C84.2675 48.4968 84.3495 48.5145 84.4307 48.5048C84.5118 48.4952 84.5874 48.4587 84.6456 48.4011C92.1418 39.7143 97.8527 41.6431 100.482 43.4225C100.551 43.4684 100.634 43.4894 100.717 43.482C100.8 43.4746 100.878 43.4394 100.938 43.3819C100.997 43.3235 101.034 43.247 101.044 43.1647C101.054 43.0824 101.036 42.9991 100.993 42.9283C92.7541 29.6464 86.2011 42.6701 84.0351 48.0323Z" fill="#562710"/>
<path d="M124.516 33.996L124.046 33.4962C123.254 32.6562 122.294 31.9933 121.229 31.5509C113.569 28.359 112.655 35.3789 112.668 39.0078C112.673 39.0895 112.706 39.1672 112.76 39.2284C112.814 39.2897 112.887 39.3311 112.968 39.3461C113.048 39.3611 113.131 39.3488 113.204 39.3113C113.276 39.2737 113.334 39.213 113.369 39.1387C116.031 32.3032 121.63 33.4852 124.2 34.468C124.262 34.493 124.331 34.4958 124.394 34.4761C124.458 34.4564 124.513 34.4153 124.55 34.3598C124.587 34.3042 124.604 34.2375 124.598 34.171C124.592 34.1044 124.563 34.0419 124.516 33.9941V33.996Z" fill="#562710"/>
<path d="M116.625 66.0735C123.128 65.1681 125.129 58.683 126.37 55.7474C126.616 55.1627 126.67 54.5142 126.522 53.8967C126.375 53.2793 126.034 52.7254 125.55 52.3162C125.066 51.9071 124.464 51.6641 123.833 51.6228C123.201 51.5816 122.572 51.7444 122.04 52.0872C119.282 53.8611 119.692 55.8175 114.558 57.8458C111.811 58.9319 102.423 57.2926 99.4076 60.6209C96.3922 63.9492 108.062 67.2628 116.625 66.0735Z" fill="#562710"/>
<path d="M92.5509 79.678C92.5126 79.6778 92.4753 79.6655 92.4443 79.643C88.2153 76.4972 84.1703 72.3815 80.4378 67.4103C80.4208 67.3721 80.4173 67.3293 80.4278 67.2888C80.4382 67.2484 80.4621 67.2127 80.4954 67.1877C80.5287 67.1626 80.5696 67.1496 80.6112 67.1509C80.6529 67.1521 80.6929 67.1675 80.7246 67.1945C84.4424 72.1363 88.458 76.2298 92.6575 79.3535C92.695 79.3827 92.7197 79.4253 92.7266 79.4724C92.7334 79.5194 92.7219 79.5674 92.6943 79.6061C92.6774 79.6282 92.6557 79.6461 92.6308 79.6586C92.606 79.671 92.5787 79.6777 92.5509 79.678Z" fill="#7F381F"/>
<path d="M76.758 61.9261C76.7278 61.9267 76.698 61.9194 76.6716 61.9048C76.6451 61.8902 76.6229 61.869 76.6072 61.8432C67.1859 46.9994 62.9883 30.9479 62.9478 30.7875C62.9346 30.7629 62.9271 30.7357 62.9259 30.7077C62.9248 30.6798 62.9299 30.652 62.9411 30.6264C62.9522 30.6008 62.969 30.578 62.9901 30.5599C63.0113 30.5417 63.0363 30.5286 63.0633 30.5216C63.0902 30.5145 63.1184 30.5137 63.1458 30.5192C63.1731 30.5247 63.1988 30.5363 63.221 30.5532C63.2431 30.5701 63.2612 30.5919 63.2738 30.6168C63.2863 30.6418 63.2931 30.6692 63.2935 30.6972C63.3358 30.8576 67.5224 46.8556 76.8996 61.6514C76.9238 61.6916 76.9317 61.7396 76.9218 61.7855C76.9119 61.8315 76.8849 61.8719 76.8462 61.8985C76.8197 61.9151 76.7893 61.9246 76.758 61.9261Z" fill="#7F381F"/>
<path d="M3.77985 77.9961C4.6146 76.6408 -5.38403 98.3385 35.4213 94.6745C50.5811 93.3137 59.767 87.8096 78.8689 80.5352C90.9029 75.953 109.65 73.3291 121.421 80.6458C128.224 84.8758 134.227 95.0286 135.865 102.79C131.594 96.6734 121.577 91.9234 114.677 90.0942C101.725 86.6645 89.0937 93.4502 77.3648 98.0748C67.5335 101.947 57.6213 105.948 47.3947 108.648C36.6955 111.469 24.0621 112.705 13.1166 110.405C-1.40149 107.355 -2.83013 88.7278 3.77985 77.9961Z" fill="url(#paint5_linear_13_1391)"/>
<defs>
<linearGradient id="paint0_linear_13_1391" x1="2.18512" y1="80.8448" x2="24.1387" y2="80.8448" gradientUnits="userSpaceOnUse">
<stop offset="0.63" stop-color="#7F542C"/>
<stop offset="0.79" stop-color="#81562D"/>
<stop offset="0.85" stop-color="#885C2F"/>
<stop offset="0.89" stop-color="#936832"/>
<stop offset="0.92" stop-color="#A47838"/>
<stop offset="0.95" stop-color="#BA8E3E"/>
<stop offset="0.98" stop-color="#D5A847"/>
<stop offset="1" stop-color="#F7C951"/>
</linearGradient>
<linearGradient id="paint1_linear_13_1391" x1="120.992" y1="197.087" x2="34.4912" y2="47.6919" gradientUnits="userSpaceOnUse">
<stop stop-color="#7F542C"/>
<stop offset="0.18" stop-color="#83582D"/>
<stop offset="0.36" stop-color="#906431"/>
<stop offset="0.55" stop-color="#A47837"/>
<stop offset="0.74" stop-color="#C19440"/>
<stop offset="0.92" stop-color="#E6B84C"/>
<stop offset="1" stop-color="#F7C951"/>
</linearGradient>
<linearGradient id="paint2_linear_13_1391" x1="108.916" y1="103.357" x2="135.749" y2="103.357" gradientUnits="userSpaceOnUse">
<stop offset="0.63" stop-color="#7F542C"/>
<stop offset="0.79" stop-color="#81562D"/>
<stop offset="0.85" stop-color="#885C2F"/>
<stop offset="0.89" stop-color="#936832"/>
<stop offset="0.92" stop-color="#A47838"/>
<stop offset="0.95" stop-color="#BA8E3E"/>
<stop offset="0.98" stop-color="#D5A847"/>
<stop offset="1" stop-color="#F7C951"/>
</linearGradient>
<linearGradient id="paint3_linear_13_1391" x1="140.508" y1="16.1467" x2="77.7677" y2="-3.13918" gradientUnits="userSpaceOnUse">
<stop stop-color="#E92556"/>
<stop offset="1" stop-color="#F9C342"/>
</linearGradient>
<linearGradient id="paint4_linear_13_1391" x1="13.2185" y1="110.066" x2="104.283" y2="41.5214" gradientUnits="userSpaceOnUse">
<stop stop-color="#7F542C"/>
<stop offset="0.18" stop-color="#8F6331"/>
<stop offset="0.54" stop-color="#B88C3E"/>
<stop offset="1" stop-color="#F7C951"/>
</linearGradient>
<linearGradient id="paint5_linear_13_1391" x1="-0.000435761" y1="93.8429" x2="135.865" y2="93.8429" gradientUnits="userSpaceOnUse">
<stop stop-color="#7F542C"/>
<stop offset="0.43" stop-color="#81562D"/>
<stop offset="0.59" stop-color="#885C2F"/>
<stop offset="0.7" stop-color="#936832"/>
<stop offset="0.79" stop-color="#A47838"/>
<stop offset="0.87" stop-color="#BA8E3E"/>
<stop offset="0.94" stop-color="#D5A847"/>
<stop offset="1" stop-color="#F7C951"/>
</linearGradient>
</defs>
</svg>
