<svg width="129" height="130" viewBox="0 0 129 130" fill="none" xmlns="http://www.w3.org/2000/svg">
<g filter="url(#filter0_d_13_1785)">
<path d="M58.5337 117.404C90.861 117.404 117.067 91.122 117.067 58.7018C117.067 26.2817 90.861 0 58.5337 0C26.2064 0 0 26.2817 0 58.7018C0 91.122 26.2064 117.404 58.5337 117.404Z" fill="url(#paint0_linear_13_1785)"/>
<path d="M58.5338 108.521C85.9696 108.521 108.211 86.2164 108.211 58.7018C108.211 31.1872 85.9696 8.88225 58.5338 8.88225C31.098 8.88225 8.85693 31.1872 8.85693 58.7018C8.85693 86.2164 31.098 108.521 58.5338 108.521Z" fill="url(#paint1_linear_13_1785)"/>
<path d="M84.5253 16.1806C89.6423 24.1889 92.3549 33.5041 92.3396 43.0155C92.3396 70.5234 70.0992 92.835 42.6627 92.835C33.486 92.8489 24.4865 90.3015 16.6714 85.4777C21.1618 92.5275 27.3512 98.3289 34.6679 102.346C41.9845 106.363 50.1926 108.467 58.534 108.462C85.9705 108.462 108.211 86.1507 108.211 58.6429C108.215 50.1242 106.04 41.7469 101.893 34.3124C97.7456 26.8779 91.7658 20.6349 84.5253 16.1806Z" fill="url(#paint2_linear_13_1785)"/>
<path d="M63.3769 27.8711V33.7017C65.7058 34.0778 67.6137 34.8511 69.1006 36.0213C70.5875 37.1916 72.0014 38.9864 73.3424 41.4056L67.558 44.6473C65.8186 41.4757 63.5448 39.8893 60.7365 39.8881C58.9972 39.8881 57.5538 40.4038 56.4065 41.4351C55.8531 41.9138 55.412 42.509 55.1145 43.1784C54.817 43.8478 54.6705 44.5747 54.6855 45.3074C54.6855 46.7162 55.1501 47.884 56.0792 48.8109C56.99 49.723 58.8286 50.8042 61.5952 52.0544C63.6323 52.9596 65.6131 53.9873 67.5267 55.1319C69.0883 56.0945 70.2651 57.0214 71.0569 57.9126C73.2915 60.3331 74.4082 63.2582 74.407 66.6879C74.407 70.0586 73.3988 73.0329 71.3824 75.6107C69.3856 78.1701 66.7165 79.8954 63.375 80.7867V86.9436H58.1863V80.9655C54.3104 80.3312 51.3538 78.9925 49.3166 76.9494C47.2794 74.9063 45.7772 71.7538 44.8101 67.4919L51.3336 66.1237C52.2235 69.1367 53.3114 71.2879 54.5973 72.5774C55.9456 73.8067 57.7352 74.4214 59.9661 74.4214C62.1394 74.4214 63.9585 73.7176 65.4233 72.3101C66.8672 70.921 67.5886 69.1262 67.5874 66.9258C67.5874 64.9589 66.9843 63.3823 65.7781 62.1961C64.941 61.4572 64.0318 60.8049 63.0643 60.2489C61.5817 59.3761 60.052 58.5863 58.4823 57.8831C54.6469 56.1621 52.1261 54.5757 50.9199 53.1239C49.0004 50.9628 48.0412 48.3751 48.0424 45.3609C48.0298 44.0024 48.2609 42.6527 48.7246 41.3761C49.1765 40.1508 49.8448 39.0171 50.6974 38.0294C51.6058 36.987 52.6838 36.1067 53.8857 35.4257C55.2352 34.6594 56.6819 34.0795 58.1863 33.7017V27.8711H63.3769Z" fill="#562710"/>
</g>
<defs>
<filter id="filter0_d_13_1785" x="0" y="0" width="128.067" height="129.404" filterUnits="userSpaceOnUse" color-interpolation-filters="sRGB">
<feFlood flood-opacity="0" result="BackgroundImageFix"/>
<feColorMatrix in="SourceAlpha" type="matrix" values="0 0 0 0 0 0 0 0 0 0 0 0 0 0 0 0 0 0 127 0" result="hardAlpha"/>
<feOffset dx="7" dy="8"/>
<feGaussianBlur stdDeviation="2"/>
<feComposite in2="hardAlpha" operator="out"/>
<feColorMatrix type="matrix" values="0 0 0 0 0 0 0 0 0 0 0 0 0 0 0 0 0 0 0.25 0"/>
<feBlend mode="normal" in2="BackgroundImageFix" result="effect1_dropShadow_13_1785"/>
<feBlend mode="normal" in="SourceGraphic" in2="effect1_dropShadow_13_1785" result="shape"/>
</filter>
<linearGradient id="paint0_linear_13_1785" x1="0" y1="58.7018" x2="117.067" y2="58.7018" gradientUnits="userSpaceOnUse">
<stop stop-color="#F7C951"/>
<stop offset="1" stop-color="#7F542C"/>
</linearGradient>
<linearGradient id="paint1_linear_13_1785" x1="108.211" y1="58.7018" x2="8.85693" y2="58.7018" gradientUnits="userSpaceOnUse">
<stop stop-color="#F7C951"/>
<stop offset="0.46" stop-color="#B88C3E"/>
<stop offset="0.82" stop-color="#8F6331"/>
<stop offset="1" stop-color="#7F542C"/>
</linearGradient>
<linearGradient id="paint2_linear_13_1785" x1="16.6714" y1="62.3215" x2="108.211" y2="62.3215" gradientUnits="userSpaceOnUse">
<stop offset="0.63" stop-color="#7F542C"/>
<stop offset="0.79" stop-color="#81562D"/>
<stop offset="0.85" stop-color="#885C2F"/>
<stop offset="0.89" stop-color="#936832"/>
<stop offset="0.92" stop-color="#A47838"/>
<stop offset="0.95" stop-color="#BA8E3E"/>
<stop offset="0.98" stop-color="#D5A847"/>
<stop offset="1" stop-color="#F7C951"/>
</linearGradient>
</defs>
</svg>
