<svg width="62" height="114" viewBox="0 0 62 114" fill="none" xmlns="http://www.w3.org/2000/svg">
<path d="M53.2974 0.400208L45.7957 2.11876V4.07887V10.5179C45.562 10.4288 45.3127 10.3884 45.063 10.3992C44.8132 10.4099 44.5683 10.4717 44.3432 10.5806C43.5084 10.9494 43.0561 11.7626 43.3337 12.3895C43.6114 13.0164 44.5123 13.2248 45.3562 12.856C45.9501 12.5905 46.3454 12.1019 46.4263 11.6169V11.5874C46.442 11.4847 46.442 11.3803 46.4263 11.2776V3.92767L52.6631 2.43408V8.9229C52.4268 8.83152 52.1743 8.78978 51.9213 8.80024C51.6683 8.81071 51.4201 8.87317 51.1922 8.98375C50.3556 9.35254 49.9051 10.1657 50.1809 10.7927C50.4567 11.4196 51.3613 11.628 52.2034 11.2573C52.9003 10.9475 53.3232 10.3354 53.2864 9.78217V2.28287L53.2974 0.400208Z" fill="#562710"/>
<path d="M61.6027 0L57.6459 0.909064V1.94536V5.35111C57.5223 5.30395 57.3904 5.28257 57.2582 5.28827C57.1261 5.29398 56.9965 5.32666 56.8774 5.38431C56.4361 5.57976 56.197 6.0094 56.3423 6.34131C56.4876 6.67322 56.9656 6.78201 57.4087 6.58655C57.5488 6.53139 57.6735 6.44303 57.7721 6.32904C57.8707 6.21505 57.9403 6.0788 57.975 5.93195V5.91721C57.9824 5.86275 57.9824 5.80755 57.975 5.75309V1.86607L61.2717 1.07502V4.50844C61.1474 4.46052 61.0146 4.43859 60.8815 4.44398C60.7484 4.44937 60.6178 4.48197 60.4977 4.53978C60.0564 4.73708 59.8174 5.16488 59.9645 5.49679C60.1116 5.8287 60.5878 5.93933 61.0309 5.74387C61.1928 5.68459 61.3335 5.5785 61.4353 5.43901C61.5371 5.29952 61.5954 5.13289 61.6027 4.9602V0.995729V0Z" fill="#562710"/>
<path d="M60.016 8.43793L56.0482 9.34699V10.3833V13.7872C55.924 13.7409 55.7919 13.72 55.6596 13.7257C55.5273 13.7314 55.3975 13.7636 55.2778 13.8204C54.8365 14.0177 54.5975 14.4455 54.7446 14.7774C54.8917 15.1093 55.3679 15.2199 55.811 15.0245C55.9511 14.9693 56.0757 14.881 56.1744 14.767C56.273 14.653 56.3426 14.5167 56.3773 14.3699V14.3533C56.3854 14.2989 56.3854 14.2436 56.3773 14.1892V10.304L59.6758 9.51294V12.9519C59.5515 12.904 59.4187 12.882 59.2856 12.8874C59.1525 12.8928 59.0219 12.9254 58.9018 12.9832C58.4605 13.1787 58.2215 13.6083 58.3686 13.9402C58.5157 14.2722 58.9919 14.3828 59.4331 14.1855C59.8009 14.0214 60.0252 13.6968 60.005 13.4018V9.43365L60.016 8.43793Z" fill="#562710"/>
<path d="M54.6027 105.184L53.2329 99.5894L37.4205 99.1672C30.8184 98.4916 24.165 98.4916 17.5629 99.1672H2.07775L0.222548 105.702C0.200599 105.82 0.189522 105.94 0.189453 106.06C0.189453 110.146 12.4129 113.458 27.4935 113.458C42.5742 113.458 54.7995 110.139 54.7995 106.06C54.7952 105.757 54.7282 105.459 54.6027 105.184Z" fill="#562710"/>
<path d="M27.6137 107.013C41.7744 107.013 53.2538 103.834 53.2538 99.9137C53.2538 95.9929 41.7744 92.8145 27.6137 92.8145C13.4531 92.8145 1.97363 95.9929 1.97363 99.9137C1.97363 103.834 13.4531 107.013 27.6137 107.013Z" fill="url(#paint0_linear_13_1850)"/>
<path d="M31.5997 89.3242H23.4471L22.377 96.4234C22.377 96.9766 24.6808 97.4081 27.5252 97.4081C30.3696 97.4081 32.6734 96.9673 32.6734 96.4234L31.5997 89.3242Z" fill="#562710"/>
<path d="M27.4721 89.9823C29.8076 89.9823 31.701 89.6198 31.701 89.1728C31.701 88.7257 29.8076 88.3633 27.4721 88.3633C25.1365 88.3633 23.2432 88.7257 23.2432 89.1728C23.2432 89.6198 25.1365 89.9823 27.4721 89.9823Z" fill="#D2A545"/>
<path d="M30.3822 57.7946L24.2539 59.0854V89.1232C25.0114 89.3592 25.6182 89.5325 27.3116 89.5325C29.005 89.5325 30.373 89.2983 30.373 89.1471C30.3717 89.1382 30.3679 89.1299 30.3619 89.1232H30.3748L30.3822 57.7946Z" fill="#D2A545"/>
<path d="M25.8369 61.3276V86.4052" stroke="#562710" stroke-miterlimit="10"/>
<path d="M39.3954 51.706C39.3954 51.706 39.6473 54.0404 37.428 55.0158C34.5229 56.29 25.1697 58.6576 23.6381 58.5193C22.5054 58.4124 20.5123 56.1074 20.3395 55.545C19.5728 53.1645 18.6461 28.8079 18.6461 28.8079C18.6461 28.1785 18.3968 27.5749 17.953 27.1298C17.5092 26.6848 16.9073 26.4348 16.2797 26.4348C15.6521 26.4348 15.0502 26.6848 14.6065 27.1298C14.1627 27.5749 13.9134 28.1785 13.9134 28.8079V29.7299L13.8711 29.7188C13.8711 29.7188 14.1303 47.5681 14.3491 54.317C14.3951 55.7921 15.3181 58.0768 18.2986 59.9908C20.8727 61.6503 24.1253 61.3664 25.2855 61.2539C26.328 61.1525 32.5611 59.7326 36.8488 58.2206C42.898 56.0872 42.42 50.9942 42.42 50.9942L39.3954 51.706Z" fill="#D4A746"/>
<path d="M37.2972 8.73477C37.2972 8.73477 37.9022 8.29406 37.6153 7.6911C35.7914 3.85939 35.4439 3.68421 31.9725 1.7702C30.4298 0.918305 26.6882 0.0553396 24.0993 0.143849C17.7523 0.363278 7.95039 4.17839 3.12207 9.41702C-1.29071 14.2113 0.266634 18.8211 0.266634 18.8211C0.266634 18.8211 9.40477 48.5897 17.7339 56.2273C19.7564 58.0712 22.9373 57.5955 24.6215 57.3005C29.9536 56.3785 43.4641 53.1055 47.7169 46.1557C48.5811 44.7432 48.4046 42.737 47.4724 39.0159C47.2297 38.0497 46.4869 37.8838 46.4869 37.8838L37.2972 8.73477Z" fill="url(#paint1_linear_13_1850)"/>
<mask id="mask0_13_1850" style="mask-type:luminance" maskUnits="userSpaceOnUse" x="0" y="0" width="49" height="58">
<path d="M37.2972 8.73477C37.2972 8.73477 37.9022 8.29406 37.6153 7.6911C35.7914 3.85939 35.4439 3.68421 31.9725 1.7702C30.4298 0.918305 26.6882 0.0553396 24.0993 0.143849C17.7523 0.363278 7.95039 4.17839 3.12207 9.41702C-1.29071 14.2113 0.266634 18.8211 0.266634 18.8211C0.266634 18.8211 9.40477 48.5897 17.7339 56.2273C19.7564 58.0712 22.9373 57.5955 24.6215 57.3005C29.9536 56.3785 43.4641 53.1055 47.7169 46.1557C48.5811 44.7432 48.4046 42.737 47.4724 39.0159C47.2297 38.0497 46.4869 37.8838 46.4869 37.8838L37.2972 8.73477Z" fill="white"/>
</mask>
<g mask="url(#mask0_13_1850)">
<path d="M19.2726 1.18412C19.2726 1.18412 7.45001 2.62609 7.77546 12.3344C8.14319 22.7158 18.5757 40.2056 23.0198 49.5083C27.2248 58.3094 38.0104 56.4894 38.0104 56.4894C38.0104 56.4894 16.9301 66.0097 10.8846 62.5744C-1.95657 55.2779 -7.67664 6.37482 -7.67664 6.37482L18.7375 -2.75269L19.2726 1.18412Z" fill="url(#paint2_linear_13_1850)"/>
</g>
<path d="M0.549805 19.756L5.18323 18.0319C5.29466 17.9891 5.4134 17.9688 5.53266 17.9721C5.65193 17.9753 5.76938 18.0022 5.87832 18.051C5.98725 18.0998 6.08554 18.1696 6.16755 18.2565C6.24956 18.3434 6.31369 18.4457 6.35629 18.5574L6.64312 19.3319C6.68363 19.4447 6.70148 19.5644 6.69565 19.6842C6.68982 19.804 6.66043 19.9214 6.60916 20.0297C6.55789 20.138 6.48575 20.2351 6.39691 20.3153C6.30808 20.3956 6.20429 20.4574 6.09152 20.4973L1.32939 22.2693" fill="#562710"/>
<path d="M2.25977 24.7125L6.89871 22.9884C7.01014 22.9456 7.12887 22.9253 7.24814 22.9286C7.36741 22.9318 7.48486 22.9586 7.5938 23.0074C7.70273 23.0562 7.80101 23.1261 7.88302 23.213C7.96504 23.2999 8.02917 23.4021 8.07177 23.5139L8.3586 24.2884C8.39911 24.4012 8.41696 24.5209 8.41113 24.6407C8.4053 24.7604 8.3759 24.8779 8.32463 24.9862C8.27336 25.0945 8.20123 25.1916 8.1124 25.2718C8.02356 25.3521 7.91977 25.4139 7.807 25.4537L3.04671 27.2258" fill="#562710"/>
<path d="M3.97168 29.669L8.60694 27.945C8.71822 27.902 8.83688 27.8815 8.95608 27.8847C9.07529 27.8878 9.19269 27.9146 9.30154 27.9634C9.41039 28.0123 9.50853 28.0822 9.59033 28.1692C9.67213 28.2563 9.73597 28.3586 9.77817 28.4705L10.065 29.2449C10.1055 29.3578 10.1234 29.4775 10.1175 29.5973C10.1117 29.717 10.0823 29.8344 10.031 29.9427C9.97976 30.0511 9.90763 30.1481 9.81879 30.2284C9.72996 30.3086 9.62617 30.3705 9.5134 30.4103L4.75311 32.1823" fill="#562710"/>
<path d="M5.75 34.5942L10.3172 32.9015C10.4285 32.8577 10.5473 32.8363 10.6669 32.8387C10.7864 32.841 10.9043 32.867 11.0138 32.9151C11.1233 32.9633 11.2222 33.0326 11.305 33.1192C11.3877 33.2058 11.4525 33.3079 11.4958 33.4196L11.7826 34.1941C11.8229 34.3069 11.8406 34.4266 11.8346 34.5463C11.8287 34.666 11.7992 34.7833 11.748 34.8916C11.6967 34.9998 11.6247 35.0969 11.536 35.1772C11.4473 35.2575 11.3437 35.3194 11.231 35.3595L6.73736 37.0374" fill="#562710"/>
<path d="M7.77832 39.4398L12.0293 37.8577C12.1407 37.815 12.2595 37.7946 12.3787 37.7979C12.498 37.8012 12.6155 37.828 12.7244 37.8768C12.8333 37.9256 12.9316 37.9954 13.0136 38.0823C13.0956 38.1692 13.1598 38.2715 13.2024 38.3832L13.4892 39.1577C13.5297 39.2705 13.5476 39.3902 13.5417 39.51C13.5359 39.6298 13.5065 39.7472 13.4552 39.8555C13.404 39.9638 13.3318 40.0609 13.243 40.1411C13.1542 40.2214 13.0504 40.2832 12.9376 40.3231L8.762 41.883" fill="#562710"/>
<path d="M9.92871 44.2341L13.7402 42.8143C13.8515 42.7713 13.9702 42.7508 14.0894 42.754C14.2086 42.7572 14.326 42.7839 14.4348 42.8328C14.5437 42.8816 14.6418 42.9516 14.7236 43.0386C14.8054 43.1256 14.8693 43.228 14.9115 43.3398L15.1983 44.1143C15.2386 44.2271 15.2562 44.3468 15.2503 44.4665C15.2443 44.5862 15.2149 44.7035 15.1636 44.8117C15.1124 44.92 15.0404 45.0171 14.9517 45.0973C14.863 45.1776 14.7593 45.2396 14.6467 45.2796L10.9841 46.646" fill="#562710"/>
<path d="M32.543 26.335C32.7747 27.1076 32.5908 27.847 32.1312 27.9853C31.6715 28.1236 31.1107 27.6165 30.8791 26.8365C30.6474 26.0566 30.8331 25.3245 31.2927 25.1862C31.7524 25.0479 32.3132 25.5624 32.543 26.335Z" fill="#562710"/>
<path d="M38.1045 11.3661L31.5791 13.3336C31.2849 13.4221 30.9576 13.2008 30.8436 12.8394L30.4336 11.4473C30.3251 11.0785 30.4759 10.7207 30.7701 10.6322L37.3029 8.6629" fill="#562710"/>
<path d="M39.4692 15.618L33.021 17.5615C32.7269 17.65 32.3996 17.4287 32.2856 17.0673L31.8682 15.6751C31.7597 15.3063 31.9105 14.9486 32.2047 14.8601L38.64 12.9221" fill="#562710"/>
<path d="M40.9396 20.0416L34.565 21.963C34.2708 22.0515 33.9435 21.8302 33.8295 21.4688L33.4121 20.0766C33.3037 19.7078 33.4544 19.3501 33.7486 19.2616L40.0681 17.3586" fill="#562710"/>
<path d="M42.3848 24.5262L35.7876 26.514C35.4953 26.6025 35.168 26.3812 35.0522 26.0198L34.6348 24.6276C34.5263 24.2588 34.6771 23.9011 34.9713 23.8126L41.5279 21.8359" fill="#562710"/>
<path d="M43.7879 29.0217L37.0088 31.0648C36.7146 31.1533 36.3892 30.932 36.2733 30.5706L35.8633 29.1785C35.7548 28.8097 35.9056 28.4519 36.1998 28.3634L42.7932 26.3757" fill="#562710"/>
<path d="M45.2749 33.4913L38.231 35.6156C37.9368 35.7041 37.6114 35.4828 37.4955 35.1195L37.0782 33.7292C36.9697 33.3604 37.1204 33.0008 37.4146 32.9123L44.3666 30.8176" fill="#562710"/>
<path d="M46.6135 38.0073L39.4556 40.1647C39.1614 40.2532 38.836 40.0319 38.7201 39.6705L38.3028 38.2783C38.1943 37.9096 38.3451 37.5518 38.6392 37.4633L45.856 35.2875" fill="#562710"/>
<path d="M33.6476 41.4684L33.1788 40.0854C33.15 39.9998 33.1046 39.9208 33.0453 39.8528C32.9859 39.7848 32.9138 39.7293 32.8329 39.6894C32.7521 39.6495 32.6643 39.6259 32.5744 39.6202C32.4845 39.6144 32.3943 39.6265 32.3091 39.6558L32.1252 39.7148V39.6927L23.3162 42.6872C23.145 42.7474 23.0046 42.8732 22.9257 43.037C22.8468 43.2008 22.8358 43.3893 22.8952 43.5612L23.3622 44.9442C23.4212 45.117 23.546 45.2593 23.7092 45.3401C23.8725 45.421 24.0611 45.4337 24.2337 45.3757L25.2468 45.0309V45.053L33.2192 42.3424C33.3047 42.3133 33.3835 42.2676 33.4513 42.2079C33.5191 42.1482 33.5745 42.0757 33.6143 41.9945C33.6541 41.9133 33.6775 41.8251 33.6832 41.7348C33.6889 41.6445 33.6769 41.554 33.6476 41.4684Z" fill="#562710"/>
<path d="M24.4311 15.6183C24.5164 15.5894 24.5953 15.5439 24.6631 15.4844C24.731 15.425 24.7864 15.3526 24.8264 15.2716C24.8664 15.1906 24.89 15.1025 24.896 15.0124C24.902 14.9222 24.8902 14.8317 24.8613 14.7461L24.3943 13.3613C24.3357 13.1888 24.2112 13.0466 24.0481 12.966C23.885 12.8854 23.6967 12.8731 23.5246 12.9317L22.4747 13.2876L14.5005 15.9963C14.4151 16.0252 14.3363 16.0707 14.2685 16.1302C14.2007 16.1898 14.1454 16.2621 14.1056 16.3432C14.0658 16.4242 14.0423 16.5123 14.0366 16.6025C14.0308 16.6926 14.0429 16.783 14.0721 16.8685L14.5391 18.2515C14.5679 18.3371 14.6133 18.4162 14.6726 18.4842C14.7319 18.5522 14.804 18.6079 14.8848 18.648C14.9655 18.688 15.0534 18.7117 15.1433 18.7177C15.2332 18.7238 15.3234 18.7119 15.4088 18.683L15.6202 18.611L24.4311 15.6183Z" fill="#562710"/>
<path d="M24.901 20.158L25.6714 19.8962C25.7568 19.8673 25.8357 19.8218 25.9035 19.7623C25.9713 19.7028 26.0268 19.6305 26.0668 19.5495C26.1067 19.4685 26.1304 19.3804 26.1364 19.2902C26.1424 19.2 26.1306 19.1096 26.1017 19.024L25.6347 17.6392C25.5761 17.4666 25.4516 17.3244 25.2885 17.2438C25.1254 17.1633 24.9371 17.1509 24.765 17.2095L16.1674 20.1322L16.1803 20.1617L16.1325 20.1783C16.0471 20.2072 15.9682 20.2527 15.9004 20.3122C15.8326 20.3717 15.7771 20.444 15.7371 20.525C15.6972 20.606 15.6735 20.6941 15.6675 20.7842C15.6615 20.8744 15.6733 20.9649 15.7022 21.0505L16.1692 22.4334C16.2279 22.6065 16.3526 22.7491 16.516 22.83C16.6794 22.9109 16.8681 22.9235 17.0408 22.8649L24.9176 20.1893L24.901 20.158Z" fill="#562710"/>
<path d="M18.9747 27.15V27.1647L27.0226 24.4283C27.1079 24.3994 27.1868 24.3539 27.2546 24.2944C27.3225 24.2349 27.3779 24.1626 27.4179 24.0816C27.4579 24.0006 27.4815 23.9125 27.4875 23.8224C27.4935 23.7322 27.4817 23.6417 27.4528 23.5561L26.9839 22.1732C26.9551 22.0876 26.9098 22.0085 26.8504 21.9406C26.7911 21.8726 26.7189 21.8171 26.6381 21.7771C26.5573 21.7372 26.4694 21.7137 26.3795 21.7079C26.2896 21.7022 26.1995 21.7143 26.1143 21.7435L25.5884 21.9279V21.9113L17.8844 24.5316C17.799 24.5605 17.7202 24.606 17.6524 24.6655C17.5845 24.725 17.529 24.7973 17.4891 24.8783C17.4491 24.9593 17.4255 25.0474 17.4195 25.1375C17.4135 25.2277 17.4253 25.3182 17.4542 25.4038L17.9304 26.7812C17.9592 26.8668 18.0046 26.9458 18.0639 27.0138C18.1233 27.0818 18.1954 27.1373 18.2762 27.1772C18.357 27.2171 18.4449 27.2407 18.5348 27.2464C18.6247 27.2522 18.7149 27.2401 18.8001 27.2108L18.9747 27.15Z" fill="#562710"/>
<path d="M20.3798 31.6789V31.6937L28.3816 28.9739C28.467 28.9449 28.5459 28.8994 28.6137 28.84C28.6816 28.7805 28.737 28.7082 28.777 28.6272C28.8169 28.5462 28.8406 28.4581 28.8466 28.3679C28.8526 28.2777 28.8408 28.1873 28.8119 28.1017L28.3449 26.7187C28.3161 26.6331 28.2707 26.554 28.2114 26.486C28.1521 26.4179 28.08 26.3623 27.9992 26.3222C27.9184 26.2822 27.8306 26.2584 27.7407 26.2524C27.6507 26.2464 27.5605 26.2583 27.4752 26.2872L27.2453 26.3665V26.3499L19.2417 29.0697C19.1563 29.0986 19.0775 29.1441 19.0097 29.2036C18.942 29.2632 18.8866 29.3355 18.8468 29.4166C18.807 29.4976 18.7835 29.5857 18.7778 29.6759C18.772 29.766 18.7841 29.8565 18.8133 29.9419L19.2803 31.3267C19.3389 31.4993 19.4634 31.6415 19.6265 31.7221C19.7895 31.8026 19.9778 31.815 20.15 31.7564L20.3798 31.6789Z" fill="#562710"/>
<path d="M22.0344 36.1157V36.1323L29.7402 33.5121C29.8255 33.4833 29.9044 33.438 29.9722 33.3787C30.04 33.3194 30.0955 33.2473 30.1354 33.1664C30.1754 33.0856 30.1991 32.9976 30.2051 32.9076C30.2111 32.8175 30.1993 32.7272 30.1705 32.6417L29.7035 31.2569C29.6445 31.0842 29.5196 30.942 29.3562 30.8614C29.1929 30.7809 29.0043 30.7686 28.8319 30.8273L28.6481 30.89V30.8734L20.6002 33.6043C20.5149 33.6332 20.436 33.6787 20.3682 33.7381C20.3003 33.7976 20.2449 33.8699 20.2049 33.9509C20.1649 34.0319 20.1413 34.12 20.1353 34.2102C20.1293 34.3004 20.1411 34.3908 20.17 34.4764L20.637 35.8594C20.666 35.9451 20.7116 36.0241 20.7711 36.0921C20.8306 36.1601 20.9029 36.2156 20.9839 36.2556C21.0649 36.2955 21.1529 36.319 21.2429 36.3247C21.3329 36.3305 21.4232 36.3183 21.5085 36.289L22.0344 36.1157Z" fill="#562710"/>
<path d="M31.4629 37.9114L31.45 37.8819L31.4978 37.8653C31.5832 37.8364 31.6621 37.7909 31.7299 37.7314C31.7977 37.6719 31.8532 37.5996 31.8932 37.5186C31.9331 37.4376 31.9568 37.3495 31.9628 37.2593C31.9688 37.1692 31.957 37.0787 31.9281 36.9931L31.4592 35.6101C31.4304 35.5245 31.385 35.4455 31.3257 35.3775C31.2663 35.3096 31.1942 35.254 31.1134 35.2141C31.0326 35.1742 30.9447 35.1507 30.8548 35.1449C30.7649 35.1391 30.6748 35.1512 30.5895 35.1805L22.7109 37.8542L22.7219 37.8856L21.9497 38.1474C21.8643 38.1763 21.7855 38.2218 21.7177 38.2813C21.65 38.3408 21.5946 38.4132 21.5548 38.4942C21.515 38.5753 21.4915 38.6634 21.4858 38.7535C21.48 38.8437 21.4921 38.9341 21.5213 39.0196L21.9883 40.4044C22.0469 40.577 22.1714 40.7192 22.3345 40.7997C22.4975 40.8803 22.6858 40.8926 22.858 40.834L31.4629 37.9114Z" fill="#562710"/>
<path d="M6.54395 6.46672C7.73907 6.31552 9.70644 6.12559 10.589 6.37268C12.4865 6.90374 14.1744 8.86385 15.296 10.2044C15.4139 10.3411 15.5693 10.44 15.7428 10.4889C15.9164 10.5377 16.1004 10.5343 16.272 10.4791C16.4437 10.4239 16.5953 10.3193 16.7081 10.1783C16.821 10.0374 16.89 9.86623 16.9066 9.68624C17.039 7.72798 13.8655 5.15384 12.4129 4.33881C11.7473 3.97003 10.9236 3.95159 10.3684 3.99953" fill="#562710"/>
<path d="M12.5195 3.08302C13.4094 3.15678 14.292 3.28586 14.7903 3.50529C16.6289 4.31478 18.133 6.50169 19.1258 7.99528C19.5671 8.66094 20.6409 8.57796 20.7806 7.72422C21.0969 5.81021 18.1752 2.79168 16.7999 1.77567C16.6809 1.68786 16.5549 1.61015 16.423 1.54333" fill="#562710"/>
<path d="M17.2598 1.39035C17.8295 1.43844 18.3903 1.56246 18.9274 1.75914C20.7661 2.56863 22.2683 4.75739 23.2611 6.24913C23.7024 6.9148 24.778 6.83182 24.9159 5.97808C25.1973 4.27427 22.9136 1.6946 21.439 0.43335" fill="#562710"/>
<path d="M23.2334 0.147522C23.3537 0.180759 23.4716 0.222033 23.5864 0.271066C25.4251 1.08056 26.9273 3.26931 27.9201 4.76106C28.3633 5.42672 29.437 5.34559 29.5749 4.49184C29.7717 3.29882 28.7144 1.67984 27.5524 0.381703" fill="#562710"/>
<path d="M28.8667 56.4078C29.4735 55.2405 30.7164 52.7826 31.0731 51.525C31.4776 50.1089 31.4831 47.5255 31.2128 46.1536C31.1411 45.7959 30.8194 44.8628 30.0821 45.0675C29.0837 45.3533 29.2841 46.4523 29.2841 46.4523C29.2841 46.4523 29.5967 49.8839 29.3429 50.9755C29.0304 52.3271 27.3406 55.412 26.4746 56.9388" fill="#562710"/>
<path d="M36.6577 44.7138C36.586 44.356 36.2551 43.423 35.4773 43.6369C34.4219 43.9319 34.6223 45.0291 34.6223 45.0291C34.6223 45.0291 34.922 48.4643 34.6462 49.5596C34.2987 50.9371 32.4398 54.1252 31.5205 55.6336L34.295 54.8554C34.9551 53.6606 36.073 51.3372 36.4555 50.0944C36.9023 48.6727 36.9298 46.0838 36.6577 44.7138Z" fill="#562710"/>
<path d="M39.8934 52.4989C40.4817 51.1971 41.2926 49.3034 41.5482 48.2579C41.8883 46.8251 41.7762 44.2436 41.4434 42.8865C41.3569 42.5324 40.9929 41.6086 40.2666 41.8539C39.2811 42.1839 39.5311 43.2719 39.5311 43.2719C39.5311 43.2719 40 46.6868 39.7959 47.7877C39.5495 49.1227 38.0657 52.1725 37.2549 53.7694" fill="#562710"/>
<path d="M45.38 48.951C45.6852 48.2317 45.9413 47.4924 46.1468 46.7383C46.4851 45.3037 46.3747 42.7222 46.0419 41.365C45.9555 41.011 45.5915 40.089 44.8634 40.3324C43.8778 40.6643 44.1279 41.7523 44.1279 41.7523C44.1279 41.7523 44.5968 45.1654 44.3945 46.2681C44.2106 47.2878 43.2913 49.3106 42.5117 50.9203" fill="#562710"/>
<path d="M18.5084 57.5753C17.374 49.8916 17.3207 28.9131 17.3207 28.9131C17.3207 27.5909 16.2046 26.5159 14.8293 26.5159C13.454 26.5159 12.3379 27.5891 12.3379 28.9131C12.3379 28.9131 12.5089 46.3715 12.7939 54.4258C12.8472 55.901 13.7518 58.2815 16.9548 60.0996C18.5379 60.9995 21.7996 61.1746 21.7996 61.1746C21.7996 61.1746 18.7824 59.4192 18.5084 57.5753Z" fill="#562710"/>
<defs>
<linearGradient id="paint0_linear_13_1850" x1="1.97363" y1="99.9137" x2="53.2538" y2="99.9137" gradientUnits="userSpaceOnUse">
<stop stop-color="#F7C951"/>
<stop offset="0.46" stop-color="#B88C3E"/>
<stop offset="0.82" stop-color="#8F6331"/>
<stop offset="1" stop-color="#7F542C"/>
</linearGradient>
<linearGradient id="paint1_linear_13_1850" x1="2.85737e-05" y1="28.8577" x2="48.2759" y2="28.8577" gradientUnits="userSpaceOnUse">
<stop stop-color="#F7C951"/>
<stop offset="0.46" stop-color="#B88C3E"/>
<stop offset="0.82" stop-color="#8F6331"/>
<stop offset="1" stop-color="#7F542C"/>
</linearGradient>
<linearGradient id="paint2_linear_13_1850" x1="-7.67664" y1="30.2833" x2="38.0104" y2="30.2833" gradientUnits="userSpaceOnUse">
<stop stop-color="#F7C951"/>
<stop offset="0.46" stop-color="#B88C3E"/>
<stop offset="0.82" stop-color="#8F6331"/>
<stop offset="1" stop-color="#7F542C"/>
</linearGradient>
</defs>
</svg>
