<svg width="136" height="100" viewBox="0 0 136 100" fill="none" xmlns="http://www.w3.org/2000/svg">
<path d="M57.9028 90.5755C57.7098 89.5023 57.6453 88.4098 57.7107 87.3212C57.7349 86.9334 57.751 86.484 57.4572 86.231C57.0197 85.8546 56.1656 86.1628 55.8975 85.6502C55.6731 85.2121 55.3082 85.0791 54.8255 84.9866C54.5276 84.9436 54.2271 84.9208 53.9262 84.9185C52.6413 84.8645 51.3758 84.585 50.1869 84.0927C49.8801 83.9646 49.5588 83.8234 49.2327 83.8721C48.9065 83.9208 48.603 84.2663 48.7273 84.5713C48.3059 84.4464 47.8005 83.9678 47.4663 83.6807C46.5923 82.9333 45.7199 82.1854 44.8491 81.437C44.6086 81.2309 44.3648 81.0233 44.121 80.8238C43.0877 79.9801 42.1302 79.0311 41.1066 78.1566C40.3574 77.4802 39.5557 76.865 38.709 76.3169C37.4383 75.5431 36.0014 75.0758 34.5434 74.7822C34.382 74.8828 34.2205 74.5064 34.2205 74.3182C34.2205 74.13 34.3077 73.9483 34.3029 73.7601C34.2849 73.5826 34.2239 73.4121 34.1253 73.2637L33.5117 72.1638C33.4796 72.094 33.4315 72.0328 33.3713 71.9853C33.3222 71.9587 33.2683 71.9424 33.2128 71.9374C33.1573 71.9324 33.1013 71.9388 33.0484 71.9561C32.8029 72.0015 32.564 72.0973 32.3089 72.0713C32.0538 72.0453 31.8019 71.8328 31.8455 71.5846C31.8598 71.5407 31.8664 71.4945 31.8649 71.4483C31.8439 71.3056 31.6437 71.3007 31.5048 71.3331C31.4648 71.1721 31.4613 71.0041 31.4945 70.8415C31.5278 70.6789 31.597 70.5259 31.697 70.3938C31.8261 70.2316 32.007 70.0856 32.0376 69.8779C32.1377 69.1868 31.7147 68.7666 31.3159 68.3497C30.6701 67.6764 31.0915 67.2141 31.4322 66.4029C31.6227 65.9486 31.8165 65.4668 31.7551 64.9769C31.634 64.083 30.6701 63.3448 30.8962 62.4688C31.0598 62.7547 31.2542 63.0219 31.4758 63.2653C31.2045 62.9684 31.7228 61.4305 31.8278 61.0752C32.0393 60.3646 32.4138 59.7011 32.7432 59.0262C33.7846 56.8977 34.855 54.6167 34.5903 52.2562C34.5047 51.5018 34.2883 50.7085 34.5709 50.0028C34.6555 49.8348 34.7231 49.6587 34.7727 49.4772C34.8179 49.2127 34.721 48.9483 34.6629 48.6887C34.5708 48.2747 34.5758 47.8448 34.6774 47.433C34.7162 47.4914 34.7549 47.5531 34.7969 47.6131C35.2813 47.2562 35.7818 47.631 36.3469 47.8338C38.0164 48.4285 39.8019 48.6197 41.5587 48.3918C41.9397 48.3432 42.4192 48.1631 42.4176 47.7754C42.4176 47.4963 42.1415 47.2643 42.1771 46.9885C42.7706 47.1761 43.4115 47.1421 43.9821 46.8928C44.0728 46.8591 44.1538 46.8034 44.2178 46.7306C44.3325 46.5683 44.2889 46.3591 44.2372 46.1709C43.7225 44.254 42.9895 42.4031 42.0527 40.655C41.7298 40.0531 41.3778 39.4544 41.1889 38.799C41 38.1436 40.9823 37.4038 41.3052 36.7987C41.5732 36.3023 42.0769 35.8513 41.9785 35.2932C42.1577 35.6176 42.7857 35.4181 42.7308 35.0466C42.7115 34.8973 42.6146 34.7724 42.5823 34.6264C42.5193 34.323 42.7534 34.0505 42.8875 33.7731C43.0215 33.4956 42.965 33.0414 42.6582 33.0284C43.1619 32.1264 43.6662 31.2255 44.171 30.3256C44.4939 29.7416 44.2937 29.2938 44.3809 28.6287C44.4091 28.4533 44.4172 28.2753 44.4051 28.0982C44.3803 27.9388 44.3381 27.7826 44.2792 27.6326C43.2954 24.8486 42.3132 22.0653 41.3326 19.2824C40.6481 17.3454 40.2638 15.6825 39.4904 13.7779C39.0739 12.7542 38.5685 11.6689 37.6111 11.1286C37.4361 11.018 37.2362 10.9533 37.0299 10.9404C36.8684 10.9404 36.6924 10.9842 36.5213 10.9842C36.3348 10.9708 36.1506 10.9354 35.9723 10.8788C35.2958 10.7166 34.5612 10.5543 33.967 10.1796C34.5418 9.94434 35.4201 10.2672 35.8577 10.6663C35.5122 10.3564 35.4799 9.8324 34.9794 9.60041C34.5903 9.42195 33.988 9.37166 33.565 9.30676C34.1204 9.39112 34.256 8.9385 34.8922 9.28568C34.6258 9.14129 34.5564 8.79898 34.2028 8.69677C33.9525 8.62052 33.5941 8.73084 33.3115 8.66757C32.9377 8.59056 32.5863 8.42859 32.2843 8.19406C31.9824 7.95954 31.7378 7.65869 31.5694 7.31455C31.3918 6.91546 31.3369 6.4612 31.0964 6.0978C30.8558 5.7344 30.4166 5.44887 30.3924 4.99949C30.344 4.0845 31.2094 3.5394 30.8445 2.48326C30.828 2.42326 30.7982 2.3678 30.7573 2.32103C30.6039 2.17015 30.3537 2.29183 30.1728 2.40701C29.6739 2.72796 29.1296 2.97135 28.5583 3.12895C27.9802 2.372 27.4543 1.57629 26.9841 0.747374C26.8677 0.525905 26.713 0.32704 26.5272 0.160093C25.6634 -0.543996 22.7782 1.27463 21.9144 1.74186C20.4101 2.55356 18.995 3.52201 17.6923 4.63122C17.4776 4.81454 17.2516 5.02383 17.1983 5.30124C17.1765 5.55357 17.2287 5.80678 17.3484 6.02967L18.2041 8.08029C18.254 8.14999 18.2897 8.22895 18.309 8.31259C18.3283 8.39622 18.3309 8.48288 18.3166 8.56753C18.3023 8.65219 18.2715 8.73315 18.2259 8.80574C18.1802 8.87833 18.1207 8.9411 18.0508 8.99041C17.7015 9.34893 17.3205 9.67474 16.9125 9.96381C16.2667 10.3921 15.5934 10.4976 14.8878 10.7474C14.2775 10.9648 13.6995 11.505 12.9972 11.3525C12.6178 11.273 12.3029 10.9907 11.9235 10.9177C11.4133 10.8204 10.8951 11.1238 10.5705 11.5358C10.246 11.9479 10.0862 12.4525 9.8795 12.9343C9.75033 13.2587 9.58242 13.7227 9.31117 13.9417C9.08191 14.1251 8.75899 14.065 8.53619 14.2841C8.45852 14.3707 8.3992 14.4722 8.36181 14.5826C8.25432 14.9026 8.25217 15.2489 8.35568 15.5703C8.45919 15.8917 8.66287 16.171 8.9366 16.3671C9.01087 16.419 9.09805 16.5294 9.0254 16.5829C8.73478 16.8052 9.0254 17.9619 9.0254 18.309C9.0367 19.078 8.93821 19.8178 8.92368 20.5803C8.89946 22.0404 9.00279 23.5005 9.00118 24.9606C9.00118 25.1455 8.97696 25.371 8.81066 25.457C9.02107 25.6909 9.18229 25.965 9.28467 26.2631C9.38705 26.5611 9.42846 26.8768 9.40643 27.1913C9.39028 27.3746 9.35799 27.5774 9.46294 27.7299C9.53075 27.8305 9.64861 27.884 9.73096 27.9732C10.0442 28.3204 9.68898 28.8931 9.8359 29.3409C9.936 29.6491 10.2492 29.8276 10.4607 30.0693C10.6722 30.311 10.7627 30.5852 10.9451 30.8302C11.3956 31.4612 12.2045 31.6949 12.9536 31.8928C13.3621 31.9982 13.4767 32.1329 13.8771 32.2643C14.2775 32.3957 14.7797 32.4265 15.0719 32.1248C15.1526 32.042 15.2204 31.9301 15.3335 31.9009C15.4465 31.8717 15.574 31.9447 15.6983 31.9561C15.9631 31.9804 16.1569 31.7241 16.3248 31.5115C16.7106 31.0244 17.219 30.6497 17.7973 30.4262C17.9712 30.3856 18.1265 30.2873 18.238 30.1472C18.2996 30.003 18.3165 29.8436 18.2865 29.6897C18.1521 28.1645 18.5179 26.6371 19.3279 25.3402C18.9759 27.0858 18.6207 28.8493 18.6401 30.6322C18.6562 32.3032 19.0017 33.9904 18.6853 35.6306C18.4576 36.8165 17.8925 37.923 17.7295 39.117C17.639 39.7968 17.6778 40.5106 17.4227 41.1498C17.1256 41.8977 16.4717 42.433 15.9438 43.0414C14.8297 44.3279 14.4374 45.4749 14.5294 47.154C14.545 47.2463 14.5291 47.3412 14.4842 47.4233C14.4337 47.4792 14.3698 47.5211 14.2985 47.545C13.5607 47.9003 13.4541 48.5816 13.2571 49.2841C13.0311 50.0953 12.6565 50.8853 12.3449 51.6706C11.5915 53.5622 10.7901 55.4354 9.94085 57.2903C9.85851 57.472 9.77939 57.6521 9.70028 57.8386C9.65378 57.9582 9.59985 58.0747 9.53883 58.1874C9.47274 58.2992 9.40106 58.4075 9.32409 58.5119C8.86394 59.1949 8.70087 60.0288 8.55879 60.8399C8.21004 62.7948 7.90167 64.8033 6.97814 66.5635C6.52929 67.4185 5.94483 68.1988 5.47983 69.0473C4.9551 70.0077 4.86469 70.8318 4.76943 71.8831C4.67901 72.9084 4.23178 73.9921 3.78455 74.9071C3.26305 75.9681 2.56556 76.9837 2.42348 78.1518C2.28463 79.2874 2.68988 80.4409 2.49452 81.5587C2.23135 83.082 0.915488 84.3166 0.863822 85.8643C0.83476 86.7323 1.21256 87.6294 0.9171 88.4438C0.800852 88.7683 0.594189 89.0408 0.450494 89.3539C0.13727 90.0791 0.182478 90.9114 0.163103 91.6836C0.148572 92.2141 -0.348711 92.8792 0.468254 93.1112C0.660902 93.1526 0.860077 93.1526 1.05272 93.1112C1.86 92.9912 2.65113 92.7998 3.46002 92.8111C4.26892 92.8225 5.1214 93.0691 5.65582 93.6807C4.56637 93.3481 3.42005 93.2464 2.28947 93.3822C1.92878 93.4058 1.57767 93.5088 1.261 93.6839C0.526379 94.1398 0.32456 95.6129 0.146959 96.39C-0.0306416 97.1671 -0.0144966 98.0983 0.542525 98.6758C1.08017 99.2307 1.9375 99.2972 2.70926 99.2826C3.72926 99.2626 4.74645 99.1677 5.75269 98.9987C6.0643 98.9467 6.39851 98.8737 6.60679 98.632C7.05241 98.1161 6.60679 97.2579 6.91033 96.6495C7.01702 96.4808 7.13745 96.3213 7.27037 96.1726C7.74021 95.5447 7.71922 94.6865 7.67724 93.9013C7.8387 94.2485 8.3489 94.3085 8.68472 94.1187C9.02055 93.9289 9.21753 93.5655 9.37091 93.2134C9.52429 92.8614 9.65992 92.4834 9.92309 92.2011C9.9815 92.1293 10.057 92.0735 10.1427 92.0389C10.2634 92.0178 10.3868 92.0178 10.5076 92.0389C11.0371 92.0697 11.4763 91.656 11.8137 91.2277C12.1512 90.7994 12.4224 90.3354 12.4596 89.8082C12.4967 89.2809 12.2384 88.7001 11.7411 88.5184C12.0947 88.181 12.1851 87.6359 12.0914 87.1573C11.9729 86.6822 11.7794 86.2292 11.5183 85.8156C11.4054 85.6471 11.3335 85.4543 11.3084 85.2527C11.2842 84.7514 11.7847 84.4188 12.106 84.0359C12.5274 83.5314 12.663 82.8419 12.642 82.1865C12.621 81.5311 12.4515 80.8886 12.332 80.2397C12.163 79.3306 12.0867 78.4065 12.1044 77.4818C12.1044 77.0583 12.1431 76.6203 12.3498 76.252C12.7195 75.6031 12.9294 75.2154 13.0214 74.4448C13.1425 73.4454 13.8142 72.5985 14.5569 71.9237C14.8093 71.7295 15.0201 71.4861 15.1768 71.2082C15.3189 70.8951 15.2979 70.5382 15.3383 70.1975C15.4334 69.5247 15.7862 68.9158 16.3216 68.5006C16.6687 68.2345 17.0933 68.0496 17.3355 67.6894C17.7278 67.1118 17.6697 66.4418 17.8102 65.7945C17.8958 65.4003 18.3268 64.6183 18.7499 64.5194C18.9226 64.4804 19.1228 64.461 19.2342 64.3198C19.3128 64.1749 19.3319 64.005 19.2875 63.8461C19.0133 61.7972 19.3741 59.7131 20.3208 57.8776C20.0948 58.3107 20.1513 59.1754 20.098 59.6621C20.027 60.3111 19.9656 60.96 19.9366 61.6089C19.8533 62.7786 19.9244 63.9541 20.1481 65.105C20.5323 66.8717 20.8811 68.413 21.1701 70.1975C21.2896 70.9373 21.3057 71.7322 21.7174 72.3584C21.8822 72.5634 22.0317 72.7803 22.1646 73.0074C22.4876 73.679 22.1211 74.5599 22.5344 75.178C22.9735 75.827 23.1673 76.0411 23.248 76.8572C23.3045 77.4331 23.353 78.1972 24.0553 78.34C24.2016 78.3531 24.3465 78.3797 24.488 78.4195C24.9917 78.6304 24.8706 79.3718 25.0482 79.8925C25.2517 80.4928 25.8975 80.8043 26.4804 81.0509C26.5966 81.1089 26.7236 81.142 26.8533 81.1482C27.152 81.1482 27.3716 80.8481 27.6606 80.767C28.1046 80.6453 28.5163 81.0428 28.7908 81.4159C29.0653 81.789 29.3962 82.2271 29.8596 82.2157C30.0727 82.2157 30.2729 82.1054 30.4844 82.1054C30.88 82.1054 31.2917 82.4039 31.5807 82.0048C31.81 81.6901 31.6598 81.1012 31.9166 80.7069C32.1507 80.3516 32.4703 80.058 32.74 79.7335C33.4468 78.876 33.8065 77.7825 33.7475 76.6706C33.8708 77.2298 33.881 77.8081 33.7776 78.3714C33.6741 78.9346 33.4591 79.4712 33.1452 79.9493C32.7351 80.5707 32.1297 81.1888 32.233 81.9286L35.0633 83.2735C36.2726 83.8494 37.5449 84.3004 38.7445 84.8796C41.2245 86.0752 43.5462 87.2887 45.6064 89.1447C45.4578 89.5178 45.3335 89.9688 45.5499 90.3111C45.6364 90.4315 45.7416 90.5373 45.8615 90.6242C46.4449 91.1001 47.0288 91.5754 47.6133 92.0502C48.0266 92.3844 48.6563 92.717 49.0308 92.3406C49.1503 92.2222 49.2359 92.0324 49.4038 92.0162C49.8317 91.9772 49.8123 92.8857 49.8752 93.1145C49.9382 93.3432 50.1772 93.5314 50.3596 93.7147C50.7098 94.0559 50.9442 94.4992 51.0297 94.9818C51.0355 95.0677 51.0639 95.1506 51.112 95.2219C51.2735 95.4149 51.5721 95.2219 51.7788 95.0597C51.9664 94.9291 52.182 94.8447 52.4081 94.8134C52.6342 94.7821 52.8644 94.8048 53.0801 94.8796C52.6074 94.9908 52.1754 95.2337 51.8337 95.5804C52.021 95.4948 52.2261 95.4558 52.4315 95.4668C52.637 95.4778 52.8368 95.5385 53.0139 95.6437C53.3666 95.8581 53.6546 96.1648 53.8471 96.5311C53.0091 96.1726 52.0258 95.8173 51.2234 96.2504C51.0393 96.351 50.873 96.4905 50.6809 96.5749C50.3402 96.7225 49.9366 96.6966 49.6137 96.8815C48.9469 97.266 49.005 98.3303 49.7219 98.6661C50.0528 98.8283 50.4468 98.6888 50.8068 98.6839C51.432 98.684 52.0551 98.7569 52.6636 98.9013C52.977 98.9975 53.3059 99.0322 53.6323 99.0035C54.0408 98.9305 54.3718 98.6385 54.6802 98.3546C55.7312 97.4007 56.8695 96.2537 56.8291 94.8309C56.8098 94.169 56.545 93.4357 56.9163 92.8841C57.152 92.5402 57.588 92.3763 57.8172 92.0275C58.0998 91.6301 57.9932 91.0752 57.9028 90.5755ZM35.7463 23.1728C36.0837 24.5907 36.4744 25.994 36.7844 27.4168C36.9452 28.0795 37.0457 28.7556 37.0847 29.4366C37.1118 30.3506 36.9502 31.2604 36.6101 32.1086C36.7925 32.2708 36.9782 32.433 37.1622 32.5952C37.2314 32.6455 37.2869 32.7125 37.3237 32.7899C37.3513 32.8974 37.3445 33.011 37.3043 33.1144C36.6104 35.5995 36.1143 38.1362 35.8205 40.7004C35.9126 39.5323 35.6187 38.3367 35.8464 37.1913C36.1079 35.8934 36.384 34.5956 36.5939 33.2831C36.6327 33.0333 36.6472 32.725 36.4325 32.5855C36.3453 32.5255 36.2306 32.5125 36.1418 32.4557C35.8189 32.2529 35.9949 31.7565 36.1531 31.4077C36.8296 29.9184 36.3889 28.1906 36.0046 26.6008C35.4864 24.4568 35.0876 22.2854 34.8098 20.0968C35.1844 21.1238 35.4056 22.1442 35.7463 23.1728ZM21.9628 15.7669C21.9192 15.8966 21.6399 16.054 21.5317 16.14C21.181 16.4207 20.8109 16.6761 20.4242 16.9041C20.2499 16.9941 20.0895 17.1089 19.9479 17.2448C19.8235 17.3811 19.7412 17.5498 19.6088 17.6796C19.4362 17.8116 19.2473 17.9206 19.0469 18.0041C17.6407 18.7682 17.526 20.8853 16.2199 21.8116C16.0947 21.8788 15.9898 21.9785 15.9163 22.1004C15.8847 22.2114 15.8621 22.3248 15.8485 22.4395C15.729 22.9035 15.0638 22.983 14.8216 23.3902C14.7119 23.5735 14.6973 23.8039 14.5601 23.9677C14.3986 24.1592 14.0935 24.2468 14.066 24.4917C14.0467 24.654 14.1742 24.8016 14.2808 24.9281C14.5094 25.2067 14.677 25.5306 14.7727 25.8786C14.8684 26.2266 14.89 26.591 14.8362 26.9479C14.4148 25.9632 13.9014 25.0239 13.3831 24.0845L13.0053 23.3902C12.9358 23.4129 12.8648 23.4324 12.7938 23.4518C11.916 21.448 11.4819 19.2764 11.5215 17.0874C11.5147 16.9757 11.5364 16.864 11.5845 16.763C11.692 16.6378 11.839 16.5536 12.001 16.5245C12.5413 16.3497 13.0285 16.0399 13.417 15.6241C13.5534 15.4447 13.7262 15.2965 13.924 15.1893C14.127 15.1281 14.3385 15.1001 14.5504 15.1066C14.6564 15.1083 14.7612 15.0837 14.8556 15.035C14.9499 14.9863 15.0309 14.9151 15.0913 14.8275C15.1833 14.6491 15.1268 14.4333 15.1591 14.2354C15.2172 13.872 15.5773 13.6222 15.9405 13.5589C16.3038 13.4956 16.6703 13.5589 17.0352 13.6043C17.1039 13.6193 17.1756 13.6125 17.2403 13.5848C17.2876 13.55 17.3208 13.499 17.3336 13.4414C17.3463 13.3838 17.3379 13.3235 17.3097 13.2717C17.2488 13.1706 17.1595 13.0898 17.053 13.0397C16.4924 12.7321 15.8426 12.6306 15.2156 12.7526C15.0428 12.6747 15.0735 12.4865 15.0541 12.2935C15.0519 12.1009 15.0848 11.9096 15.151 11.7289C15.5401 11.5066 16.0858 11.6818 16.4427 11.4044C16.5068 11.3394 16.5846 11.2895 16.6703 11.2584C16.7581 11.2523 16.8459 11.2708 16.9238 11.312C17.3059 11.425 17.7138 11.4142 18.0895 11.2811C18.4722 11.1708 18.8177 11.0848 19.2068 11.0118C19.5426 11.3509 19.6007 11.8717 19.8042 12.3097C19.8195 12.3503 19.8479 12.3845 19.8849 12.407C19.928 12.4187 19.9727 12.4231 20.0173 12.42C20.3886 12.4541 20.1917 13.249 20.1787 13.4632C20.1553 13.706 20.1684 13.951 20.2175 14.19C20.2282 14.2585 20.2579 14.3225 20.3031 14.3749C20.4984 14.5761 20.8068 14.3603 21.0312 14.4333C21.3444 14.5355 21.3089 15.0011 21.3671 15.3045C21.3688 15.3432 21.3842 15.3801 21.4106 15.4083C21.441 15.4321 21.4788 15.4442 21.5172 15.4424C21.6562 15.454 21.7961 15.4486 21.9338 15.4262C21.9063 15.4246 21.9741 15.7312 21.9628 15.7669Z" fill="url(#paint0_linear_13_1555)"/>
<path d="M100.914 7.70693C100.956 7.87013 100.961 8.06761 101.092 8.18185C101.176 8.24189 101.275 8.27902 101.377 8.28957C102.483 8.50826 103.588 8.83956 104.507 9.48912C105.426 10.1387 106.135 11.1522 106.197 12.2734C106.204 12.719 106.161 13.1641 106.069 13.6002C105.959 14.08 105.876 14.5655 105.82 15.0544C105.792 15.5309 105.995 16.0597 105.833 16.5232C105.784 16.6603 105.702 16.7843 105.656 16.9214C105.553 17.2283 105.642 17.5661 105.578 17.8827C105.501 18.1645 105.365 18.4266 105.178 18.6514C105.027 18.876 104.858 19.0873 104.671 19.283C104.314 19.6372 103.819 19.913 103.688 20.3977C103.693 20.4074 103.7 20.4155 103.71 20.4208C103.719 20.4261 103.73 20.4284 103.741 20.4273C103.751 20.4263 103.762 20.4219 103.77 20.4148C103.778 20.4078 103.784 20.3984 103.786 20.3879C103.611 20.5723 103.786 20.5625 103.973 20.7388C104.16 20.915 104.4 21.0342 104.535 21.2512C104.669 21.4683 104.669 21.7915 104.838 22.0052C104.992 22.1654 105.188 22.2786 105.404 22.3317C106.343 22.6581 107.26 23.133 107.907 23.887C108.058 24.0492 108.173 24.2417 108.244 24.4517C108.3 24.6426 108.295 24.8466 108.345 25.0409C108.363 25.1391 108.408 25.2305 108.475 25.3046C108.542 25.3787 108.629 25.4326 108.725 25.4603C108.658 25.6953 108.976 25.8373 109.197 25.9499L113.663 28.1515C114.4 28.5397 115.167 28.8699 115.955 29.1389C116.624 29.3462 117.316 29.4653 117.976 29.7003C118.859 30.0137 119.656 30.5164 120.447 31.0223C121.72 31.8383 122.915 32.718 124.178 33.5373L125.226 34.2178C125.532 34.4153 125.865 34.6503 126.233 34.6748C126.602 34.6993 126.932 34.412 127.314 34.6976C127.478 34.8217 127.578 35.0241 127.753 35.1334C128.01 35.2966 128.367 35.2215 128.616 35.3929C128.716 35.4797 128.81 35.5747 128.894 35.6769C129.155 35.9315 129.538 36.0033 129.877 36.1371C130.216 36.2709 130.566 36.5468 130.547 36.9107C130.535 37.1278 130.383 37.3383 130.442 37.5488C130.678 38.5117 131.403 39.2053 132.025 39.9332C132.681 40.7036 133.067 41.6175 133.648 42.4368C133.852 42.707 134.079 42.9592 134.326 43.1908L135.309 44.17C135.576 44.4361 135.648 44.7657 136 44.9616C135.939 45.0248 135.857 45.0632 135.77 45.0692C135.682 45.0753 135.596 45.0485 135.527 44.9942C134.903 44.4654 134.23 44.2826 133.676 43.6804C133.987 44.5797 135.053 45.4234 135.72 46.086C135.366 46.3537 134.842 46.1693 134.511 45.8755C134.181 45.5817 133.937 45.1868 133.562 44.9518C133.681 45.4226 133.884 45.8685 134.159 46.2688C133.717 46.3765 133.264 46.1056 132.964 45.7694C132.664 45.4332 132.473 45.0089 132.189 44.6531C131.729 44.0737 131.397 43.403 130.933 42.8236C130.665 42.489 129.322 41.7056 129.404 41.4119C129.488 41.2084 129.64 41.04 129.834 40.9353C128.837 40.9157 128.28 42.378 127.473 42.8562C127.242 43.0101 126.974 43.0987 126.697 43.1125C126.559 43.1155 126.423 43.0779 126.307 43.0045C126.19 42.931 126.098 42.825 126.042 42.6996C126.063 42.7567 127.219 41.7481 127.299 41.6012C127.727 40.8309 127.872 39.8157 128.259 39.0013C128.094 39.0986 127.911 39.1635 127.722 39.1923C127.627 39.2045 127.531 39.1901 127.444 39.1509C127.358 39.1117 127.284 39.0492 127.231 38.9703C127.165 38.8512 127.157 38.6913 127.042 38.6194C126.928 38.5476 126.797 38.6015 126.672 38.5868C126.438 38.5574 126.289 38.3061 126.063 38.2392C125.977 38.2204 125.889 38.2122 125.801 38.2147C125.421 38.1999 125.05 38.0893 124.725 37.8933C124.399 37.6972 124.129 37.422 123.939 37.0935L123.983 37.2828C123.955 37.162 124.122 37.3481 124.207 37.2567C121.484 36.5313 118.805 35.6496 116.183 34.616C114.767 34.0563 113.676 33.0428 112.209 32.5303C110.876 32.0613 109.583 31.4878 108.342 30.815C107.71 30.4756 107.032 30.1083 106.318 30.2079C105.827 30.2764 105.404 30.5572 105.008 30.8411C105.345 30.6649 105.704 30.4853 106.084 30.5033C106.464 30.5212 106.86 30.8216 106.836 31.2002C106.821 31.4401 106.647 31.6506 106.641 31.8922C106.591 34.0138 104.79 35.4647 103.798 37.3367C103.405 38.076 103.005 38.8267 102.427 39.4338C102.294 39.556 102.179 39.6961 102.085 39.85C102.02 39.9918 101.976 40.1425 101.955 40.2972C101.737 41.469 101.521 42.6403 101.309 43.811C101.299 43.9759 101.227 44.131 101.107 44.2451C100.956 44.3561 100.745 44.3169 100.562 44.2794C98.5393 43.8616 96.3039 43.9921 94.3977 43.1369C93.3611 42.6751 92.3638 41.9586 91.2306 41.9945C91.9364 41.8786 92.7339 42.8709 93.3038 43.1941C93.6313 43.3801 93.9588 43.6592 93.985 44.0346C93.978 44.2373 93.9318 44.4368 93.8491 44.6221C93.5969 45.3467 93.3284 46.9788 93.7803 47.6544C93.8816 47.7776 93.9705 47.9105 94.0456 48.051C94.1063 48.2391 94.1198 48.4392 94.0849 48.6337C94.026 49.2636 93.9659 49.8936 93.9048 50.5236C93.8819 50.77 93.8164 51.0687 93.5773 51.1372C93.6313 52.0675 93.3185 52.9798 92.9632 53.8415C92.6356 54.6216 92.2852 55.3838 91.9266 56.146L91.4598 57.1415C91.2961 57.4793 91.0914 57.858 90.7229 57.9232C90.3628 57.9964 90.0275 58.1602 89.7489 58.399C89.4702 58.6378 89.2576 58.9437 89.1311 59.2876C88.9788 59.7103 89.1033 60.2016 88.9166 60.6112C88.7643 60.9376 88.4253 61.1677 88.291 61.5056C88.1174 61.9185 88.2746 62.3853 88.3352 62.8292C88.3859 63.2021 88.3664 63.5812 88.2779 63.9471C88.142 64.502 87.8505 65.0063 87.6425 65.5384C87.3913 66.2082 87.2466 66.913 87.2135 67.6274C87.1742 68.3063 87.256 68.8024 86.6272 69.2333C86.3373 69.4308 86.0065 69.5989 85.8215 69.8959C86.3365 70.0012 86.8724 69.9035 87.3166 69.6234C87.4657 69.7866 87.3592 70.0673 87.1758 70.1946C86.9814 70.2972 86.7736 70.3724 86.5584 70.4182C86.2262 70.538 85.9417 70.7616 85.7475 71.0557C85.5533 71.3499 85.4598 71.6987 85.4808 72.0502C85.479 72.0896 85.4873 72.1287 85.5051 72.1639C85.5229 72.1991 85.5495 72.229 85.5824 72.2509C85.6138 72.2598 85.6467 72.2617 85.679 72.2566C85.7112 72.2516 85.7419 72.2396 85.7691 72.2216C86.22 71.9964 86.6124 71.6702 86.9154 71.2685C87.0681 71.0384 87.2472 70.827 87.4493 70.6385C87.5507 70.5439 87.6762 70.4787 87.8121 70.4499C87.9481 70.4212 88.0893 70.4299 88.2206 70.4753C88.2731 70.4949 88.3163 70.5333 88.3418 70.583C88.3524 70.6184 88.3548 70.6557 88.3488 70.6922C88.3428 70.7287 88.3287 70.7633 88.3074 70.7935C88.1928 71.0008 87.9946 71.151 87.8652 71.3484C87.7359 71.5459 87.7015 71.8495 87.8849 72.0013C88.1338 71.6422 88.4744 70.836 88.9936 70.8588C89.5372 70.8833 89.8484 71.7303 90.1399 72.0894C90.8588 72.9739 92.0821 73.3346 92.7945 74.2257C93.0434 74.5358 93.2203 74.9014 93.4659 75.2147C93.7116 75.5281 94.0571 75.8023 94.4485 75.817C94.549 75.812 94.6498 75.8153 94.7498 75.8268C95.1183 75.8969 95.264 76.3425 95.2935 76.7146C95.323 77.0867 95.3361 77.5192 95.6341 77.7477C96.0747 78.0855 96.7805 77.702 97.2456 78.0055C97.5731 78.2144 97.637 78.6714 97.9334 78.9162C98.1151 79.0664 98.3788 79.1333 98.4951 79.3405C98.6113 79.5478 98.5245 79.8302 98.554 80.0668C98.6375 80.7425 99.5775 81.2631 100.085 81.5618C100.814 81.9877 101.395 82.5247 101.544 83.4027L104.82 85.0853C105.062 85.2234 105.321 85.3298 105.591 85.4019C106.105 85.5129 106.718 85.4019 107.098 85.7594C107.382 86.0319 107.409 86.4938 107.273 86.8643C107.109 87.2237 106.888 87.5544 106.618 87.8435C105.316 89.4755 104.413 91.3654 103.342 93.1509C102.271 94.9363 100.984 96.6745 99.1681 97.6912C98.7833 97.905 98.3493 98.0911 97.9137 97.9932C97.7982 97.974 97.6926 97.9165 97.614 97.83C97.5477 97.7294 97.5083 97.6137 97.4994 97.4938C97.4159 96.9601 97.3618 96.3334 97.75 95.9547C97.9252 95.814 98.1151 95.6925 98.3166 95.5924C98.5595 95.44 98.7663 95.2366 98.9224 94.9965C99.0785 94.7564 99.1802 94.4852 99.2205 94.2019C99.0748 94.259 98.9323 94.0877 98.929 93.9326C98.9504 93.7793 98.9804 93.6273 99.0191 93.4773C99.0617 93.0513 98.6523 92.7119 98.5606 92.2924C98.4689 91.873 98.6883 91.4764 98.6113 91.0733C98.5344 90.6702 98.1823 90.316 98.2936 89.9309C98.3755 89.6485 98.6834 89.4625 98.7211 89.172C98.7587 88.8815 98.4705 88.6154 98.1741 88.5583C97.8777 88.5012 97.5731 88.5861 97.275 88.6416C96.06 88.8641 94.8055 88.6198 93.764 87.9577C93.7116 87.5252 94.2127 87.2723 94.5828 87.0275C94.838 86.8525 95.0539 86.6265 95.2166 86.3637C95.3793 86.101 95.4853 85.8073 95.5277 85.5015C95.305 85.6239 95.0364 85.4493 94.8644 85.2583C94.6925 85.0674 94.5222 84.8356 94.2684 84.8144C93.9032 84.7834 93.6297 85.2126 93.2645 85.2077C92.8698 85.2077 92.6569 84.7181 92.2901 84.5794C92.0461 84.4847 91.7726 84.5517 91.5122 84.5402C90.8261 84.5109 90.2938 83.9576 89.8418 83.4451C89.4488 82.9979 89.0443 82.5312 88.8871 81.9583C88.7676 81.5275 88.8003 81.0689 88.7332 80.625C88.5547 79.445 86.768 78.4592 85.9115 77.7052C85.5061 77.3158 85.0494 76.9831 84.554 76.7162C83.6303 76.2707 82.425 76.2266 81.8371 75.3861C81.5342 74.9438 81.485 74.3791 81.2721 73.8879C80.9692 73.191 80.3027 72.7455 79.962 72.0926C79.6214 71.4398 79.6886 70.4949 79.6525 69.7604C79.6525 68.7665 79.5543 67.7628 79.5068 66.7706C79.4708 66.0508 79.1252 64.7648 79.6705 64.1789C79.9252 63.9389 80.2276 63.7548 80.5581 63.6387C81.7389 63.1491 82.99 62.7671 84.0447 62.0425C85.0272 61.3652 85.8657 60.3729 87.0366 60.133C85.7265 60.0269 84.7652 61.0045 83.7007 61.5448C82.4503 62.1748 81.1566 62.7159 79.8294 63.1637C79.0106 63.4412 78.2966 64.0385 77.5122 64.422C76.6164 64.8594 75.6895 65.2299 74.7626 65.6004L75.0721 65.3947C75.0054 65.4151 74.9342 65.4152 74.8674 65.3952C74.8007 65.3752 74.7414 65.3358 74.6971 65.2821C74.6348 65.1804 74.5987 65.0649 74.5923 64.9459C74.5089 64.5037 74.5229 64.0488 74.6332 63.6125C74.3228 64.1275 74.197 64.7323 74.2762 65.3278C74.3483 65.8631 74.6971 66.4327 74.3859 66.9599C74.2549 67.1769 74.078 67.4038 74.1206 67.6535C74.1763 67.9799 74.553 68.1235 74.7609 68.3748C74.8759 68.5317 74.9614 68.7081 75.0131 68.8955L75.6354 70.7446C75.9397 71.5776 76.1865 72.4305 76.374 73.2971C76.3861 73.4435 76.4433 73.5825 76.5378 73.6953C76.6458 73.7998 76.808 73.821 76.9357 73.8993C77.2632 74.0984 77.2632 74.5521 77.2207 74.9389C77.1388 75.7386 77.0563 76.5378 76.9734 77.3364C76.9653 77.5271 76.9237 77.7149 76.8505 77.8913C76.6868 78.2438 76.2577 78.6029 76.4739 78.9276C76.8718 79.5201 77.9903 79.2296 78.1017 80.1729C78.1181 80.3181 78.1148 80.4993 78.2409 80.5711C78.3217 80.6025 78.4067 80.6223 78.4931 80.6299C78.7305 80.6951 78.8206 81.0101 78.7322 81.2435C78.6254 81.4655 78.4833 81.6689 78.3113 81.8457C78.159 82.0399 78.0362 82.2913 78.1115 82.5247C78.4063 83.4255 79.081 82.6454 79.5297 82.5459C79.6236 82.5339 79.7189 82.545 79.8074 82.5783C79.8959 82.6116 79.9749 82.666 80.0374 82.7368C80.17 82.8706 80.2666 83.0355 80.3944 83.1742C80.7088 83.5186 81.1854 83.6769 81.5112 84.0131C81.7856 84.3189 81.9518 84.7058 81.9845 85.1147C82.0173 85.5202 82.0041 85.928 81.9452 86.3306C81.9474 86.478 81.8995 86.6218 81.8093 86.7386C81.3606 89.5261 81.074 92.064 79.8851 94.6263C79.3952 95.6865 78.7853 96.6874 78.0673 97.6096C77.617 98.1906 77.1044 98.7521 76.4297 99.0654C75.755 99.3788 74.9067 99.382 74.3433 98.9022L74.137 96.02C74.1152 95.4137 74.0262 94.8116 73.8717 94.2248C73.7358 93.776 73.5245 93.3549 73.3542 92.9191C73.0792 92.1408 72.8667 91.3418 72.7188 90.5298C72.6675 90.2165 72.5686 89.9127 72.4257 89.6289C71.864 88.6383 70.377 88.4473 69.8677 87.4289C69.8251 87.3639 69.8001 87.289 69.7952 87.2115C69.7903 87.1339 69.8057 87.0565 69.8399 86.9867C69.9365 86.8447 70.1396 86.8349 70.3131 86.8365C71.0566 86.8463 71.9311 86.7353 72.3012 86.0923C71.9737 86.0384 71.8918 85.588 72.0294 85.2926C72.1669 84.9972 72.4355 84.7785 72.5862 84.488C72.7368 84.1975 72.6975 83.7519 72.3847 83.654L71.6101 84.1273C71.2269 83.8792 71.6101 83.2525 71.43 82.8347C71.2499 82.4169 70.5408 82.3451 70.4949 81.8882C70.4802 81.7478 70.5408 81.6091 70.5375 81.4687C70.5244 81.0411 70.0004 80.8649 69.6499 80.6168C68.89 80.0799 68.895 78.4543 68.8131 77.6138C68.6821 76.2854 68.7492 74.9324 68.4102 73.6317C68.2579 73.0474 68.0287 72.4892 67.842 71.9147C67.4637 70.7495 67.7159 69.532 67.0363 68.4205C66.7939 68.0272 66.4713 67.6845 66.2469 67.2781C66.0226 66.8717 65.9014 66.3691 66.1012 65.9513C66.1962 65.7554 66.355 65.5188 66.2207 65.3458C66.1536 65.2593 66.0209 65.2103 66.0127 65.1026C66.0013 64.9541 66.2174 64.9084 66.3042 64.7876C66.4336 64.6065 66.2289 64.378 66.1847 64.1593C66.1159 63.8182 66.635 63.1947 66.8021 62.8749C67.1591 62.1927 67.6667 61.579 68.1416 60.9768C69.9627 58.6691 71.8673 56.4218 73.9077 54.3017C74.9411 53.2279 76.0088 52.1801 77.1175 51.1894C78.2262 50.1988 79.1711 49.0433 80.1602 47.9074C80.385 47.6665 80.5847 47.4035 80.7563 47.1224C80.9102 46.8531 81.0118 46.5544 81.1608 46.2819C81.4749 45.7549 81.9077 45.3079 82.425 44.9762C82.6587 44.8425 82.8644 44.6652 83.031 44.454C83.1437 44.2575 83.2182 44.0416 83.2504 43.8175C83.3863 43.1761 83.4977 42.52 83.6762 41.8884C83.8203 41.3792 83.912 41.1491 83.1849 41.2617C82.8759 41.3099 82.5618 41.3148 82.2514 41.2764C82.0484 41.2503 81.8142 41.1769 81.752 40.9826C81.728 40.8515 81.7482 40.7161 81.8093 40.5975C81.8093 40.2025 82.2089 39.6329 82.3399 39.2543C82.4633 38.8566 82.5564 38.4501 82.6183 38.0384C82.794 37.123 83.0432 36.223 83.3634 35.3472C84.0173 33.5543 84.9574 31.8784 86.1474 30.3842C85.7107 30.7563 85.274 31.1273 84.8373 31.4972C85.6708 30.3793 86.2047 28.6624 86.3275 27.2849C86.3865 26.6321 86.3799 25.9107 86.8188 25.4293C87.0475 25.2078 87.3188 25.0346 87.6163 24.9201C88.231 24.6415 88.8565 24.3886 89.493 24.1612C90.248 23.8919 90.5657 23.2521 91.2617 22.8719C91.3142 22.8467 91.3614 22.8118 91.4009 22.769C91.504 22.6418 91.4385 22.4573 91.432 22.2958C91.4361 22.1481 91.4789 22.0042 91.5562 21.8782C91.6335 21.7522 91.7425 21.6486 91.8725 21.5777C93.2006 20.7616 94.5762 21.0228 95.978 20.5266C96.2548 19.3026 96.5054 18.0443 96.5397 16.7909L96.1287 16.7256L95.9322 14.6529C95.9076 14.4016 95.8896 14.1274 96.037 13.9217C96.1174 13.8369 96.1908 13.7458 96.2564 13.6492C96.3055 13.4897 96.3055 13.3191 96.2564 13.1596C96.1172 12.2881 96.4513 11.3888 96.9934 10.6903C97.5354 9.99179 98.2642 9.46137 99.0126 8.98808C98.8707 8.95372 98.7383 8.88829 98.625 8.79654C98.5117 8.70479 98.4203 8.58902 98.3575 8.45767C98.3051 8.34342 98.1856 8.47888 98.0693 8.53111C97.9588 8.59447 97.8681 8.68712 97.8073 8.79876C96.9066 10.1142 95.3934 10.8486 94.1439 11.8425C93.2256 12.5746 92.4397 13.4577 91.8201 14.4538C91.3157 15.2698 90.9178 16.1887 90.9374 17.1467C90.9571 18.1047 91.4729 19.0953 92.3622 19.4576C91.4565 19.1851 90.7622 18.3854 90.4985 17.4812C90.259 16.5599 90.3464 15.5843 90.7458 14.7198C90.3053 15.81 90.1481 17.0406 90.4691 18.1716C90.79 19.3026 91.6351 20.3096 92.7617 20.6768C92.1422 20.5987 91.5536 20.3621 91.053 19.99C90.5525 19.6179 90.1571 19.1231 89.9053 18.5536C89.6536 17.9841 89.554 17.3594 89.6164 16.7402C89.6787 16.121 89.9008 15.5284 90.2611 15.0201C89.3915 16.4889 89.4668 18.3789 90.1415 19.944C90.4445 20.6441 90.8998 21.3361 91.6056 21.6331C91.2158 21.8747 90.7425 21.5009 90.451 21.1435C89.8377 20.433 89.3358 19.6341 88.9624 18.7738C88.7561 18.2662 88.1813 17.0194 88.6726 16.5657C88.1958 17.4623 88.062 18.501 88.2959 19.4886C88.0472 19.1901 87.8658 18.8418 87.7638 18.4673C87.6618 18.0928 87.6417 17.7009 87.7047 17.318C87.1735 18.5269 87.129 19.893 87.5803 21.1337C86.3259 19.3385 86.7484 16.6783 88.309 15.1425C89.1442 14.3265 90.2824 13.7275 90.7344 12.6488C89.8369 14.1763 87.9864 14.8177 86.6075 15.9308C85.7259 16.6564 85.033 17.5834 84.5877 18.633C84.1423 19.6825 83.9577 20.8237 84.0496 21.9596C83.519 20.6164 83.7663 19.0513 84.4721 17.7913C85.1779 16.5314 86.2964 15.544 87.5066 14.7508C86.6272 15.2094 85.7429 15.6713 84.983 16.3062C84.2232 16.941 83.591 17.775 83.3683 18.733C83.3683 17.3768 84.4197 16.2605 85.4874 15.4183C86.5551 14.5762 87.7637 13.7863 88.3401 12.5623C87.1054 14.0033 85.4203 14.9744 83.989 16.2229C82.5577 17.4714 81.318 19.2096 81.4818 21.0962C81.3206 20.0079 81.4417 18.8965 81.8336 17.8681C82.2254 16.8396 82.875 15.9283 83.7204 15.2209C84.703 14.4179 85.9852 13.8385 86.4798 12.6716C86.0197 13.3117 85.4075 13.8281 84.6981 14.1747C85.2351 13.7868 85.6718 13.2772 85.9721 12.6879C84.251 14.4832 81.3049 14.945 80.0177 17.0732C79.4364 18.0329 79.2988 19.1949 79.2251 20.3079C79.3037 19.1116 79.1498 18.1569 79.6984 17.0063C80.1667 16.0271 80.8071 15.0674 81.8273 14.5844C81.1964 14.8046 80.6166 15.1494 80.1225 15.598C79.6284 16.0467 79.2302 16.5901 78.9516 17.1956C79.1743 15.7643 80.3993 14.7263 81.5718 13.8614C80.8709 14.3999 79.9801 14.6121 79.1383 14.8879C78.2966 15.1637 77.4286 15.5603 76.9668 16.3143C78.6497 13.7427 81.0918 11.7549 83.9562 10.625L79.1776 12.1967C79.7049 11.7707 80.2568 11.3317 80.9201 11.1881C79.631 11.3747 78.3819 11.7735 77.2239 12.368C78.7667 11.1567 80.6023 10.3714 82.5462 10.0913C81.4232 10.0036 80.2939 10.1384 79.2235 10.4879C80.1412 9.97269 81.1507 9.64011 82.1958 9.5087C81.0672 9.39586 79.9274 9.50694 78.8422 9.83553C77.7569 10.1641 76.7477 10.7037 75.8729 11.4231C77.0761 10.1958 78.6006 9.32957 80.2732 8.9228C81.8748 8.536 83.4011 8.12962 84.9191 7.47191C86.4094 6.81909 87.9406 6.11405 89.5995 6.10263C87.2043 5.37975 84.6272 5.54912 82.3481 6.57918C83.6451 5.32414 85.8198 5.73868 87.4427 4.94714C87.2184 5.05812 86.3701 4.83616 86.0966 4.81168C85.7165 4.76314 85.3323 4.75384 84.9503 4.78394C84.0333 4.87984 83.1336 5.09946 82.276 5.43675C81.621 5.69299 80.9954 6.01939 80.3109 6.20545C79.6263 6.3915 78.8828 6.42577 78.2556 6.11079C80.9299 6.19402 83.1358 4.43795 85.7052 4.14255C87.3559 3.95363 89.0236 3.96898 90.6705 4.18824C92.2361 4.40041 93.633 5.02548 95.1461 5.32088C95.7488 5.43676 96.3645 5.49388 96.9475 5.6734C97.5305 5.85292 98.1053 6.17444 98.4214 6.69669C98.5327 6.87785 98.6981 7.11776 98.8979 7.03942C98.9831 7.00678 99.0404 6.92191 99.1256 6.89417C99.2168 6.87771 99.311 6.89451 99.3909 6.9415C99.6692 7.05248 100.914 7.38052 100.914 7.70693Z" fill="url(#paint1_linear_13_1555)"/>
<defs>
<linearGradient id="paint0_linear_13_1555" x1="-0.0048103" y1="49.6378" x2="58.0013" y2="49.6378" gradientUnits="userSpaceOnUse">
<stop stop-color="#F7C951"/>
<stop offset="0.46" stop-color="#B88C3E"/>
<stop offset="0.82" stop-color="#8F6331"/>
<stop offset="1" stop-color="#7F542C"/>
</linearGradient>
<linearGradient id="paint1_linear_13_1555" x1="65.9996" y1="51.6464" x2="136.013" y2="51.6464" gradientUnits="userSpaceOnUse">
<stop stop-color="#F7C951"/>
<stop offset="0.46" stop-color="#B88C3E"/>
<stop offset="0.82" stop-color="#8F6331"/>
<stop offset="1" stop-color="#7F542C"/>
</linearGradient>
</defs>
</svg>
