<svg width="115" height="90" viewBox="0 0 115 90" fill="none" xmlns="http://www.w3.org/2000/svg">
<path d="M100.429 7.06739L114.762 54.8385C115.193 56.2919 115.035 57.8577 114.321 59.1941C113.607 60.5305 112.396 61.5289 110.952 61.9711L21.6677 89.0161C20.2214 89.4496 18.6631 89.2904 17.3333 88.5732C16.0034 87.8561 15.0101 86.6393 14.5702 85.1887L0.237972 37.422C-0.193073 35.9685 -0.034285 34.4026 0.679675 33.0663C1.39364 31.73 2.60478 30.7317 4.04871 30.2894L93.3318 3.24887C94.7769 2.81501 96.3342 2.97299 97.6639 3.68835C98.9935 4.40372 99.9876 5.6184 100.429 7.06739Z" fill="#562710"/>
<path d="M100.111 7.0741L103 16.739L3.12221 47.135L0.237217 37.4789C-0.192461 36.0229 -0.0341763 34.4545 0.677518 33.116C1.38921 31.7774 2.59652 30.7775 4.03586 30.3345L93.0356 3.24927C94.4762 2.81469 96.0285 2.97293 97.354 3.68947C98.6794 4.40602 99.6704 5.62271 100.111 7.0741Z" fill="url(#paint0_linear_13_1636)"/>
<path d="M114.163 53.1522L114.762 55.1299C115.193 56.5711 115.035 58.1239 114.321 59.4492C113.608 60.7744 112.397 61.7645 110.953 62.203L21.6924 89.0181C20.2465 89.448 18.6886 89.2901 17.3591 88.5789C16.0296 87.8678 15.0365 86.6612 14.5968 85.2227L14 83.2435L114.163 53.1522Z" fill="url(#paint1_linear_13_1636)"/>
<path d="M69.6305 11.4442C70.4407 12.7979 69.8732 14.2766 68.3713 14.7327L31.3447 25.9576C29.8413 26.4138 28.5573 25.4956 28.4885 23.9169L28.003 12.6345C27.9328 11.0573 29.1086 9.39758 30.6106 8.93704L59.6331 0.135417C61.1365 -0.320702 63.0289 0.413503 63.8377 1.76567L69.6305 11.4442Z" fill="#562710"/>
<g style="mix-blend-mode:multiply" opacity="0.3">
<path d="M27.9914 23.066L29 38.7614L23.938 40.1149L23 24.3996L27.9914 23.066Z" fill="#433E72"/>
</g>
<g style="mix-blend-mode:multiply" opacity="0.3">
<path d="M69 10.4611L76.6611 25.0718L81 23.6152L73.2771 9.02585L69 10.4611Z" fill="#433E72"/>
</g>
<path d="M52.6451 7.10956C53.1769 6.94714 53.7497 7.00752 54.2385 7.27753C54.7273 7.54755 55.0925 8.00532 55.2547 8.55111L56.9124 14.2074C57.071 14.7543 57.0127 15.3436 56.75 15.8463C56.4874 16.3491 56.0419 16.7244 55.5109 16.8901L42.3488 20.9723C41.8175 21.1332 41.2459 21.0719 40.7583 20.8017C40.2707 20.5314 39.9066 20.0741 39.745 19.5292L38.0873 13.8715C37.929 13.3243 37.9875 12.735 38.2501 12.2321C38.5126 11.7293 38.9579 11.3536 39.4888 11.1872L52.6451 7.10956Z" fill="url(#paint2_linear_13_1636)"/>
<path d="M56.2371 17.0765L42.876 20.9594C42.2466 21.1414 41.5681 21.0754 40.9891 20.776C40.4101 20.4765 39.9779 19.968 39.7873 19.3618L38.1047 13.9816C37.9159 13.375 37.9843 12.7209 38.295 12.1628C38.6057 11.6047 39.1332 11.1881 39.762 11.0043L53.1246 7.12137C53.754 6.93898 54.4327 7.00477 55.0118 7.30429C55.5909 7.60382 56.023 8.1126 56.2133 8.71895L57.8959 14.102C58.0841 14.7085 58.0152 15.3622 57.7043 15.9198C57.3933 16.4773 56.8657 16.8933 56.2371 17.0765ZM39.9671 11.6576C39.7442 11.722 39.5366 11.828 39.3562 11.9697C39.1758 12.1114 39.0261 12.2859 38.9157 12.4833C38.8053 12.6808 38.7363 12.8973 38.7126 13.1204C38.689 13.3436 38.7112 13.569 38.778 13.7839L40.4606 19.1655C40.5957 19.5996 40.9041 19.9642 41.318 20.1792C41.732 20.3941 42.2175 20.4418 42.6679 20.3118L56.029 16.4303C56.4791 16.2997 56.8571 16.0024 57.08 15.6035C57.3029 15.2046 57.3526 14.7367 57.2181 14.3026L55.5355 8.92241C55.4004 8.48831 55.092 8.12371 54.6781 7.90876C54.2642 7.69381 53.7786 7.64612 53.3282 7.77616L39.9671 11.6576Z" fill="url(#paint3_linear_13_1636)"/>
<path d="M48.9509 10.7418L45.7683 17.7977C45.7166 17.9104 45.6295 17.9943 45.5261 18.0312C45.4227 18.068 45.3112 18.0549 45.2159 17.9946C45.1685 17.9649 45.1266 17.9243 45.0925 17.8751C45.0584 17.826 45.0329 17.7693 45.0174 17.7084C45.0019 17.6474 44.9967 17.5834 45.0021 17.52C45.0075 17.4567 45.0234 17.3952 45.049 17.3392L48.2329 10.2833C48.2843 10.17 48.3715 10.0858 48.4753 10.049C48.579 10.0122 48.6907 10.0259 48.786 10.0871C48.8812 10.1483 48.952 10.252 48.983 10.3753C49.0139 10.4987 49.0024 10.6316 48.9509 10.7448V10.7418Z" fill="#562710"/>
<path d="M50.9509 11.6575L47.764 17.838C47.7108 17.9342 47.6237 18.0051 47.5212 18.0354C47.4186 18.0658 47.3087 18.0533 47.2149 18.0006C47.1211 17.9479 47.0507 17.8592 47.0188 17.7533C46.9868 17.6474 46.9959 17.5328 47.044 17.4337L50.2322 11.2546C50.2577 11.2054 50.2922 11.162 50.3339 11.1268C50.3755 11.0916 50.4234 11.0653 50.4748 11.0493C50.5262 11.0334 50.5801 11.0281 50.6335 11.0338C50.6868 11.0396 50.7386 11.0562 50.7858 11.0827C50.8329 11.1093 50.8746 11.1452 50.9085 11.1886C50.9423 11.2319 50.9676 11.2817 50.983 11.3352C50.9983 11.3887 51.0033 11.4448 50.9978 11.5004C50.9923 11.5559 50.9764 11.6098 50.9509 11.6589V11.6575Z" fill="#562710"/>
<g style="mix-blend-mode:multiply" opacity="0.3">
<path d="M10.6205 44.6759L2.67822 47.0777L13.5367 83.1915L21.479 80.7898L10.6205 44.6759Z" fill="#433E72"/>
</g>
<g style="mix-blend-mode:multiply" opacity="0.3">
<path d="M103 16.7442L95.0591 19.1456L105.918 55.2594L113.858 52.8581L103 16.7442Z" fill="#433E72"/>
</g>
<path d="M16.5852 25.4832L17 26.8376L9.4427 29.0833L9.02494 27.7273C9.00272 27.6547 8.99524 27.5785 9.00293 27.503C9.01062 27.4276 9.03332 27.3544 9.06975 27.2876C9.10617 27.2207 9.1556 27.1617 9.21521 27.1137C9.27481 27.0657 9.34344 27.0297 9.41715 27.0079L15.8519 25.0968C15.9258 25.0747 16.0034 25.0671 16.0803 25.0746C16.1572 25.082 16.2318 25.1043 16.2999 25.1402C16.368 25.1761 16.4283 25.2248 16.4772 25.2837C16.5262 25.3425 16.5629 25.4103 16.5852 25.4832Z" fill="#562710"/>
<path d="M86.2697 2.37269L87 5.1884L81.7498 7.0201L81.0183 4.20439C80.9848 4.07194 80.9977 3.92954 81.0542 3.80804C81.1107 3.68654 81.2062 3.59573 81.3201 3.55529L85.7146 2.02592C85.8279 1.98837 85.9494 2.00361 86.0531 2.0684C86.1568 2.13319 86.2345 2.2424 86.2697 2.37269Z" fill="#562710"/>
<g style="mix-blend-mode:multiply" opacity="0.3">
<path d="M86 69.1728L45.7956 81.2326L37 52.2051L77.3137 40.1149L86 69.1728Z" fill="#433E72"/>
</g>
<path d="M77.1078 40.0582C78.3055 44.0465 78.2972 48.3013 77.0838 52.2848C75.8704 56.2683 73.5065 59.8015 70.2909 62.4376C67.0753 65.0738 63.1525 66.6945 59.0185 67.0949C54.8845 67.4952 50.725 66.6572 47.0659 64.6869C43.4067 62.7165 40.4123 59.7022 38.4613 56.0252C36.5103 52.3482 35.6903 48.1736 36.1049 44.0292C36.5196 39.8848 38.1503 35.9568 40.7909 32.7419C43.4315 29.5269 46.9634 27.1694 50.9399 25.9674C53.5807 25.1694 56.3523 24.9008 59.0966 25.1771C61.8408 25.4533 64.5039 26.269 66.9339 27.5775C69.3638 28.8859 71.513 30.6616 73.2586 32.803C75.0042 34.9445 76.3122 37.4098 77.1078 40.0582Z" fill="url(#paint4_linear_13_1636)"/>
<path d="M71.3628 41.7944C72.2183 44.6431 72.2122 47.6822 71.3455 50.5275C70.4787 53.3727 68.7901 55.8963 66.4933 57.7792C64.1964 59.6621 61.3944 60.8196 58.4415 61.1055C55.4887 61.3914 52.5176 60.7928 49.9039 59.3854C47.2903 57.978 45.1515 55.825 43.758 53.1986C42.3644 50.5722 41.7788 47.5904 42.075 44.6302C42.3712 41.67 43.536 38.8643 45.4222 36.568C47.3083 34.2717 49.8311 32.5878 52.6715 31.7293C54.5578 31.159 56.5376 30.9669 58.4979 31.1641C60.4582 31.3613 62.3606 31.9439 64.0964 32.8786C65.8321 33.8133 67.3672 35.0817 68.614 36.6115C69.8608 38.1414 70.7949 39.9025 71.3628 41.7944Z" fill="#562710"/>
<path d="M65.6173 43.5282C66.1308 45.2374 66.1275 47.0609 65.6076 48.7681C65.0878 50.4753 64.0749 51.9896 62.697 53.1195C61.319 54.2494 59.6379 54.9442 57.8663 55.116C56.0946 55.2879 54.3119 54.929 52.7436 54.0848C51.1754 53.2406 49.8919 51.949 49.0555 50.3733C48.2191 48.7976 47.8674 47.0086 48.0448 45.2324C48.2222 43.4563 48.9208 41.7728 50.0523 40.3948C51.1837 39.0168 52.6971 38.0062 54.4012 37.4907C55.533 37.1484 56.7209 37.033 57.8971 37.1512C59.0733 37.2694 60.2148 37.6188 61.2564 38.1794C62.2979 38.7401 63.2191 39.501 63.9674 40.4188C64.7157 41.3365 65.2763 42.3932 65.6173 43.5282Z" fill="url(#paint5_linear_13_1636)"/>
<path d="M62.7444 44.3941C63.0871 45.5336 63.0852 46.7493 62.7389 47.8876C62.3927 49.026 61.7176 50.0358 60.7992 50.7894C59.8807 51.5429 58.76 52.0064 57.5789 52.1213C56.3977 52.2361 55.2091 51.9971 54.1634 51.4344C53.1177 50.8718 52.2619 50.0108 51.7041 48.9603C51.1463 47.9099 50.9117 46.7171 51.0298 45.5329C51.1479 44.3487 51.6136 43.2262 52.3678 42.3074C53.122 41.3886 54.131 40.7147 55.2671 40.371C56.7906 39.9104 58.4341 40.0755 59.8363 40.83C61.2384 41.5844 62.2845 42.8664 62.7444 44.3941Z" fill="#562710"/>
<g style="mix-blend-mode:multiply">
<path d="M59.8726 45.2648C60.0437 45.8345 60.0424 46.4423 59.8691 47.0113C59.6957 47.5803 59.358 48.085 58.8986 48.4616C58.4392 48.8381 57.8788 49.0696 57.2883 49.1268C56.6977 49.184 56.1035 49.0642 55.5808 48.7828C55.058 48.5013 54.6303 48.0707 54.3516 47.5454C54.0729 47.0202 53.9557 46.4238 54.015 45.8318C54.0743 45.2398 54.3072 44.6787 54.6845 44.2195C55.0617 43.7603 55.5663 43.4235 56.1344 43.2518C56.5116 43.1376 56.9076 43.0991 57.2997 43.1384C57.6918 43.1778 58.0724 43.2943 58.4196 43.4812C58.7668 43.6682 59.0738 43.9219 59.3231 44.228C59.5724 44.534 59.7591 44.8863 59.8726 45.2648Z" fill="#6A9AA5"/>
</g>
<g style="mix-blend-mode:multiply" opacity="0.4">
<path d="M71.5699 41.6769C71.7537 42.2791 71.8973 42.8928 72 43.5138C70.5047 40.1566 67.8315 37.459 64.4825 35.9274C61.1334 34.3959 57.3387 34.1357 53.8109 35.1958C50.2831 36.2559 47.2647 38.5633 45.3225 41.6849C43.3802 44.8064 42.6477 48.5275 43.2624 52.1493C43.0038 51.5752 42.7831 50.9849 42.6016 50.3822C41.4886 46.5658 41.9316 42.4656 43.8343 38.9731C45.737 35.4805 48.9455 32.8778 52.7625 31.7308C56.5794 30.5838 60.6963 30.9851 64.2181 32.8476C67.7398 34.71 70.3819 37.8831 71.5699 41.6769Z" fill="#6A9AA5"/>
</g>
<path d="M62.2481 63.3736C59.9873 64.0791 57.6098 64.3275 55.253 64.1045C52.8962 63.8816 50.6066 63.1917 48.5162 62.0746C46.4259 60.9576 44.5763 59.4355 43.074 57.5961C41.5716 55.7567 40.4464 53.6365 39.7632 51.3578C39.0799 49.079 38.8522 46.6868 39.0931 44.3191C39.334 41.9514 40.0388 39.6551 41.1668 37.5626C42.2948 35.4701 43.8237 33.6229 45.6653 32.1274C47.5069 30.632 49.6248 29.518 51.8968 28.8496C61.364 25.9798 71.3844 31.3909 74.2416 40.9094C75.6089 45.4873 75.114 50.4237 72.8655 54.6352C70.617 58.8467 66.7986 61.9894 62.2481 63.3736ZM52.0573 29.3884C48.7677 30.3856 45.846 32.3412 43.6618 35.0078C41.4776 37.6745 40.1289 40.9324 39.7863 44.3697C39.4436 47.807 40.1225 51.2692 41.7369 54.3186C43.3514 57.368 45.829 59.8676 48.8564 61.5013C51.8838 63.135 55.325 63.8294 58.745 63.4968C62.1649 63.1642 65.41 61.8195 68.0698 59.6326C70.7296 57.4458 72.6847 54.5151 73.6879 51.2111C74.6911 47.9071 74.6972 44.3783 73.7057 41.0707C72.371 36.6385 69.3423 32.9194 65.2839 30.7294C61.2255 28.5393 56.4689 28.0571 52.0573 29.3884Z" fill="#562710"/>
<defs>
<linearGradient id="paint0_linear_13_1636" x1="-0.00283601" y1="25.0687" x2="102.994" y2="25.0687" gradientUnits="userSpaceOnUse">
<stop stop-color="#F7C951"/>
<stop offset="0.46" stop-color="#B88C3E"/>
<stop offset="0.82" stop-color="#8F6331"/>
<stop offset="1" stop-color="#7F542C"/>
</linearGradient>
<linearGradient id="paint1_linear_13_1636" x1="14" y1="71.2058" x2="115.002" y2="71.2058" gradientUnits="userSpaceOnUse">
<stop stop-color="#F7C951"/>
<stop offset="0.46" stop-color="#B88C3E"/>
<stop offset="0.82" stop-color="#8F6331"/>
<stop offset="1" stop-color="#7F542C"/>
</linearGradient>
<linearGradient id="paint2_linear_13_1636" x1="37.998" y1="14.0417" x2="57.0076" y2="14.0417" gradientUnits="userSpaceOnUse">
<stop stop-color="#F7C951"/>
<stop offset="0.46" stop-color="#B88C3E"/>
<stop offset="0.82" stop-color="#8F6331"/>
<stop offset="1" stop-color="#7F542C"/>
</linearGradient>
<linearGradient id="paint3_linear_13_1636" x1="37.9991" y1="14.0404" x2="58.0014" y2="14.0404" gradientUnits="userSpaceOnUse">
<stop stop-color="#7F542C"/>
<stop offset="0.18" stop-color="#8F6331"/>
<stop offset="0.54" stop-color="#B88C3E"/>
<stop offset="1" stop-color="#F7C951"/>
</linearGradient>
<linearGradient id="paint4_linear_13_1636" x1="35.9957" y1="46.1374" x2="78.0074" y2="46.1374" gradientUnits="userSpaceOnUse">
<stop stop-color="#7F542C"/>
<stop offset="0.18" stop-color="#8F6331"/>
<stop offset="0.54" stop-color="#B88C3E"/>
<stop offset="1" stop-color="#F7C951"/>
</linearGradient>
<linearGradient id="paint5_linear_13_1636" x1="47.9971" y1="46.1315" x2="66.0027" y2="46.1315" gradientUnits="userSpaceOnUse">
<stop stop-color="#7F542C"/>
<stop offset="0.18" stop-color="#8F6331"/>
<stop offset="0.54" stop-color="#B88C3E"/>
<stop offset="1" stop-color="#F7C951"/>
</linearGradient>
</defs>
</svg>
