<svg width="133" height="130" viewBox="0 0 133 130" fill="none" xmlns="http://www.w3.org/2000/svg">
<g filter="url(#filter0_d_13_1719)">
<path d="M51.9404 41.4063L1.0408 72.84L0.00012207 74.6839V76.124C0.00489535 76.4827 0.105493 76.8336 0.291439 77.1401C0.477384 77.4465 0.741873 77.6974 1.05735 77.8665L68.4902 116.954C69.0261 117.247 69.6332 117.383 70.2424 117.347C70.8642 117.323 71.4682 117.132 71.991 116.794L121.741 83.3209V81.8808L51.9404 41.4063Z" fill="#562710"/>
<path d="M70.2369 115.911C69.627 115.948 69.0191 115.812 68.4828 115.518L1.05551 76.4172C0.740267 76.2484 0.476009 75.9979 0.290353 75.6916C0.104697 75.3854 0.00446154 75.0348 0.00012207 74.6765C0.00594703 74.3064 0.104267 73.9436 0.28608 73.6215C0.467893 73.2993 0.727389 73.0281 1.0408 72.8326L49.6881 40.1008L121.73 81.8808L71.9855 115.361C71.463 115.7 70.8586 115.89 70.2369 115.911Z" fill="#7F381F"/>
<path d="M49.6697 35.8708L1.57406 68.2393L1.0813 69.0119L1.1052 74.6267C1.11657 74.7815 1.16892 74.9304 1.25683 75.0581C1.34475 75.1858 1.46504 75.2877 1.60532 75.3532L69.0326 114.454C69.6946 114.839 70.7683 114.791 71.4229 114.347L119.524 81.9785L119.5 76.3637L49.6697 35.8708Z" fill="url(#paint0_linear_13_1719)"/>
<path d="M119.502 76.3656L118.901 76.7712L111.066 82.0375L109.617 83.0259L71.4063 108.732C70.7426 109.177 69.6707 109.225 69.0161 108.841L1.57957 69.7384C0.91949 69.3531 0.915813 68.6819 1.57957 68.2375L2.21942 67.806L49.6697 35.8708L118.903 76.0189L119.048 76.1093L119.502 76.3656Z" fill="url(#paint1_linear_13_1719)"/>
<path d="M70.2075 109.099L70.2314 114.712C69.8161 114.742 69.4009 114.652 69.0345 114.454L1.60347 75.3514C1.46196 75.285 1.34107 75.1813 1.25365 75.0514C1.16623 74.9215 1.11556 74.7703 1.10703 74.6138L1.08313 69.0119C1.09357 69.1679 1.145 69.3183 1.2322 69.4478C1.3194 69.5774 1.43925 69.6815 1.57957 69.7495L69.0106 108.841C69.3776 109.038 69.7923 109.127 70.2075 109.099Z" fill="url(#paint2_linear_13_1719)"/>
<path d="M119.498 75.617L110.838 81.442L109.481 82.3639L71.4027 107.995C70.7408 108.437 69.667 108.485 69.0124 108.102L8.62348 73.0686C8.08047 72.7687 7.57422 72.4749 7.10475 72.1872C4.64646 70.6789 3.1645 69.2996 2.21208 67.7986L2.0944 67.6143C2.01994 67.4974 1.96875 67.3671 1.94363 67.2307C1.89791 66.9415 1.95721 66.6455 2.11074 66.3964C2.26426 66.1474 2.50183 65.9618 2.78022 65.8736C4.37054 65.2961 5.8904 64.5395 7.31068 63.6184L7.37136 63.5797L49.6605 35.1167L119.498 75.617Z" fill="url(#paint3_linear_13_1719)"/>
<path d="M49.6771 35.4707L118.941 75.6354L110.667 81.1967L109.318 82.1039L71.239 107.735C70.892 107.95 70.4904 108.06 70.0825 108.052C69.7624 108.059 69.4459 107.983 69.1632 107.832L8.76506 72.816C8.2723 72.5449 7.7777 72.2628 7.25736 71.9438C4.94433 70.5221 3.42008 69.1576 2.46397 67.6511L2.40881 67.5644L2.34262 67.4593C2.28766 67.3744 2.25073 67.279 2.23414 67.179C2.20053 66.9588 2.24756 66.7339 2.36653 66.5457C2.48551 66.3576 2.66839 66.219 2.88135 66.1557C4.49216 65.5723 6.03128 64.8064 7.4688 63.8729L7.50374 63.8507L7.52029 63.8397L49.6624 35.4799M49.6513 35.1314L7.36584 63.5852L7.30516 63.6239C5.88654 64.544 4.36855 65.2999 2.78022 65.8772C2.50183 65.9655 2.26426 66.151 2.11074 66.4001C1.95721 66.6491 1.89791 66.9452 1.94363 67.2344C1.96875 67.3708 2.01994 67.501 2.0944 67.6179L2.21208 67.8023C3.1645 69.3033 4.64646 70.6825 7.10475 72.1909C7.57545 72.4761 8.08169 72.7699 8.62348 73.0723L69.0069 108.091C69.3373 108.268 69.7077 108.358 70.0825 108.351C70.5487 108.357 71.0068 108.229 71.4027 107.982L109.481 82.351L110.838 81.429L119.498 75.604L49.666 35.1222L49.6513 35.1314Z" fill="url(#paint4_linear_13_1719)"/>
<path opacity="0.1" d="M110.515 75.3606C109.902 75.7773 109.904 76.4079 110.515 76.7675C111.125 77.1271 112.133 77.0828 112.75 76.6679C113.368 76.2531 113.366 75.6206 112.75 75.261C112.4 75.0855 112.011 75.0025 111.62 75.02C111.228 75.0374 110.848 75.1546 110.515 75.3606Z" fill="black"/>
<path d="M117.673 70.4871C116.819 69.9911 115.753 70.1183 114.665 70.8559C112.984 71.9936 111.539 74.4239 110.908 76.9298C111.176 77.0088 111.457 77.0332 111.734 77.0018C112.309 74.7669 113.594 72.6261 115.084 71.6175C115.486 71.3257 115.959 71.1474 116.454 71.1012C116.735 71.0835 117.016 71.1475 117.263 71.2855C117.983 71.7023 118.403 72.7828 118.408 74.2359C118.41 74.4773 118.399 74.7186 118.373 74.9587L119.16 75.4141C119.213 75.0113 119.24 74.6053 119.239 74.199C119.232 72.4196 118.66 71.0624 117.673 70.4871Z" fill="#562710"/>
<path d="M119.085 75.8936C119.078 75.9649 119.066 76.0356 119.048 76.105L118.903 76.0149L119.085 75.8936Z" fill="#1A2E35"/>
<path opacity="0.1" d="M103.75 71.4423C103.138 71.8572 103.142 72.4878 103.75 72.8473C104.359 73.2069 105.366 73.1645 105.984 72.7478C106.602 72.331 106.602 71.7023 105.984 71.3409C105.634 71.1656 105.245 71.083 104.854 71.1007C104.463 71.1184 104.083 71.236 103.75 71.4423Z" fill="black"/>
<path d="M110.917 66.5706C110.062 66.0745 108.996 66.2018 107.909 66.9393C106.227 68.0752 104.784 70.5055 104.151 73.0114C104.419 73.0913 104.699 73.1157 104.977 73.0834C105.55 70.843 106.837 68.704 108.327 67.6954C108.729 67.4026 109.202 67.2236 109.697 67.1772C109.978 67.1604 110.259 67.2243 110.506 67.3616C111.226 67.7783 111.645 68.8589 111.653 70.3119C111.655 70.5552 111.644 70.7984 111.618 71.0403L112.407 71.4976C112.459 71.0941 112.485 70.6875 112.484 70.2806C112.475 68.4993 111.903 67.144 110.917 66.5706Z" fill="#562710"/>
<path opacity="0.1" d="M96.9913 67.522C96.379 67.9388 96.3827 68.5675 96.9913 68.929C97.5999 69.2904 98.6075 69.2443 99.2271 68.8294C99.8467 68.4145 99.843 67.782 99.2271 67.4225C98.8768 67.2466 98.4876 67.1635 98.0963 67.1809C97.705 67.1983 97.3246 67.3157 96.9913 67.522Z" fill="black"/>
<path d="M104.158 62.6504C103.303 62.1544 102.237 62.2816 101.15 63.0192C99.4679 64.1569 98.0246 66.5872 97.3921 69.0931C97.6599 69.171 97.9404 69.1955 98.2176 69.165C98.7931 66.9302 100.078 64.7894 101.568 63.7807C101.971 63.4896 102.443 63.3108 102.937 63.2626C103.219 63.2457 103.5 63.3097 103.746 63.447C104.467 63.8655 104.886 64.9442 104.894 66.3973C104.895 66.6381 104.883 66.8788 104.857 67.1182L105.644 67.5755C105.698 67.1728 105.725 66.7668 105.723 66.3604C105.716 64.5865 105.146 63.2238 104.158 62.6504Z" fill="#562710"/>
<path opacity="0.1" d="M90.2342 63.6037C89.6219 64.0204 89.6237 64.6511 90.2342 65.0125C90.8446 65.3739 91.8522 65.3278 92.47 64.9111C93.0877 64.4943 93.0859 63.8655 92.47 63.5041C92.1194 63.3295 91.7303 63.247 91.3392 63.2644C90.9482 63.2818 90.5679 63.3986 90.2342 63.6037Z" fill="black"/>
<path d="M97.3994 58.7338C96.5463 58.2378 95.4799 58.365 94.3932 59.1026C92.7109 60.2403 91.2675 62.6688 90.635 65.1765C90.903 65.2539 91.1835 65.2777 91.4606 65.2466C92.0361 63.0117 93.3213 60.8728 94.8106 59.8623C95.213 59.5705 95.686 59.3922 96.1804 59.346C96.4621 59.3292 96.7427 59.3931 96.9894 59.5304C97.7102 59.9471 98.1294 61.0277 98.1367 62.4807C98.1382 62.7221 98.126 62.9635 98.1 63.2035L98.8888 63.659C98.9409 63.2561 98.9661 62.8501 98.9641 62.4438C98.9568 60.6607 98.3794 59.3073 97.3994 58.7338Z" fill="#562710"/>
<path opacity="0.1" d="M83.4863 59.6853C82.8741 60.102 82.8759 60.7308 83.4863 61.0941C84.0968 61.4573 85.1044 61.4094 85.7222 60.9927C86.3399 60.5759 86.3381 59.9453 85.7222 59.5857C85.3718 59.4102 84.9826 59.3273 84.5914 59.3447C84.2001 59.3621 83.8198 59.4793 83.4863 59.6853Z" fill="black"/>
<path d="M90.6424 54.8136C89.7892 54.3176 88.7228 54.4448 87.6362 55.1824C85.9538 56.3201 84.5104 58.7486 83.8779 61.2545C84.1456 61.3335 84.4263 61.358 84.7035 61.3264C85.279 59.0916 86.5642 56.9526 88.0535 55.944C88.4552 55.6507 88.9285 55.4716 89.4233 55.4258C89.705 55.4082 89.9859 55.4722 90.2323 55.6102C90.9531 56.0269 91.3723 57.1075 91.3778 58.5605C91.3799 58.8019 91.3682 59.0433 91.3429 59.2833L92.1298 59.7388C92.1826 59.3359 92.2084 58.93 92.2071 58.5236C92.1997 56.7424 91.6297 55.3889 90.6424 54.8136Z" fill="#562710"/>
<path opacity="0.1" d="M76.7182 55.767C76.1041 56.1837 76.1078 56.8125 76.7182 57.1739C77.3287 57.5353 78.3344 57.4892 78.954 57.0725C79.5737 56.6557 79.57 56.0269 78.954 55.6655C78.6035 55.4903 78.2143 55.4077 77.823 55.4254C77.4318 55.4432 77.0515 55.5607 76.7182 55.767Z" fill="black"/>
<path d="M83.8836 50.8953C83.0304 50.3992 81.9622 50.5265 80.8755 51.2641C79.1931 52.4018 77.7498 54.8302 77.1191 57.338C77.3863 57.4163 77.6664 57.4401 77.9429 57.4081C78.5202 55.175 79.8054 53.0342 81.2929 52.0256C81.6963 51.7341 82.1696 51.5553 82.6645 51.5075C82.9457 51.4902 83.2258 51.5542 83.4717 51.6918C84.1925 52.1086 84.6135 53.1873 84.619 54.6421C84.6222 54.8841 84.6124 55.126 84.5896 55.3668L85.3766 55.8241C85.4293 55.4212 85.4551 55.0153 85.4538 54.609C85.4409 52.824 84.8709 51.4687 83.8836 50.8953Z" fill="#562710"/>
<path opacity="0.1" d="M69.9612 51.8486C69.3489 52.2653 69.3508 52.8941 69.9612 53.2555C70.5716 53.6169 71.5774 53.5708 72.197 53.1559C72.8166 52.741 72.813 52.1086 72.197 51.7472C71.8465 51.5719 71.4572 51.4893 71.066 51.507C70.6748 51.5248 70.2945 51.6423 69.9612 51.8486Z" fill="black"/>
<path d="M77.1265 46.9769C76.2733 46.4827 75.2069 46.6081 74.1184 47.3457C72.4379 48.4834 70.9927 50.9137 70.3621 53.4196C70.6292 53.4978 70.9093 53.5217 71.1858 53.4897C71.7631 51.2567 73.0483 49.1159 74.5377 48.1072C74.9396 47.8146 75.4128 47.6362 75.9075 47.5909C76.1886 47.5736 76.4687 47.6376 76.7146 47.7753C77.4354 48.1939 77.8564 49.2726 77.8619 50.7256C77.864 50.9664 77.8524 51.2072 77.827 51.4466L78.614 51.9039C78.6667 51.501 78.6925 51.0951 78.6912 50.6888C78.6838 48.913 78.1138 47.5504 77.1265 46.9769Z" fill="#1A2E35"/>
<path opacity="0.1" d="M63.2022 47.9302C62.5881 48.3451 62.5918 48.9757 63.2022 49.3371C63.8127 49.6986 64.8203 49.6525 65.4381 49.2376C66.0559 48.8227 66.054 48.1902 65.4381 47.8288C65.0875 47.6537 64.6983 47.5712 64.307 47.5889C63.9158 47.6067 63.5356 47.7241 63.2022 47.9302Z" fill="black"/>
<path d="M70.3675 43.0585C69.5143 42.5625 68.4479 42.6897 67.3612 43.4273C65.6789 44.565 64.2355 46.9935 63.603 49.5012C63.8702 49.5795 64.1503 49.6034 64.4268 49.5713C65.0041 47.3383 66.2893 45.1975 67.7786 44.1889C68.1803 43.8955 68.6536 43.7165 69.1484 43.6707C69.4295 43.6534 69.7097 43.7174 69.9556 43.8551C70.6763 44.2737 71.0974 45.3524 71.1029 46.8054C71.105 47.0462 71.0933 47.2869 71.068 47.5264L71.8549 47.9837C71.9076 47.5808 71.9334 47.1748 71.9322 46.7685C71.9248 44.9873 71.3511 43.632 70.3675 43.0585Z" fill="#1A2E35"/>
<path opacity="0.1" d="M56.4452 44.01C55.8329 44.4267 55.8348 45.0555 56.4452 45.4169C57.0556 45.7783 58.0632 45.7341 58.681 45.3173C59.2988 44.9006 59.297 44.27 58.681 43.9104C58.3308 43.7346 57.9415 43.6514 57.5502 43.6688C57.1589 43.6863 56.7785 43.8037 56.4452 44.01Z" fill="black"/>
<path d="M63.6104 39.1401C62.7572 38.6441 61.6908 38.7714 60.6042 39.5089C58.9218 40.6466 57.4784 43.0751 56.8459 45.5829C57.1129 45.662 57.3932 45.6859 57.6697 45.6529C58.247 43.4199 59.5322 41.2791 61.0215 40.2705C61.4239 39.9787 61.8969 39.8004 62.3914 39.7542C62.6725 39.7369 62.9526 39.8009 63.1985 39.9386C63.9211 40.3571 64.3403 41.4358 64.3458 42.8889C64.3479 43.1297 64.3363 43.3704 64.3109 43.6099L65.0979 44.0672C65.1505 43.6643 65.1763 43.2583 65.1751 42.852C65.1677 41.0671 64.5977 39.7118 63.6104 39.1401Z" fill="#1A2E35"/>
<path opacity="0.1" d="M49.6863 40.0916C49.074 40.5084 49.0759 41.139 49.6863 41.4986C50.2967 41.8581 51.3043 41.8157 51.9221 41.399C52.5399 40.9823 52.5381 40.3535 51.9221 39.9921C51.5718 39.8166 51.1826 39.7336 50.7913 39.751C50.4001 39.7684 50.0198 39.8857 49.6863 40.0916Z" fill="black"/>
<path d="M56.8516 35.2199C55.9985 34.7257 54.932 34.8511 53.8454 35.5887C52.163 36.7264 50.7197 39.1567 50.0872 41.6626C50.3548 41.7416 50.6355 41.766 50.9127 41.7345C51.4882 39.4997 52.7734 37.3589 54.2628 36.3502C54.6655 36.0588 55.1382 35.88 55.6326 35.8321C55.9142 35.8155 56.1947 35.8794 56.4416 36.0165C57.1623 36.4351 57.5815 37.5156 57.5871 38.9668C57.5924 39.2093 57.5838 39.4518 57.5613 39.6933L58.3483 40.1506C58.401 39.7477 58.4268 39.3418 58.4255 38.9354C58.4089 37.1487 57.8389 35.7952 56.8516 35.2199Z" fill="#1A2E35"/>
<path d="M63.4303 100.814C63.2957 100.819 63.1625 100.786 63.046 100.718C62.9296 100.65 62.8346 100.55 62.772 100.431C62.6708 100.241 62.6426 100.02 62.6927 99.8102C62.7428 99.6005 62.8679 99.4166 63.0441 99.2931L100.045 74.3907C100.128 74.3331 100.223 74.2938 100.322 74.2754C100.421 74.257 100.524 74.2599 100.622 74.284C100.72 74.308 100.812 74.3526 100.892 74.4149C100.971 74.4771 101.037 74.5556 101.084 74.6452C101.185 74.8356 101.212 75.0561 101.162 75.2656C101.112 75.475 100.988 75.6589 100.812 75.7829L63.8127 100.685C63.6993 100.762 63.5671 100.807 63.4303 100.814Z" fill="#7F381F"/>
<path d="M58.9274 98.2033C58.7926 98.208 58.6592 98.1744 58.5424 98.1066C58.4257 98.0388 58.3304 97.9394 58.2673 97.8198C58.1665 97.6295 58.1385 97.4088 58.1886 97.1993C58.2387 96.9897 58.3635 96.8058 58.5394 96.6821L95.5406 71.7778C95.6238 71.7205 95.7181 71.6814 95.8174 71.6632C95.9167 71.645 96.0188 71.6479 96.1168 71.672C96.2149 71.696 96.3068 71.7405 96.3865 71.8026C96.4662 71.8647 96.532 71.943 96.5795 72.0323C96.6803 72.2226 96.7083 72.4433 96.6582 72.6528C96.6081 72.8624 96.4833 73.0463 96.3073 73.17L59.3062 98.0743C59.1937 98.1505 59.0629 98.195 58.9274 98.2033Z" fill="#7F381F"/>
<path d="M54.4207 95.5886C54.2859 95.5932 54.1525 95.5597 54.0358 95.4919C53.9191 95.4241 53.8237 95.3247 53.7607 95.2051C53.6602 95.0147 53.6325 94.7941 53.6825 94.5847C53.7326 94.3753 53.8572 94.1913 54.0328 94.0674L91.034 69.1742C91.1172 69.1168 91.2115 69.0778 91.3108 69.0595C91.4101 69.0413 91.5121 69.0443 91.6102 69.0683C91.7082 69.0923 91.8001 69.1368 91.8799 69.1989C91.9596 69.261 92.0253 69.3393 92.0728 69.4286C92.1737 69.6189 92.2017 69.8396 92.1515 70.0492C92.1014 70.2587 91.9766 70.4426 91.8007 70.5663L54.8032 95.4595C54.6902 95.5375 54.5577 95.5822 54.4207 95.5886Z" fill="#7F381F"/>
<path d="M49.9142 92.9831C49.7793 92.988 49.6459 92.9545 49.5291 92.8867C49.4123 92.8188 49.317 92.7193 49.2541 92.5996C49.1535 92.4091 49.1258 92.1883 49.1762 91.9787C49.2267 91.7691 49.3518 91.5853 49.5281 91.4619L86.5274 66.5687C86.6104 66.5108 86.7048 66.4712 86.8042 66.4527C86.9036 66.4341 87.0058 66.437 87.1041 66.461C87.2023 66.4851 87.2943 66.5298 87.374 66.5922C87.4537 66.6547 87.5192 66.7334 87.5663 66.8232C87.6671 67.0134 87.6951 67.2341 87.645 67.4437C87.5949 67.6532 87.4701 67.8372 87.2942 67.9609L50.293 92.8541C50.181 92.9314 50.0499 92.976 49.9142 92.9831Z" fill="#7F381F"/>
<path d="M45.4078 90.3629C45.273 90.3675 45.1396 90.334 45.0229 90.2662C44.9061 90.1984 44.8108 90.099 44.7477 89.9794C44.6473 89.789 44.6195 89.5684 44.6696 89.359C44.7197 89.1496 44.8442 88.9656 45.0198 88.8417L82.0247 63.9485C82.1079 63.8911 82.2022 63.8521 82.3015 63.8338C82.4008 63.8156 82.5028 63.8186 82.6009 63.8426C82.699 63.8666 82.7909 63.9111 82.8706 63.9732C82.9503 64.0353 83.0161 64.1136 83.0636 64.2029C83.164 64.3933 83.1918 64.6139 83.1417 64.8233C83.0916 65.0327 82.967 65.2167 82.7914 65.3406L45.7939 90.2338C45.6799 90.3124 45.5461 90.3572 45.4078 90.3629Z" fill="#7F381F"/>
<path d="M40.903 87.7519C40.7683 87.7568 40.6351 87.7234 40.5186 87.6556C40.4021 87.5877 40.3071 87.4881 40.2447 87.3684C40.1439 87.1781 40.1159 86.9574 40.166 86.7479C40.2161 86.5383 40.3409 86.3544 40.5168 86.2307L77.518 61.3375C77.601 61.2793 77.6953 61.2395 77.7948 61.2208C77.8943 61.202 77.9966 61.2048 78.0949 61.2289C78.1932 61.253 78.2853 61.2978 78.365 61.3604C78.4446 61.423 78.5101 61.502 78.5569 61.5919C78.6573 61.7823 78.6851 62.0029 78.635 62.2123C78.5849 62.4218 78.4604 62.6057 78.2848 62.7297L41.2836 87.6228C41.1708 87.6999 41.0392 87.7445 40.903 87.7519Z" fill="#7F381F"/>
<path d="M36.3983 85.1372C36.2635 85.1424 36.1301 85.1093 36.0133 85.0418C35.8965 84.9743 35.8012 84.875 35.7382 84.7555C35.6372 84.5649 35.6092 84.3439 35.6593 84.1341C35.7094 83.9242 35.8342 83.7399 36.0103 83.6159L73.006 58.7135C73.089 58.6556 73.1833 58.616 73.2827 58.5975C73.3822 58.5789 73.4844 58.5818 73.5826 58.6058C73.6808 58.6299 73.7728 58.6746 73.8525 58.737C73.9322 58.7995 73.9978 58.8782 74.0448 58.968C74.1453 59.1583 74.173 59.3789 74.1229 59.5883C74.0728 59.7978 73.9483 59.9817 73.7727 60.1057L36.7844 85.0081C36.6703 85.0867 36.5365 85.1314 36.3983 85.1372Z" fill="#7F381F"/>
<path d="M31.8899 82.5261C31.7553 82.5311 31.622 82.4977 31.5055 82.4298C31.389 82.3619 31.2941 82.2624 31.2317 82.1426C31.1308 81.9523 31.1028 81.7316 31.153 81.5221C31.2031 81.3125 31.3279 81.1286 31.5038 81.0049L68.5068 56.1043C68.5898 56.0464 68.6842 56.0069 68.7836 55.9883C68.883 55.9698 68.9852 55.9726 69.0834 55.9967C69.1817 56.0207 69.2737 56.0654 69.3534 56.1279C69.4331 56.1903 69.4986 56.269 69.5457 56.3588C69.6465 56.5491 69.6745 56.7698 69.6244 56.9793C69.5742 57.1889 69.4495 57.3728 69.2735 57.4965L32.2705 82.3971C32.1577 82.4741 32.0261 82.5187 31.8899 82.5261Z" fill="#7F381F"/>
<path d="M27.387 79.9115C27.2515 79.9158 27.1176 79.8815 27.0008 79.8127C26.884 79.7438 26.789 79.6432 26.7269 79.5224C26.6263 79.3317 26.5985 79.1109 26.6486 78.9011C26.6987 78.6914 26.8233 78.5071 26.999 78.3828L63.9965 53.4878C64.0795 53.4299 64.1739 53.3903 64.2733 53.3718C64.3727 53.3532 64.4749 53.3561 64.5732 53.3801C64.6714 53.4042 64.7634 53.4489 64.8431 53.5114C64.9228 53.5738 64.9883 53.6525 65.0354 53.7423C65.1361 53.933 65.1639 54.1542 65.1135 54.364C65.063 54.5739 64.9378 54.7581 64.7614 54.8818L27.7749 79.7824C27.6599 79.8604 27.5257 79.9051 27.387 79.9115Z" fill="#7F381F"/>
<path d="M22.8805 77.3097C22.7457 77.3143 22.6123 77.2808 22.4956 77.2129C22.3788 77.1451 22.2835 77.0457 22.2204 76.9261C22.1198 76.7356 22.0921 76.5148 22.1425 76.3052C22.193 76.0957 22.3181 75.9118 22.4944 75.7884L59.4937 50.8768C59.577 50.8191 59.6715 50.7798 59.771 50.7614C59.8704 50.743 59.9727 50.7459 60.071 50.7699C60.1693 50.794 60.2614 50.8386 60.3413 50.9008C60.4211 50.9631 60.487 51.0416 60.5344 51.1312C60.6351 51.3217 60.6628 51.5426 60.6123 51.7521C60.5619 51.9617 60.4367 52.1455 60.2605 52.269L23.2593 77.1714C23.1483 77.2519 23.0171 77.2998 22.8805 77.3097Z" fill="#7F381F"/>
<path d="M18.3739 74.6894C18.2392 74.6943 18.1059 74.6609 17.9895 74.593C17.873 74.5252 17.778 74.4256 17.7156 74.3059C17.6144 74.1157 17.5862 73.8949 17.6363 73.6852C17.6865 73.4755 17.8115 73.2916 17.9877 73.1681L54.9871 48.2621C55.0702 48.2044 55.1645 48.1651 55.2639 48.1467C55.3632 48.1283 55.4653 48.1312 55.5635 48.1553C55.6616 48.1793 55.7536 48.2239 55.8333 48.2862C55.913 48.3485 55.9787 48.427 56.0259 48.5165C56.1268 48.7068 56.1548 48.9275 56.1046 49.137C56.0545 49.3466 55.9297 49.5305 55.7538 49.6542L18.7545 74.5603C18.6416 74.6371 18.51 74.6817 18.3739 74.6894Z" fill="#7F381F"/>
<path d="M13.8674 72.0747C13.733 72.0796 13.5999 72.0464 13.4835 71.9789C13.3671 71.9114 13.272 71.8123 13.2091 71.693C13.1082 71.5025 13.0801 71.2815 13.1302 71.0716C13.1803 70.8618 13.3052 70.6775 13.4813 70.5535L50.4843 45.6603C50.5674 45.6027 50.6617 45.5634 50.7611 45.545C50.8604 45.5266 50.9625 45.5295 51.0607 45.5535C51.1588 45.5776 51.2508 45.6222 51.3305 45.6844C51.4102 45.7467 51.4758 45.8252 51.5231 45.9147C51.6236 46.1051 51.6513 46.3257 51.6012 46.5351C51.5511 46.7446 51.4266 46.9285 51.251 47.0525L14.248 71.9456C14.1355 72.0233 14.0037 72.068 13.8674 72.0747Z" fill="#7F381F"/>
<path d="M9.36447 69.4637C9.22964 69.4684 9.09625 69.4348 8.97952 69.367C8.8628 69.2992 8.76745 69.1998 8.70439 69.0802C8.60395 68.8898 8.57618 68.6693 8.62627 68.4598C8.67637 68.2504 8.80089 68.0664 8.97651 67.9425L45.9777 43.0382C46.0609 42.9811 46.1551 42.9422 46.2542 42.924C46.3534 42.9058 46.4553 42.9087 46.5532 42.9325C46.6512 42.9563 46.7431 43.0005 46.8229 43.0623C46.9027 43.124 46.9687 43.2019 47.0165 43.2909C47.1175 43.4814 47.1456 43.7024 47.0954 43.9123C47.0453 44.1221 46.9205 44.3064 46.7444 44.4304L9.74323 69.3347C9.63129 69.412 9.50019 69.4566 9.36447 69.4637Z" fill="#7F381F"/>
<path d="M68.0067 103.425C67.8719 103.43 67.7384 103.397 67.6216 103.329C67.5049 103.261 67.4096 103.162 67.3467 103.042C67.245 102.852 67.2166 102.631 67.2667 102.421C67.3169 102.211 67.4422 102.027 67.6188 101.904L106.757 75.5192C106.84 75.4613 106.934 75.4217 107.033 75.4032C107.133 75.3846 107.235 75.3874 107.333 75.4115C107.431 75.4356 107.523 75.4803 107.603 75.5427C107.683 75.6052 107.748 75.6839 107.795 75.7736C107.896 75.9642 107.923 76.1849 107.873 76.3944C107.822 76.6039 107.697 76.7877 107.521 76.9114L68.3855 103.296C68.2733 103.373 68.1423 103.418 68.0067 103.425Z" fill="#562710"/>
<path d="M71.9028 87.575C71.8458 87.4108 71.7649 87.2467 71.6454 87.2873C71.6118 87.305 71.5836 87.3315 71.5639 87.3639C71.5441 87.3964 71.5335 87.4337 71.5332 87.4717C71.5329 87.5246 71.5423 87.5771 71.5608 87.6266C71.5976 87.7446 71.6711 87.811 71.7079 87.9308C72.1436 89.3783 70.715 89.8338 69.9611 89.8891C67.8209 90.0458 65.7194 89.0796 63.752 88.0286C60.9241 86.5294 58.1128 84.8699 55.171 83.8908C52.6998 83.0721 48.857 82.2589 47.4302 86.0353C47.4008 86.1109 47.489 86.2492 47.5277 86.1643C49.0758 82.6738 52.6171 83.3984 55.057 84.2061C58.0411 85.1981 60.8726 86.8816 63.7281 88.401C65.6366 89.4152 67.6389 90.2985 69.7093 90.245C70.6543 90.221 72.561 89.6715 71.9726 87.787C71.9469 87.7372 71.9248 87.6561 71.9028 87.575Z" fill="#F7C94C"/>
<path d="M52.2089 1.55888C52.2614 1.63737 52.3022 1.72309 52.3302 1.81335L52.1739 1.24173C52.1647 1.20669 52.1519 1.1735 52.1408 1.14031V1.12002C52.1304 1.08508 52.1169 1.05114 52.1004 1.01861L52.0746 0.972509C52.062 0.945937 52.0479 0.920083 52.0324 0.895064L51.9478 0.777052C51.9172 0.737364 51.8841 0.699785 51.8485 0.664572C51.5632 0.398842 51.2131 0.21314 50.8336 0.126142C49.3222 -0.273993 47.2022 0.310535 46.099 1.4169C45.9529 1.56154 45.8245 1.7231 45.7166 1.89817C45.6943 1.92875 45.6753 1.96149 45.6596 1.9959C45.6466 2.01279 45.6361 2.03141 45.6283 2.05121C45.6099 2.08625 45.5934 2.12497 45.5768 2.1637C45.5196 2.29222 45.4806 2.42815 45.461 2.56752C45.4384 2.73003 45.4477 2.89542 45.4886 3.05432L45.6724 3.71076C45.6332 3.60058 45.6121 3.48475 45.6099 3.36779C45.8269 3.71629 46.2332 3.99841 46.8216 4.15331C48.333 4.55528 50.4548 3.97997 51.558 2.86255C51.9919 2.42553 52.2015 1.97377 52.2089 1.55888Z" fill="#562710"/>
<path d="M72.9524 78.2208L66.256 80.0518L66.0721 79.3972L45.6538 3.69982C45.622 3.59215 45.6071 3.48017 45.6097 3.36791C45.6189 2.95487 45.8303 2.5031 46.2624 2.06609C47.3656 0.959724 49.4856 0.378883 50.9988 0.77533C51.3777 0.861607 51.7272 1.04671 52.0119 1.31192C52.0861 1.38649 52.1515 1.4694 52.2068 1.559C52.2593 1.63749 52.3002 1.72321 52.3281 1.81347C52.3281 1.82822 52.3392 1.84481 52.3447 1.85772V1.87432L72.9524 78.2208Z" fill="url(#paint5_linear_13_1719)"/>
<path d="M71.6009 77.1255C73.1123 77.5275 73.4396 78.7555 72.3364 79.8674C71.2332 80.9793 69.1151 81.5565 67.6019 81.1582C66.0886 80.7599 65.7632 79.5282 66.8664 78.4163C67.9696 77.3044 70.0877 76.7143 71.6009 77.1255Z" fill="#D268CC"/>
<path d="M72.7704 83.4373C72.7723 83.4066 72.7723 83.3758 72.7704 83.3451L72.9763 78.6836C72.9778 78.6801 72.9778 78.6761 72.9763 78.6726V78.6375C72.9781 78.6093 72.9781 78.581 72.9763 78.5527V78.5048C72.9616 77.8834 72.4854 77.3542 71.59 77.1163C70.0767 76.7143 67.9568 77.2915 66.8536 78.407C66.2137 79.0524 66.0593 79.7365 66.3369 80.275L66.359 80.3081C66.3884 80.3615 66.4216 80.4126 66.4583 80.4612L66.4785 80.4944C66.4793 80.4961 66.4797 80.498 66.4797 80.4999C66.4797 80.5018 66.4793 80.5037 66.4785 80.5055L68.9975 84.4183C69.1673 84.6461 69.417 84.801 69.6961 84.8516C70.1736 84.9508 70.6677 84.9357 71.1383 84.8076C71.6088 84.6794 72.0426 84.4418 72.4045 84.114C72.5995 83.9366 72.7285 83.698 72.7704 83.4373Z" fill="url(#paint6_linear_13_1719)"/>
<path d="M58.3884 32.8341C58.39 32.8316 58.3909 32.8287 58.3909 32.8258C58.3909 32.8228 58.39 32.8199 58.3884 32.8175L58.3645 32.7253C58.3201 32.6352 58.2552 32.5569 58.175 32.4967C58.0948 32.4364 58.0016 32.396 57.903 32.3786C57.6057 32.3176 57.2983 32.3273 57.0055 32.407C56.7127 32.4868 56.4426 32.6343 56.2169 32.8377C56.1429 32.9012 56.0842 32.9806 56.045 33.07C56.0058 33.1594 55.9873 33.2565 55.9908 33.354L56.022 33.4721L68.9827 81.503L71.7187 82.2351L58.3884 32.8341Z" fill="#47312E"/>
<path d="M67.931 77.64L68.9772 81.5122L71.7187 82.2351L70.3047 76.9964C69.4771 77.0409 68.6682 77.2602 67.931 77.64Z" fill="#332322"/>
<path d="M72.4908 85.473L72.6747 81.2449C72.6774 81.2068 72.6774 81.1686 72.6747 81.1306C72.6747 80.6843 72.3327 80.3063 71.691 80.1348C70.6228 79.849 69.1169 80.2565 68.3447 81.0439C67.8942 81.4975 67.782 81.9769 67.9769 82.3586L67.9898 82.3844L68.0542 82.4822L70.3672 86.0705C70.4603 86.199 70.5981 86.2879 70.7533 86.3194C71.0217 86.3755 71.2995 86.3671 71.5641 86.295C71.8287 86.2229 72.0725 86.0891 72.2757 85.9045C72.3389 85.851 72.3905 85.7851 72.4274 85.7109C72.4644 85.6368 72.486 85.5558 72.4908 85.473Z" fill="#D268CC"/>
<path d="M72.4908 85.473L72.6747 81.2449C72.6774 81.2068 72.6774 81.1686 72.6747 81.1306C72.6747 80.6843 72.3327 80.3063 71.691 80.1348C70.6228 79.849 69.1169 80.2565 68.3447 81.0439C67.8942 81.4975 67.782 81.9769 67.9769 82.3586L67.9898 82.3844L68.0542 82.4822L70.3672 86.0705C70.4603 86.199 70.5981 86.2879 70.7533 86.3194C71.0217 86.3755 71.2995 86.3671 71.5641 86.295C71.8287 86.2229 72.0725 86.0891 72.2757 85.9045C72.3389 85.851 72.3905 85.7851 72.4274 85.7109C72.4644 85.6368 72.486 85.5558 72.4908 85.473Z" fill="url(#paint7_linear_13_1719)"/>
<path d="M72.2851 85.9063C72.0813 86.0905 71.837 86.2239 71.5722 86.2957C71.3074 86.3674 71.0294 86.3756 70.7608 86.3194C70.6063 86.2883 70.4695 86.1993 70.3784 86.0705L69.209 84.2579C69.0251 83.9721 69.0913 83.5959 69.4425 83.2419C69.7683 82.9469 70.1588 82.733 70.5823 82.6174C71.0059 82.5017 71.4506 82.4876 71.8806 82.5762C72.3421 82.6997 72.5884 82.9726 72.594 83.2935V83.3783L72.502 85.473C72.4972 85.5563 72.4755 85.6376 72.4381 85.7122C72.4008 85.7867 72.3487 85.8527 72.2851 85.9063Z" fill="url(#paint8_linear_13_1719)"/>
<path d="M72.0459 85.0232C72.5331 85.1522 72.6398 85.5468 72.2849 85.9045C72.0817 86.0891 71.8379 86.2229 71.5733 86.295C71.3087 86.3671 71.0309 86.3755 70.7625 86.3194C70.2752 86.1904 70.1686 85.7958 70.5235 85.438C70.7269 85.2538 70.9707 85.1203 71.2352 85.0482C71.4997 84.9761 71.7775 84.9675 72.0459 85.0232Z" fill="url(#paint9_linear_13_1719)"/>
<path d="M52.1112 9.57099C52.0739 9.46857 52.0099 9.37809 51.9258 9.309C51.8417 9.23991 51.7406 9.19474 51.6331 9.17823C51.3378 9.11607 51.0319 9.12511 50.7407 9.20461C50.4495 9.28411 50.1813 9.4318 49.9581 9.63553C49.8726 9.70371 49.8072 9.79398 49.7689 9.89665C49.7307 9.99931 49.7211 10.1105 49.7412 10.2182L55.9926 33.3541C55.9891 33.2565 56.0077 33.1594 56.0468 33.0701C56.086 32.9807 56.1448 32.9013 56.2188 32.8378C56.4444 32.6344 56.7145 32.4868 57.0073 32.4071C57.3001 32.3274 57.6075 32.3176 57.9048 32.3787C58.0035 32.3961 58.0967 32.4365 58.1768 32.4967C58.257 32.557 58.3219 32.6353 58.3663 32.7253L52.1112 9.57099Z" fill="#604542"/>
<path d="M51.896 10.15C51.6716 10.3522 51.4029 10.4986 51.1116 10.5774C50.8203 10.6562 50.5146 10.6652 50.2192 10.6036C50.1132 10.5871 50.0135 10.5428 49.9301 10.4751C49.8468 10.4074 49.7829 10.3188 49.7448 10.2182C49.7239 10.1108 49.7328 9.99973 49.7704 9.89702C49.808 9.7943 49.8729 9.70387 49.9581 9.63553C50.1813 9.4318 50.4495 9.28411 50.7407 9.20461C51.0319 9.12511 51.3378 9.11607 51.6331 9.17823C51.7433 9.18587 51.8483 9.22773 51.9336 9.29799C52.019 9.36826 52.0804 9.46344 52.1093 9.5703C52.1382 9.67717 52.1332 9.79041 52.095 9.8943C52.0568 9.99819 51.9872 10.0876 51.896 10.15Z" fill="#47312E"/>
<path d="M53.1372 6.1338V6.10245C53.1337 6.08746 53.1294 6.07269 53.1243 6.0582L52.0303 2.01628C52.0239 1.98437 52.0153 1.95295 52.0046 1.92224V1.89827C51.8611 1.48338 51.453 1.1441 50.8131 0.976298C49.4525 0.60751 47.544 1.13303 46.5511 2.13429C46.0528 2.63769 45.88 3.1669 45.9995 3.60944L47.1027 7.70299V7.72512V7.74909C47.2351 8.17873 47.6433 8.53277 48.3052 8.70794C49.6658 9.07673 51.5743 8.5512 52.5672 7.54994C53.0544 7.07421 53.2309 6.57081 53.1372 6.1338Z" fill="#D268CC"/>
<path d="M53.1372 6.1338V6.10245C53.1337 6.08746 53.1294 6.07269 53.1243 6.0582L52.0303 2.01628C52.0239 1.98437 52.0153 1.95295 52.0046 1.92224V1.89827C51.8611 1.48338 51.453 1.1441 50.8131 0.976298C49.4525 0.60751 47.544 1.13303 46.5511 2.13429C46.0528 2.63769 45.88 3.1669 45.9995 3.60944L47.1027 7.70299V7.72512V7.74909C47.2351 8.17873 47.6433 8.53277 48.3052 8.70794C49.6658 9.07673 51.5743 8.5512 52.5672 7.54994C53.0544 7.07421 53.2309 6.57081 53.1372 6.1338Z" fill="#562710"/>
<path d="M51.9108 5.08832C53.2714 5.4571 53.5656 6.55425 52.5782 7.55551C51.5909 8.55677 49.6768 9.08413 48.3162 8.71534C46.9556 8.34656 46.6614 7.24019 47.6488 6.24815C48.6361 5.25611 50.5502 4.7269 51.9108 5.08832Z" fill="#562710"/>
<path d="M72.386 87.2285L71.9576 85.5302C71.9401 85.4822 71.9101 85.4397 71.8706 85.4073C71.8311 85.3748 71.7837 85.3536 71.7333 85.3458C71.5956 85.3175 71.4532 85.3218 71.3174 85.3587C71.1817 85.3955 71.0565 85.4637 70.9519 85.5579C70.913 85.5903 70.8833 85.6324 70.8659 85.68C70.8484 85.7276 70.8438 85.779 70.8526 85.829L71.2736 87.5254C71.3018 87.6216 71.3544 87.7088 71.4263 87.7784C71.4982 87.848 71.587 87.8976 71.6838 87.9224C71.7807 87.9471 71.8823 87.9461 71.9787 87.9195C72.075 87.8929 72.1628 87.8416 72.2334 87.7706C72.3029 87.7009 72.3534 87.6144 72.3802 87.5195C72.4069 87.4246 72.4089 87.3244 72.386 87.2285Z" fill="#562710"/>
<path d="M72.4008 87.3392C72.3992 87.3057 72.3949 87.2724 72.3879 87.2396C72.3654 87.1997 72.3341 87.1654 72.2966 87.1392C72.259 87.113 72.2161 87.0957 72.171 87.0884C72.0336 87.0594 71.8912 87.0635 71.7557 87.1004C71.6202 87.1372 71.4953 87.2058 71.3914 87.3004C71.3527 87.3315 71.323 87.3722 71.3053 87.4186C71.2875 87.4649 71.2823 87.5151 71.2902 87.5641C71.2933 87.5748 71.297 87.5852 71.3013 87.5955L71.3123 87.6268C71.3387 87.6846 71.3762 87.7366 71.4226 87.7799C71.5305 87.8877 71.6766 87.9483 71.829 87.9483C71.9813 87.9483 72.1274 87.8877 72.2353 87.7799C72.2929 87.7227 72.3375 87.6537 72.3661 87.5776C72.3946 87.5016 72.4065 87.4202 72.4008 87.3392Z" fill="#562710"/>
</g>
<defs>
<filter id="filter0_d_13_1719" x="0.00012207" y="0" width="132.741" height="129.353" filterUnits="userSpaceOnUse" color-interpolation-filters="sRGB">
<feFlood flood-opacity="0" result="BackgroundImageFix"/>
<feColorMatrix in="SourceAlpha" type="matrix" values="0 0 0 0 0 0 0 0 0 0 0 0 0 0 0 0 0 0 127 0" result="hardAlpha"/>
<feOffset dx="7" dy="8"/>
<feGaussianBlur stdDeviation="2"/>
<feComposite in2="hardAlpha" operator="out"/>
<feColorMatrix type="matrix" values="0 0 0 0 0 0 0 0 0 0 0 0 0 0 0 0 0 0 0.25 0"/>
<feBlend mode="normal" in2="BackgroundImageFix" result="effect1_dropShadow_13_1719"/>
<feBlend mode="normal" in="SourceGraphic" in2="effect1_dropShadow_13_1719" result="shape"/>
</filter>
<linearGradient id="paint0_linear_13_1719" x1="1.0813" y1="75.2924" x2="119.524" y2="75.2924" gradientUnits="userSpaceOnUse">
<stop stop-color="#7F542C"/>
<stop offset="0.18" stop-color="#8F6331"/>
<stop offset="0.54" stop-color="#B88C3E"/>
<stop offset="1" stop-color="#F7C951"/>
</linearGradient>
<linearGradient id="paint1_linear_13_1719" x1="1.08129" y1="72.4859" x2="119.502" y2="72.4859" gradientUnits="userSpaceOnUse">
<stop stop-color="#F7C951"/>
<stop offset="0.46" stop-color="#B88C3E"/>
<stop offset="0.82" stop-color="#8F6331"/>
<stop offset="1" stop-color="#7F542C"/>
</linearGradient>
<linearGradient id="paint2_linear_13_1719" x1="1.08313" y1="91.862" x2="70.2314" y2="91.862" gradientUnits="userSpaceOnUse">
<stop stop-color="#F7C951"/>
<stop offset="0.46" stop-color="#B88C3E"/>
<stop offset="0.82" stop-color="#8F6331"/>
<stop offset="1" stop-color="#7F542C"/>
</linearGradient>
<linearGradient id="paint3_linear_13_1719" x1="1.92341" y1="71.7355" x2="119.498" y2="71.7355" gradientUnits="userSpaceOnUse">
<stop stop-color="#F7C951"/>
<stop offset="0.46" stop-color="#B88C3E"/>
<stop offset="0.82" stop-color="#8F6331"/>
<stop offset="1" stop-color="#7F542C"/>
</linearGradient>
<linearGradient id="paint4_linear_13_1719" x1="1.92341" y1="71.7354" x2="119.498" y2="71.7354" gradientUnits="userSpaceOnUse">
<stop stop-color="#F7C951"/>
<stop offset="0.46" stop-color="#B88C3E"/>
<stop offset="0.82" stop-color="#8F6331"/>
<stop offset="1" stop-color="#7F542C"/>
</linearGradient>
<linearGradient id="paint5_linear_13_1719" x1="45.6115" y1="40.35" x2="72.9524" y2="40.35" gradientUnits="userSpaceOnUse">
<stop stop-color="#7F542C"/>
<stop offset="0.18" stop-color="#8F6331"/>
<stop offset="0.54" stop-color="#B88C3E"/>
<stop offset="1" stop-color="#F7C951"/>
</linearGradient>
<linearGradient id="paint6_linear_13_1719" x1="66.2156" y1="80.9572" x2="72.991" y2="80.9572" gradientUnits="userSpaceOnUse">
<stop stop-color="#F7C951"/>
<stop offset="0.46" stop-color="#B88C3E"/>
<stop offset="0.82" stop-color="#8F6331"/>
<stop offset="1" stop-color="#7F542C"/>
</linearGradient>
<linearGradient id="paint7_linear_13_1719" x1="67.896" y1="83.2013" x2="72.6894" y2="83.2013" gradientUnits="userSpaceOnUse">
<stop stop-color="#F7C951"/>
<stop offset="0.43" stop-color="#F5C750"/>
<stop offset="0.59" stop-color="#EEC14E"/>
<stop offset="0.7" stop-color="#E3B54B"/>
<stop offset="0.79" stop-color="#D2A545"/>
<stop offset="0.87" stop-color="#BC8F3F"/>
<stop offset="0.94" stop-color="#A17536"/>
<stop offset="1" stop-color="#7F542C"/>
</linearGradient>
<linearGradient id="paint8_linear_13_1719" x1="69.106" y1="84.4367" x2="72.5903" y2="84.4367" gradientUnits="userSpaceOnUse">
<stop stop-color="#F7C951"/>
<stop offset="0.43" stop-color="#F5C750"/>
<stop offset="0.59" stop-color="#EEC14E"/>
<stop offset="0.7" stop-color="#E3B54B"/>
<stop offset="0.79" stop-color="#D2A545"/>
<stop offset="0.87" stop-color="#BC8F3F"/>
<stop offset="0.94" stop-color="#A17536"/>
<stop offset="1" stop-color="#7F542C"/>
</linearGradient>
<linearGradient id="paint9_linear_13_1719" x1="70.3139" y1="85.6704" x2="72.4945" y2="85.6704" gradientUnits="userSpaceOnUse">
<stop stop-color="#F7C951"/>
<stop offset="0.43" stop-color="#F5C750"/>
<stop offset="0.59" stop-color="#EEC14E"/>
<stop offset="0.7" stop-color="#E3B54B"/>
<stop offset="0.79" stop-color="#D2A545"/>
<stop offset="0.87" stop-color="#BC8F3F"/>
<stop offset="0.94" stop-color="#A17536"/>
<stop offset="1" stop-color="#7F542C"/>
</linearGradient>
</defs>
</svg>
