<svg width="98" height="103" viewBox="0 0 98 103" fill="none" xmlns="http://www.w3.org/2000/svg">
<path d="M4.39185 41.5789C4.39163 41.1877 4.46832 40.8002 4.61751 40.4387C4.7667 40.0772 4.98548 39.7488 5.26133 39.4721C5.53718 39.1955 5.8647 38.9761 6.22516 38.8265C6.58561 38.6768 6.97194 38.5999 7.36206 38.6002H91.7503C92.5372 38.6014 93.2915 38.9158 93.8474 39.4743C94.4034 40.0328 94.7157 40.7897 94.7157 41.5789V99.4057C94.7157 100.195 94.4029 100.953 93.8463 101.511C93.2896 102.07 92.5345 102.384 91.7471 102.384H7.36206C6.97194 102.385 6.58561 102.308 6.22516 102.158C5.8647 102.009 5.53718 101.789 5.26133 101.512C4.98548 101.236 4.7667 100.907 4.61751 100.546C4.46832 100.184 4.39163 99.7969 4.39185 99.4057V41.5789Z" fill="url(#paint0_linear_13_1803)"/>
<path d="M82.3071 89.9733H14.8508V90.9203H82.3071V89.9733Z" fill="#562710"/>
<path d="M64.9919 90.9202H64.0444V98.4911H64.9919V90.9202Z" fill="#562710"/>
<path d="M33.1137 90.9202H32.1694V98.4911H33.1137V90.9202Z" fill="#562710"/>
<path d="M31.9272 66.6474C31.9272 69.9956 32.9173 73.2686 34.7721 76.0525C36.6269 78.8364 39.2632 81.0062 42.3477 82.2875C45.4322 83.5688 48.8262 83.9041 52.1007 83.2509C55.3751 82.5977 58.3829 80.9854 60.7436 78.6178C63.1044 76.2503 64.712 73.2339 65.3634 69.9501C66.0147 66.6662 65.6804 63.2624 64.4028 60.1691C63.1252 57.0758 60.9616 54.4319 58.1856 52.5717C55.4097 50.7116 52.1461 49.7187 48.8075 49.7187C44.3321 49.7239 40.0416 51.5091 36.877 54.6827C33.7125 57.8563 31.9324 62.1592 31.9272 66.6474ZM33.6217 66.6474C33.6214 63.6353 34.5118 60.6907 36.1802 58.186C37.8486 55.6813 40.2202 53.7291 42.995 52.5762C45.7698 51.4233 48.8232 51.1214 51.7691 51.7089C54.7149 52.2963 57.4209 53.7467 59.5448 55.8765C61.6688 58.0063 63.1152 60.7199 63.7013 63.6741C64.2874 66.6284 63.9868 69.6906 62.8374 72.4735C61.6881 75.2563 59.7417 77.6349 57.2444 79.3084C54.7471 80.9819 51.811 81.8752 48.8075 81.8752C44.7813 81.8717 40.921 80.2663 38.0739 77.4114C35.2268 74.5564 33.6256 70.6852 33.6217 66.6474Z" fill="#562710"/>
<path d="M43.033 57.2831C42.8147 57.4096 42.6886 57.7145 42.6902 58.115V75.1815C42.6902 75.582 42.8147 75.8836 43.033 76.0101C43.2513 76.1366 43.5779 76.0944 43.9223 75.8917L49.591 72.613L58.6585 67.3609C59.0061 67.1615 59.205 66.9004 59.205 66.6458C59.205 66.3912 59.0061 66.1334 58.6585 65.9323L43.9239 57.3999C43.5779 57.1988 43.2513 57.1567 43.033 57.2831Z" fill="#562710"/>
<path d="M83.3374 1.90182L96.2224 12.0055L96.2369 12.0996L84.7344 14.1281L71.7493 3.94495L83.3374 1.90182Z" fill="url(#paint1_linear_13_1803)"/>
<path d="M35.5684 10.3288L48.5503 20.512L36.9638 22.5551L23.9802 12.3703L35.5684 10.3288Z" fill="url(#paint2_linear_13_1803)"/>
<path d="M11.68 14.5433L24.6652 24.7248L13.0786 26.7696L0.0917969 16.5864L11.68 14.5433Z" fill="url(#paint3_linear_13_1803)"/>
<path d="M59.4492 6.11435L72.436 16.2975L60.8478 18.3406L47.8643 8.15909L59.4492 6.11435Z" fill="url(#paint4_linear_13_1803)"/>
<path d="M94.1142 0L96.2226 12.0058L83.3376 1.90205L94.1142 0Z" fill="#562710"/>
<path d="M71.7488 3.94489L84.734 14.1281L72.436 16.2977L59.4492 6.11449L71.7488 3.94489Z" fill="#562710"/>
<path d="M47.865 8.15935L60.8485 18.3409L48.5505 20.5121L35.5686 10.3289L47.865 8.15935Z" fill="#562710"/>
<path d="M23.9798 12.3704L36.9633 22.5552L24.6653 24.7248L11.6802 14.5432L23.9798 12.3704Z" fill="#562710"/>
<path d="M0 16.6026L0.0921609 16.5864L13.0789 26.7696L2.1262 28.7024L0 16.6026Z" fill="#562710"/>
<path d="M12.9775 28.7089L2.03442 40.8995V40.9952H13.7132L24.7403 28.7089H12.9775Z" fill="url(#paint5_linear_13_1803)"/>
<path d="M61.4838 28.7089L50.4502 40.9952H62.2162L73.2482 28.7089H61.4838Z" fill="url(#paint6_linear_13_1803)"/>
<path d="M85.7325 28.7089L74.7053 40.9952H86.4697L97.4985 28.7089H85.7325Z" fill="url(#paint7_linear_13_1803)"/>
<path d="M37.2306 28.7089L26.2002 40.9952H37.9646L48.9934 28.7089H37.2306Z" fill="url(#paint8_linear_13_1803)"/>
<path d="M24.74 28.7089L13.7129 40.9952H26.2001L37.2304 28.7089H24.74Z" fill="#562710"/>
<path d="M48.9933 28.7089L37.9646 40.9952H50.4501L61.4837 28.7089H48.9933Z" fill="#562710"/>
<path d="M73.248 28.7089L62.2161 40.9952H74.7049L85.732 28.7089H73.248Z" fill="#562710"/>
<path d="M97.592 28.7089H97.4982L86.4695 40.9952H97.592V28.7089Z" fill="#562710"/>
<path d="M7.60401 14.9243L4.70818 15.1221C2.21818 15.2843 0.193848 17.6566 0.193848 20.3904V36.6332C0.193848 39.445 2.27801 41.7329 4.84723 41.7329H19.6659C22.2319 41.7329 24.3209 39.445 24.3209 36.6332V35.1139C24.3209 33.1389 23.5804 30.3969 22.599 28.738L22.4906 28.5581L13.1823 17.8074L13.4232 18.1414C12.2542 16.1583 9.75123 14.7767 7.60401 14.9243Z" fill="url(#paint9_linear_13_1803)"/>
<path d="M4.84102 17.4393C3.45051 17.535 2.30737 18.8646 2.30737 20.3937V36.6333C2.30737 38.164 3.45213 39.4158 4.84749 39.4158H19.6662C21.0632 39.4158 22.2047 38.164 22.2047 36.6333V35.1139C22.2047 33.5848 21.5822 31.2822 20.8223 29.9996L11.6497 19.403C10.8882 18.1171 9.12899 17.1474 7.73524 17.2415L4.84102 17.4393Z" fill="#562710"/>
<path d="M8.69727 21.626C8.69727 22.6443 7.94057 23.4729 7.00925 23.4729C6.07793 23.4729 5.32446 22.6443 5.32446 21.626C5.32446 20.6077 6.07793 19.7775 7.00925 19.7775C7.94057 19.7775 8.69727 20.6045 8.69727 21.626Z" fill="url(#paint10_linear_13_1803)"/>
<path d="M8.69727 35.5258C8.69727 36.5489 7.94057 37.3743 7.00925 37.3743C6.07793 37.3743 5.32446 36.5489 5.32446 35.5258C5.32446 34.5026 6.07793 33.6805 7.00925 33.6805C7.94057 33.6805 8.69727 34.5058 8.69727 35.5258Z" fill="url(#paint11_linear_13_1803)"/>
<path d="M19.8928 35.5257C19.8928 36.5488 19.1361 37.3742 18.208 37.3742C17.28 37.3742 16.52 36.5488 16.52 35.5257C16.52 34.5025 17.2751 33.6804 18.208 33.6804C19.141 33.6804 19.8928 34.5057 19.8928 35.5257Z" fill="url(#paint12_linear_13_1803)"/>
<path d="M81.1526 43.6625H14.8508V44.2641H81.1526V43.6625Z" fill="#562710"/>
<path d="M7.63348 21.318C7.63348 21.8304 7.26968 22.2455 6.82504 22.2455C6.3804 22.2455 6.0166 21.8304 6.0166 21.318C6.0166 20.8056 6.3804 20.3905 6.82504 20.3905C7.26968 20.3905 7.63348 20.8056 7.63348 21.318Z" fill="#562710"/>
<path d="M7.46497 35.2061C7.46497 35.6342 7.16423 35.9796 6.79396 35.9796C6.4237 35.9796 6.12134 35.6342 6.12134 35.2061C6.12134 34.778 6.42208 34.4326 6.79396 34.4326C7.16584 34.4326 7.46497 34.7796 7.46497 35.2061Z" fill="#562710"/>
<path d="M18.74 35.1785C18.74 35.3302 18.6952 35.4785 18.6111 35.6046C18.5271 35.7308 18.4077 35.8291 18.2679 35.8871C18.1282 35.9452 17.9744 35.9604 17.826 35.9308C17.6777 35.9012 17.5414 35.8281 17.4344 35.7209C17.3275 35.6136 17.2547 35.4769 17.2251 35.3281C17.1956 35.1794 17.2108 35.0252 17.2687 34.885C17.3266 34.7449 17.4246 34.6251 17.5503 34.5408C17.6761 34.4565 17.824 34.4115 17.9752 34.4115C18.0757 34.4113 18.1753 34.431 18.2682 34.4695C18.361 34.508 18.4454 34.5644 18.5165 34.6357C18.5876 34.707 18.6439 34.7916 18.6822 34.8848C18.7206 34.9779 18.7402 35.0777 18.74 35.1785Z" fill="#562710"/>
<defs>
<linearGradient id="paint0_linear_13_1803" x1="4.39185" y1="70.4923" x2="94.7189" y2="70.4923" gradientUnits="userSpaceOnUse">
<stop stop-color="#F7C951"/>
<stop offset="0.46" stop-color="#B88C3E"/>
<stop offset="0.82" stop-color="#8F6331"/>
<stop offset="1" stop-color="#7F542C"/>
</linearGradient>
<linearGradient id="paint1_linear_13_1803" x1="71.7493" y1="8.01497" x2="96.2369" y2="8.01497" gradientUnits="userSpaceOnUse">
<stop stop-color="#F7C951"/>
<stop offset="0.46" stop-color="#B88C3E"/>
<stop offset="0.82" stop-color="#8F6331"/>
<stop offset="1" stop-color="#7F542C"/>
</linearGradient>
<linearGradient id="paint2_linear_13_1803" x1="23.9802" y1="16.4419" x2="48.5503" y2="16.4419" gradientUnits="userSpaceOnUse">
<stop stop-color="#F7C951"/>
<stop offset="0.46" stop-color="#B88C3E"/>
<stop offset="0.82" stop-color="#8F6331"/>
<stop offset="1" stop-color="#7F542C"/>
</linearGradient>
<linearGradient id="paint3_linear_13_1803" x1="0.0917969" y1="20.6564" x2="24.6652" y2="20.6564" gradientUnits="userSpaceOnUse">
<stop stop-color="#F7C951"/>
<stop offset="0.46" stop-color="#B88C3E"/>
<stop offset="0.82" stop-color="#8F6331"/>
<stop offset="1" stop-color="#7F542C"/>
</linearGradient>
<linearGradient id="paint4_linear_13_1803" x1="47.8643" y1="12.2275" x2="72.436" y2="12.2275" gradientUnits="userSpaceOnUse">
<stop stop-color="#F7C951"/>
<stop offset="0.46" stop-color="#B88C3E"/>
<stop offset="0.82" stop-color="#8F6331"/>
<stop offset="1" stop-color="#7F542C"/>
</linearGradient>
<linearGradient id="paint5_linear_13_1803" x1="2.03442" y1="34.8528" x2="24.7403" y2="34.8528" gradientUnits="userSpaceOnUse">
<stop stop-color="#F7C951"/>
<stop offset="0.46" stop-color="#B88C3E"/>
<stop offset="0.82" stop-color="#8F6331"/>
<stop offset="1" stop-color="#7F542C"/>
</linearGradient>
<linearGradient id="paint6_linear_13_1803" x1="50.4502" y1="34.8528" x2="73.2482" y2="34.8528" gradientUnits="userSpaceOnUse">
<stop stop-color="#F7C951"/>
<stop offset="0.46" stop-color="#B88C3E"/>
<stop offset="0.82" stop-color="#8F6331"/>
<stop offset="1" stop-color="#7F542C"/>
</linearGradient>
<linearGradient id="paint7_linear_13_1803" x1="74.7053" y1="34.8528" x2="97.4985" y2="34.8528" gradientUnits="userSpaceOnUse">
<stop stop-color="#F7C951"/>
<stop offset="0.46" stop-color="#B88C3E"/>
<stop offset="0.82" stop-color="#8F6331"/>
<stop offset="1" stop-color="#7F542C"/>
</linearGradient>
<linearGradient id="paint8_linear_13_1803" x1="26.1986" y1="34.8528" x2="48.9934" y2="34.8528" gradientUnits="userSpaceOnUse">
<stop stop-color="#F7C951"/>
<stop offset="0.46" stop-color="#B88C3E"/>
<stop offset="0.82" stop-color="#8F6331"/>
<stop offset="1" stop-color="#7F542C"/>
</linearGradient>
<linearGradient id="paint9_linear_13_1803" x1="0.193848" y1="28.3229" x2="24.3209" y2="28.3229" gradientUnits="userSpaceOnUse">
<stop stop-color="#7F542C"/>
<stop offset="0.18" stop-color="#8F6331"/>
<stop offset="0.54" stop-color="#B88C3E"/>
<stop offset="1" stop-color="#F7C951"/>
</linearGradient>
<linearGradient id="paint10_linear_13_1803" x1="5.3277" y1="21.6244" x2="8.70051" y2="21.6244" gradientUnits="userSpaceOnUse">
<stop stop-color="#F7C951"/>
<stop offset="1" stop-color="#7F542C"/>
</linearGradient>
<linearGradient id="paint11_linear_13_1803" x1="5.3277" y1="35.5274" x2="8.70051" y2="35.5274" gradientUnits="userSpaceOnUse">
<stop stop-color="#F7C951"/>
<stop offset="1" stop-color="#7F542C"/>
</linearGradient>
<linearGradient id="paint12_linear_13_1803" x1="16.52" y1="35.5273" x2="19.8928" y2="35.5273" gradientUnits="userSpaceOnUse">
<stop stop-color="#F7C951"/>
<stop offset="1" stop-color="#7F542C"/>
</linearGradient>
</defs>
</svg>
