<svg width="74" height="116" viewBox="0 0 74 116" fill="none" xmlns="http://www.w3.org/2000/svg">
<path d="M31.7819 15.0433C31.3811 14.479 31.0005 13.9166 30.4121 13.5036C29.8585 13.0855 29.2504 12.7455 28.6047 12.4931C28.3547 12.4028 28.0991 12.3087 27.838 12.2091C27.6791 12.1785 27.5251 12.1264 27.3802 12.0543L27.257 12.0192L26.8892 11.9418C26.6723 11.8865 26.4627 11.8109 26.2494 11.7426C26.0471 11.723 25.8449 11.6971 25.6426 11.6652C25.4658 11.6295 25.2954 11.5673 25.137 11.4808C24.9402 11.4575 24.7491 11.3995 24.5725 11.3093L24.1846 11.171C23.3742 10.9183 22.5883 10.5924 21.8366 10.1974C21.7835 10.1652 21.7275 10.1381 21.6693 10.1163C21.1287 9.9411 20.7224 9.54097 20.2535 9.24962C19.9005 8.99996 19.564 8.72772 19.2459 8.4346C18.8101 8.12021 18.3543 7.83441 17.8817 7.57901C17.775 7.51794 17.6577 7.47788 17.536 7.461C17.1885 7.402 16.8391 7.35774 16.4732 7.30611C16.4732 7.22682 16.4512 7.15122 16.4493 7.07562C16.4273 6.39889 16.4659 5.7111 16.3721 5.04729C16.333 4.83714 16.3525 4.62025 16.4284 4.42049C16.5043 4.22073 16.6337 4.04585 16.8024 3.91511C17.3017 3.44489 17.6634 2.84683 17.8486 2.18549C17.9202 1.99608 17.9508 1.79357 17.9384 1.59138C17.9261 1.3892 17.871 1.19196 17.7769 1.01274C17.3337 0.24751 16.2508 -0.305672 15.2487 0.18666C14.6456 0.483535 14.2338 0.935299 14.1823 1.63784C14.1764 1.79088 14.2086 1.94297 14.276 2.08039C14.3147 2.16654 14.3815 2.2369 14.4654 2.27981C14.5493 2.32273 14.6453 2.33564 14.7376 2.31641C14.8298 2.30004 14.9134 2.25179 14.9738 2.18005C15.0343 2.1083 15.0678 2.01758 15.0685 1.92365C15.0697 1.81683 15.0617 1.7101 15.0446 1.60465C15.0261 1.48063 15.0374 1.35398 15.0776 1.23523C15.1178 1.11648 15.1857 1.00908 15.2756 0.921955C15.3655 0.834831 15.4749 0.770508 15.5946 0.734342C15.7144 0.698175 15.841 0.691211 15.9639 0.714027C16.1461 0.744477 16.324 0.79711 16.4935 0.870761C16.6246 0.912957 16.7446 0.984166 16.8447 1.07913C17.1701 1.45713 17.1848 1.87202 16.9256 2.3201C16.6654 2.75955 16.353 3.16573 15.9952 3.52972C15.6808 3.85979 15.4436 4.20645 15.5024 4.71722C15.5815 5.50274 15.5962 6.29563 15.6367 7.08484C15.6367 7.18994 15.6367 7.29689 15.6367 7.39831C15.5858 7.42112 15.5328 7.43903 15.4785 7.45178C14.6012 7.59613 13.8005 8.03967 13.2115 8.70751C13.011 8.92093 12.7946 9.1188 12.5643 9.29941C11.9618 9.76174 11.2792 10.1081 10.5509 10.321C9.65182 10.592 8.7472 10.8465 7.84258 11.1083C7.783 11.1288 7.7183 11.1288 7.65871 11.1083C7.28179 11.2319 6.90302 11.3241 6.51139 11.4365L6.42865 11.4587C6.40546 11.4729 6.38079 11.4847 6.3551 11.4937L5.90279 11.6892C5.6286 11.815 5.3412 11.9097 5.04598 11.9713C5.00736 11.9713 4.96875 11.9805 4.93014 11.9842C4.93014 12.0082 4.93014 12.0321 4.93014 12.0561C4.64147 12.2091 4.36751 12.353 4.09539 12.5005C3.77598 12.6511 3.46862 12.8262 3.17606 13.0242C2.55643 13.5054 1.946 14.0015 1.37234 14.5362C1.10807 14.7962 0.891477 15.1008 0.732482 15.436C0.571963 15.7046 0.518754 16.0241 0.583551 16.3304C0.589518 16.3769 0.60599 16.4214 0.631717 16.4605C0.657444 16.4997 0.691748 16.5324 0.732005 16.5562C0.772262 16.5801 0.817414 16.5944 0.864018 16.598C0.910623 16.6017 0.957447 16.5947 1.00092 16.5774C1.22422 16.5185 1.42274 16.3893 1.56723 16.2087C1.81729 15.9358 2.06184 15.6555 2.33212 15.4029C2.78464 14.9788 3.28365 14.6077 3.81959 14.2965C4.33361 14.0019 4.8764 13.7609 5.43945 13.5774C5.44864 13.6069 5.45784 13.6327 5.46519 13.6622C5.88695 13.4214 6.33987 13.2402 6.81109 13.1237C6.99496 13.0721 7.17882 13.0334 7.36269 12.9984C7.62493 12.8873 7.89622 12.7991 8.17354 12.7347C8.16815 12.7222 8.16384 12.7092 8.16067 12.6959C8.97151 12.4636 9.72536 12.246 10.4811 12.0321C10.9701 11.8938 11.4666 11.7758 11.952 11.6228C12.5036 11.4513 13.0184 11.2153 13.5663 11.0696C14.1414 10.8898 14.6932 10.6422 15.2101 10.332C15.375 10.2504 15.5558 10.2063 15.7396 10.2029C16.1078 10.1904 16.4763 10.2027 16.8428 10.2398C17.0873 10.2716 17.3269 10.3336 17.5562 10.4242C18.3505 10.7229 19.1522 11.0069 19.9262 11.3462C21.0147 11.8293 22.1676 12.1243 23.2873 12.5097C23.5355 12.5945 23.7985 12.6314 24.0522 12.6941C24.2361 12.7402 24.4052 12.7974 24.6038 12.8545C24.6029 12.8643 24.6029 12.8742 24.6038 12.884C24.6645 12.884 24.7251 12.884 24.7877 12.9025C25.1444 12.9615 25.4937 13.109 25.8431 13.1993C26.0269 13.2473 26.2108 13.3266 26.3946 13.3837H26.4241C26.4637 13.3892 26.5025 13.3991 26.5399 13.4132C26.6668 13.4446 26.8102 13.4796 26.7569 13.487C26.9353 13.5159 27.1091 13.5686 27.2735 13.6437C27.3 13.6474 27.3259 13.6542 27.3508 13.664C27.8325 13.8656 28.3136 14.0703 28.7941 14.278C29.3935 14.5362 29.8973 14.94 30.425 15.3199C30.7514 15.5805 31.0496 15.8747 31.3149 16.1976C31.3527 16.2532 31.4068 16.2957 31.4697 16.3192C31.5327 16.3426 31.6013 16.3459 31.6661 16.3284C31.731 16.311 31.7888 16.2738 31.8316 16.2219C31.8745 16.1701 31.9001 16.1062 31.9051 16.039C31.9879 15.72 32.0154 15.3733 31.7819 15.0433Z" fill="#562710"/>
<path d="M72.8539 98.9794C72.5395 98.9038 72.2232 98.8356 71.9088 98.7563C71.6048 98.7081 71.3053 98.6347 71.0134 98.5369C70.6817 98.4117 70.3404 98.3136 69.9929 98.2437C69.6252 98.1515 69.2409 98.0796 68.8658 97.9911C68.7748 97.9726 68.6881 97.9369 68.6103 97.886C68.294 97.6426 67.9171 97.5596 67.5457 97.4563C67.2515 97.3734 66.9389 97.3512 66.6815 97.1484C66.5756 97.0828 66.4561 97.0424 66.3322 97.0304C65.8656 96.924 65.4137 96.7611 64.9863 96.5454C64.4347 96.302 63.8996 96.0328 63.3535 95.7802C63.1458 95.6825 62.927 95.6069 62.7192 95.5073C62.2485 95.2805 61.8256 94.9541 61.3053 94.8251C61.235 94.7921 61.1695 94.75 61.1104 94.6997C60.7426 94.4765 60.3749 94.2424 59.998 94.0358C59.3489 93.68 58.6815 93.3554 58.0398 92.9885C57.5292 92.7005 57.0339 92.386 56.556 92.0462C55.9787 91.6313 55.3443 91.3087 54.7817 90.8661C54.322 90.4973 53.7815 90.2502 53.3715 89.8188C53.3143 89.7679 53.2528 89.7222 53.1876 89.6823C52.6581 89.3135 52.1285 88.9355 51.6008 88.5593C51.5512 88.5243 51.5126 88.4727 51.4629 88.4358C50.9444 88.0486 50.573 87.4825 49.981 87.1819C49.9553 87.1646 49.9324 87.1434 49.9129 87.1192C49.7046 86.8939 49.4816 86.6826 49.2455 86.4868C48.7785 86.1475 48.4328 85.6865 48.0081 85.3048C47.5834 84.9231 47.245 84.4529 46.7799 84.1099C46.686 84.0295 46.6004 83.94 46.5243 83.8426C46.2172 83.4996 45.9727 83.0884 45.5516 82.8597C45.477 82.8049 45.4118 82.7383 45.3586 82.6624C45.103 82.3729 44.8658 82.065 44.59 81.7976C44.2335 81.4334 43.9006 81.0466 43.5935 80.6396C43.2735 80.2432 42.9499 79.8486 42.6263 79.4521C42.2457 78.9875 41.8559 78.5302 41.4845 78.0581C41.0929 77.5566 40.7104 77.0513 40.3445 76.5313C40.089 76.1625 39.7819 75.8435 39.5815 75.425C39.3716 75.0657 39.1356 74.7224 38.8755 74.3979C38.5353 73.9 38.1988 73.3985 37.8624 72.8988C37.8385 72.86 37.8274 72.8121 37.8054 72.7715C37.6895 72.5705 37.5774 72.3695 37.456 72.1722C37.3154 71.9888 37.1923 71.7924 37.0883 71.5859C36.8934 71.0714 36.5643 70.6399 36.2921 70.1734C36.1818 69.989 36.0807 69.7936 35.9741 69.6055L35.2588 68.3627C35.0437 67.9939 34.8175 67.6251 34.619 67.2379C34.3487 66.716 34.1005 66.185 33.8412 65.6576C33.5544 65.0749 33.2584 64.4978 32.9826 63.9114C32.6718 63.2531 32.3776 62.5893 32.0779 61.9273C31.8757 61.4756 31.6698 61.0238 31.4785 60.5665C31.1218 59.7091 30.7725 58.8479 30.4231 57.985C30.1786 57.382 29.9285 56.7809 29.7024 56.1724C29.4487 55.492 29.217 54.8023 28.9798 54.1145C28.8327 53.6923 28.6875 53.27 28.5496 52.8441C28.5036 52.6984 28.4926 52.5398 28.4466 52.3923C28.2112 51.64 27.9612 50.8932 27.7369 50.139C27.5769 49.6043 27.4482 49.0621 27.3085 48.5237C27.1687 47.9853 27.0253 47.4174 26.8874 46.8642C26.7495 46.311 26.6006 45.7578 26.4866 45.1936C26.3413 44.4818 26.1648 43.7793 26.0582 43.0583C25.9239 42.1566 25.7272 41.2641 25.5801 40.3624C25.4569 39.5991 25.3558 38.8301 25.2675 38.0612C25.1756 37.2628 25.0947 36.4625 25.0359 35.6641C24.9421 34.3494 24.8667 33.0328 24.7913 31.7181C24.7693 31.3308 24.7913 30.9418 24.7582 30.5564C24.6994 29.7524 24.613 28.9503 24.5652 28.1463C24.5526 27.8524 24.578 27.558 24.6406 27.2705C24.8409 26.3969 25.1095 25.5405 25.4441 24.7092C25.6463 24.1727 25.9056 23.6545 26.0655 23.1069C26.2917 22.3361 26.4516 21.545 26.6318 20.7614C26.6809 20.5499 26.7165 20.3356 26.7385 20.1197C26.8169 19.1932 26.8439 18.263 26.8194 17.3335C26.7844 16.6535 26.7844 15.9722 26.8194 15.2922C26.8566 14.7513 26.9667 14.2178 27.1467 13.7064C27.1791 13.508 27.2252 13.3121 27.2846 13.1201C27.3673 12.8601 27.5659 12.5669 27.5824 12.294C27.5874 12.2383 27.5954 12.1829 27.6063 12.128L27.5585 12.1096C27.5861 11.9602 27.6118 11.809 27.6413 11.6597C27.7019 11.3407 27.7736 11.0235 27.8251 10.7027C27.8427 10.6426 27.848 10.5797 27.8409 10.5175C27.8338 10.4553 27.8143 10.3952 27.7836 10.3407C27.7529 10.2862 27.7117 10.2385 27.6623 10.2002C27.6129 10.162 27.5563 10.1341 27.496 10.1181C27.3184 10.0565 27.1323 10.0235 26.9444 10.0204C26.6208 10.0204 26.2972 10.0407 25.9717 10.0407C25.8256 10.0308 25.6808 10.0734 25.5632 10.161C25.4456 10.2485 25.3629 10.3752 25.3301 10.5183C25.2271 10.8207 25.0874 11.1102 24.9513 11.4402L24.8833 11.4163C24.8854 11.6523 24.8318 11.8854 24.727 12.0967L24.7159 12.2331C24.7155 12.4494 24.6757 12.6638 24.5983 12.8656H24.6075C24.6066 12.962 24.598 13.0582 24.5817 13.1533C24.4347 13.8349 24.2172 14.4992 23.9327 15.1355C23.6297 15.7521 23.1247 16.2455 22.5022 16.5332C21.3755 17.0839 20.1649 17.4416 18.9205 17.5916C18.3082 17.6635 17.6996 17.7945 17.0818 17.8277C16.6045 17.8315 16.1276 17.7994 15.655 17.7318C15.1788 17.6838 14.7026 17.6248 14.2301 17.5566C14.0024 17.5164 13.7771 17.4635 13.5553 17.398C13.1379 17.2911 12.7095 17.2136 12.3032 17.0624C11.6798 16.843 11.0676 16.5885 10.4645 16.3359C10.1372 16.2013 9.8228 16.0353 9.49736 15.8971C9.39958 15.8517 9.31336 15.7846 9.2452 15.7009C9.17704 15.6172 9.12872 15.5191 9.10389 15.4139C8.92002 14.8608 8.71593 14.3076 8.52287 13.7544C8.40887 13.4188 8.29855 13.0832 8.17168 12.7052L8.2581 12.6812C8.24339 12.6499 8.22501 12.6259 8.21213 12.5927C8.12572 12.3862 7.70283 11.4089 8.04114 11.7611C7.87452 11.5772 7.74913 11.3597 7.67341 11.1231C7.61457 11.1047 7.57228 11.0567 7.51712 10.959C7.37608 10.6849 7.2189 10.4196 7.04642 10.1642C6.94814 10.0246 6.81658 9.91175 6.66372 9.83606C6.51087 9.76038 6.34156 9.72424 6.17122 9.73092C5.68935 9.74757 5.22597 9.92103 4.85107 10.2251C4.58814 10.4095 4.57159 10.4832 4.6672 10.8188C4.715 11.0032 4.77016 11.1766 4.81061 11.3573C4.8621 11.5933 4.97242 11.8201 4.95219 12.069C4.94116 12.069 4.93013 12.0801 4.92094 12.0875C4.95304 12.1603 4.98128 12.2348 5.00551 12.3106C5.04228 12.4378 5.0717 12.5669 5.09744 12.6941C5.17651 13.0168 5.26109 13.3321 5.32176 13.6382C5.36773 13.6216 5.41186 13.6032 5.45783 13.5884C5.5277 13.8189 5.59572 14.0218 5.65088 14.2283C5.83475 14.9456 6.01861 15.6647 6.21351 16.3839C6.27976 16.6554 6.2572 16.9411 6.14916 17.1989C5.89726 17.8811 5.64904 18.5652 5.42657 19.2567C5.12832 20.1566 5.06129 21.1175 5.23167 22.0503C5.3719 22.8786 5.68519 23.6679 6.151 24.3663C6.64744 25.0946 7.12549 25.8414 7.60905 26.579C7.88853 27.0031 8.16985 27.4291 8.43645 27.8698C8.73605 28.3754 8.989 28.9074 9.19214 29.4592C9.43928 30.0426 9.63253 30.6475 9.76948 31.2663C9.80572 31.5228 9.89194 31.7697 10.0232 31.9928C10.1866 31.9488 10.3474 31.8959 10.5049 31.8342C10.8285 31.6886 11.1466 31.53 11.4647 31.3732C12.0163 31.1003 12.5845 30.8496 13.1195 30.549C14.4636 29.8022 15.7175 28.9282 16.7472 27.7646C16.7824 27.7323 16.8206 27.7033 16.8612 27.678C16.7375 28.0177 16.5503 28.3307 16.3096 28.6C15.616 29.3938 14.8489 30.1198 14.0186 30.7684C12.829 31.7328 11.5659 32.6013 10.2898 33.4477C8.10182 34.9007 6.0609 36.5252 4.30131 38.4945C2.83038 40.1541 1.61319 41.9704 0.892431 44.0946C0.465801 45.2938 0.203543 46.5456 0.112841 47.8156C0.0567042 49.1032 0.156098 50.3929 0.408863 51.6566C0.741877 53.329 1.16415 54.9823 1.67386 56.6094C1.70696 56.7219 1.75476 56.8307 1.80809 56.9782C1.85711 56.9208 1.9008 56.8591 1.93863 56.7938C2.29533 56.1097 2.64835 55.4219 3.00689 54.7378C3.16318 54.4354 3.32498 54.1367 3.49597 53.8416C3.85084 53.2258 4.21489 52.6136 4.57343 51.9977C4.85474 51.5183 5.114 51.0259 5.41738 50.5613C5.98736 49.6817 6.57941 48.8169 7.16778 47.9484C7.71325 47.1408 8.26484 46.335 8.82257 45.531C8.87593 45.468 8.93782 45.4127 9.00644 45.3669C9.00432 45.4499 8.98687 45.5318 8.95495 45.6084C8.43645 46.4511 7.9915 47.3362 7.51896 48.2029C7.34797 48.5145 7.17513 48.8261 7.02252 49.147C6.65479 49.914 6.31464 50.6922 5.93771 51.4519C5.39715 52.549 4.94484 53.6812 4.47598 54.8079C4.09537 55.7298 3.75339 56.6518 3.43898 57.5904C2.57602 60.1292 1.84448 62.7111 1.24729 65.3257C0.646098 68.0839 0.270989 70.8868 0.125713 73.7064C0.055844 74.8828 0.0227455 76.063 0.00803619 77.2412C-0.00667309 78.3476 -0.00483218 79.454 0.0448116 80.5456C0.124041 82.1261 0.296564 83.7005 0.561475 85.2605C0.833384 86.913 1.20548 88.5473 1.6757 90.1544C2.0324 91.3732 2.49942 92.5515 2.96276 93.7279C2.9977 93.8146 3.03631 93.8994 3.07676 93.9824C3.2735 94.4009 3.47023 94.8177 3.66881 95.2363C3.85267 95.6272 4.03654 96.0199 4.22041 96.4071C4.5532 97.0691 4.89703 97.7274 5.23534 98.3875C5.37508 98.6623 5.50747 98.9407 5.65456 99.2155C5.74281 99.3814 5.85497 99.5345 6.11055 99.4699C6.11055 99.3316 6.11055 99.1915 6.11055 99.0551C6.08113 98.2179 6.04068 97.3826 6.02413 96.5454C6.00023 95.4391 5.97633 94.3198 5.98368 93.2079C5.99287 91.7512 6.09951 90.2982 6.21719 88.847C6.24661 88.493 6.27235 88.1371 6.31648 87.7831C6.40289 87.1082 6.50034 86.4351 6.59228 85.7547C6.75224 84.6354 6.91037 83.518 7.0832 82.4006C7.19168 81.698 7.31855 80.9973 7.45093 80.2985C7.46337 80.0754 7.54285 79.8614 7.67892 79.6845C7.67892 80.0901 7.67892 80.422 7.67892 80.7724C7.67892 81.6685 7.67892 82.5665 7.70099 83.4627C7.72673 84.2519 7.79292 85.0374 7.84992 85.8248C7.89037 86.378 7.91244 86.9422 8.00253 87.4843C8.34738 89.5463 8.8427 91.5801 9.48449 93.5693C10.0365 95.2982 10.7036 96.988 11.4813 98.6273C12.2442 100.256 13.1505 101.814 14.1896 103.281C16.1753 105.988 18.5691 108.368 21.285 110.336C22.6582 111.292 24.1127 112.124 25.6316 112.824C27.544 113.71 29.5404 114.4 31.5907 114.885C33.4624 115.339 35.3765 115.483 37.2905 115.634C37.3604 115.634 37.4303 115.634 37.5755 115.634C37.4523 115.503 37.3825 115.424 37.3089 115.352C36.818 114.88 36.3105 114.43 35.838 113.934C34.9793 113.041 34.128 112.143 33.3006 111.223C32.7619 110.626 32.2618 109.995 31.7672 109.361C31.3866 108.876 31.0593 108.348 30.675 107.867C30.3568 107.45 30.0633 107.014 29.7962 106.562C29.3549 105.855 28.9099 105.151 28.4907 104.428C27.8876 103.385 27.3029 102.334 26.7955 101.24C26.516 100.637 26.2126 100.043 25.9515 99.4312C25.6371 98.6936 25.3521 97.9432 25.0598 97.1964C25.0237 97.0803 24.9948 96.962 24.9734 96.8423C25.025 96.8802 25.0724 96.9235 25.1149 96.9714C25.5985 97.6684 26.0655 98.3783 26.5656 99.0643C27.0216 99.6894 27.4978 100.3 27.9888 100.895C28.6672 101.718 29.3604 102.525 30.0995 103.292C30.7063 103.927 31.3131 104.559 31.9621 105.153C32.8814 105.986 33.8541 106.731 34.8322 107.476C35.371 107.886 35.9612 108.225 36.5091 108.623C36.9942 108.977 37.4981 109.305 38.0186 109.604C38.7835 110.041 39.5282 110.51 40.3225 110.895C40.7803 111.116 41.2418 111.328 41.7125 111.527C42.3652 111.804 43.0235 112.068 43.6836 112.33C43.9667 112.442 44.2701 112.514 44.544 112.647C45.1931 112.96 45.901 113.075 46.5905 113.211C47.1927 113.356 47.8098 113.43 48.4291 113.432C48.4754 113.435 48.5214 113.441 48.567 113.449C49.2106 113.515 49.8449 113.69 50.4995 113.622C50.5457 113.622 50.5918 113.626 50.6374 113.633C51.0989 113.657 51.5567 113.687 52.0237 113.698C52.4393 113.709 52.8566 113.698 53.274 113.698C53.3504 113.694 53.4266 113.685 53.502 113.672C53.6528 113.65 53.8017 113.626 53.9525 113.606C54.1823 113.578 54.4121 113.556 54.642 113.524C54.8093 113.502 54.9766 113.454 55.1458 113.447C55.8714 113.423 56.5916 113.313 57.2915 113.119C57.3944 113.087 57.5029 113.075 57.6077 113.047C58.2954 112.874 58.9959 112.737 59.667 112.514C60.4558 112.25 61.2189 111.911 61.9911 111.603C62.271 111.514 62.5419 111.399 62.8001 111.258C63.1807 111.015 63.5926 110.843 63.9897 110.639C64.306 110.476 64.6204 110.314 64.9329 110.144C65.2455 109.975 65.5415 109.776 65.8523 109.621C66.4043 109.342 66.9326 109.018 67.4317 108.653C67.4923 108.598 67.546 108.536 67.5916 108.468C66.6723 108.387 65.7824 108.317 64.8943 108.225C64.4034 108.173 63.918 108.063 63.4234 108.009C62.3046 107.876 61.1981 107.654 60.1138 107.347C58.7949 106.971 57.4989 106.519 56.2324 105.992C55.2457 105.597 54.265 105.181 53.2906 104.742C52.5551 104.404 51.8196 104.032 51.0842 103.656C50.2324 103.219 49.4061 102.734 48.6093 102.203C47.9713 101.771 47.3002 101.393 46.6971 100.903C46.2797 100.565 45.8256 100.268 45.4101 99.9291C44.8217 99.4533 44.226 98.9868 43.6486 98.4982C43.2386 98.1497 42.8433 97.7827 42.4572 97.4066C42.0269 96.9862 41.6114 96.5528 41.1977 96.1158C40.8465 95.747 40.4972 95.3782 40.168 94.9836C39.9419 94.7181 39.7507 94.4304 39.5429 94.1409C39.8444 94.2479 40.0265 94.4931 40.2398 94.7144C40.453 94.9357 40.7546 95.0629 40.9531 95.2879C41.248 95.5791 41.5714 95.8398 41.9184 96.066C42.0637 96.1785 42.22 96.2762 42.3652 96.3887C42.4513 96.4766 42.5448 96.5568 42.6447 96.6284C43.0602 96.8313 43.3986 97.1521 43.8086 97.366C44.2186 97.5799 44.5532 97.8565 44.9412 98.0796C45.434 98.3617 45.9212 98.6568 46.4268 98.9168C46.9784 99.1989 47.5521 99.4238 48.0982 99.7133C49.0889 100.218 50.1073 100.666 51.1485 101.056C51.7175 101.289 52.3002 101.486 52.8934 101.648C53.6289 101.832 54.3515 102.016 55.0888 102.171C56.2354 102.437 57.4057 102.587 58.5822 102.618C58.6429 102.618 58.7054 102.634 58.7661 102.638C59.2883 102.677 59.8104 102.73 60.3345 102.745C60.7169 102.756 61.1012 102.721 61.4855 102.699C61.8697 102.677 62.2209 102.649 62.5887 102.618C62.7413 102.603 62.892 102.57 63.0446 102.551C63.6569 102.476 64.2729 102.435 64.8833 102.321C66.3861 102.045 67.8648 101.649 69.3053 101.139C70.5014 100.727 71.6754 100.253 72.8226 99.7189L73.8523 99.2155L72.8539 98.9794ZM9.00276 45.3208C9.0033 45.2658 9.01998 45.2121 9.05071 45.1666C9.08145 45.121 9.12488 45.0855 9.1756 45.0645C9.17807 45.1204 9.16263 45.1756 9.13153 45.2221C9.10042 45.2685 9.05529 45.3038 9.00276 45.3226V45.3208ZM39.3792 94.0156L39.4362 93.9584L39.5447 94.128L39.3792 94.0156Z" fill="url(#paint0_linear_13_1844)"/>
<path d="M9.19238 45.0347L9.21076 44.9317L9.26041 44.9703L9.19238 45.0347Z" fill="url(#paint1_linear_13_1844)"/>
<path d="M9.50138 44.6108L9.52161 44.5722L9.49219 44.5685L9.50138 44.6108Z" fill="url(#paint2_linear_13_1844)"/>
<defs>
<linearGradient id="paint0_linear_13_1844" x1="-0.0158658" y1="62.6778" x2="73.8357" y2="62.6778" gradientUnits="userSpaceOnUse">
<stop stop-color="#F7C951"/>
<stop offset="0.46" stop-color="#B88C3E"/>
<stop offset="0.82" stop-color="#8F6331"/>
<stop offset="1" stop-color="#7F542C"/>
</linearGradient>
<linearGradient id="paint1_linear_13_1844" x1="-0.0155033" y1="44.9832" x2="73.8351" y2="44.9832" gradientUnits="userSpaceOnUse">
<stop stop-color="#F7C951"/>
<stop offset="0.46" stop-color="#B88C3E"/>
<stop offset="0.82" stop-color="#8F6331"/>
<stop offset="1" stop-color="#7F542C"/>
</linearGradient>
<linearGradient id="paint2_linear_13_1844" x1="-0.0157389" y1="44.5888" x2="73.8376" y2="44.5888" gradientUnits="userSpaceOnUse">
<stop stop-color="#F7C951"/>
<stop offset="0.46" stop-color="#B88C3E"/>
<stop offset="0.82" stop-color="#8F6331"/>
<stop offset="1" stop-color="#7F542C"/>
</linearGradient>
</defs>
</svg>
